<svg xmlns="http://www.w3.org/2000/svg" id="LOGO_LAYER" viewBox="232.76 97.88 125.32 131.44"><g id="LOGO_GROUP"><g id="SELECT_FLAG_HERE"><g id="AZERBAIJAN"><path d="m322.788119,106.7189358c-16.3144531,0-29.5898438,19.0611572-30.9629517,25.3120117-1.3720703,6.2510376-5.6429443,3.2032471-6.4042969-.6083984-.7616577-3.8143921-5.4222412-12.4281616-16.7059937-12.4281616-7.0898438,0-19.3805542,6.8748779-22.5008545,27.8217163l96.1636963-10.1072388c.0337524-.4903564.062439-.9815674.0793457-1.4746704.4482422-13.1065063-4.7265625-28.5152588-19.6689453-28.5152588Z" fill="#00b5e2"/><path d="m289.2206751,217.3693875c3.4251709-10.1786499,19.6385498-23.7210693,33.2872925-40.0280151l-67.5096436,7.0955811c11.7371216,16.0064697,30.5842896,25.576416,34.2223511,32.9324341Z" fill="#509e2f"/><path d="m245.4800135,156.427493c-.1233521,11.1372681,3.8770142,20.3161011,9.5183105,28.0094604l67.5096436-7.0955811c10.1295776-12.102417,18.843689-25.7275391,19.869751-40.6325073l-96.1636963,10.1072388c-.4356079,2.9242554-.6950684,6.1188965-.7340088,9.6113892Zm44.1260986-12.2033691c5.6300049-.5917358,10.616333,1.5866089,13.7741699,5.4198608,1.6544189,1.4023438,2.9298706,3.2312622,3.6885376,5.3595581l1.7526855-5.112854,1.8383789,4.9762573,4.9552612-2.8762207-2.3554077,5.2028198,5.1694946,1.2949829-5.1695557,2.3817139,2.3554688,4.7077026-4.9553223-1.8345947-1.8383179,5.3627319-1.7526855-4.7444458c-.758667,2.2877197-2.0340576,4.3845215-3.6883545,6.1347046-3.1578979,4.4971924-8.1442871,7.7237549-13.774353,8.3154907-9.5510864,1.0038452-17.2938232-5.9250488-17.2938232-15.4761963s7.7427368-18.107666,17.2938232-19.1115112Z" fill="#ef3340"/><path d="m289.6061121,178.8118314c5.6300659-.5917358,10.6164551-3.8182983,13.774353-8.3154907-2.5858154,2.7355347-6.0776367,4.6242065-9.9312744,5.0292358-7.9592896.8365479-14.411499-4.9375-14.411499-12.8967896s6.4522095-15.0897217,14.411499-15.9262695c3.8535767-.4050293,7.3453369.7495117,9.9310913,2.9414673-3.1578369-3.833252-8.144165-6.0115967-13.7741699-5.4198608-9.5510864,1.0038452-17.2938232,9.5603638-17.2938232,19.1115112s7.7427368,16.4800415,17.2938232,15.4761963Z" fill="#f9f9f9"/><path d="m293.4491908,146.7025174c-7.9592896.8365479-14.411499,7.96698-14.411499,15.9262695s6.4522095,13.7333374,14.411499,12.8967896c3.8536377-.4050293,7.345459-2.2937012,9.9312744-5.0292358,1.6542969-1.7501831,2.9296875-3.8469849,3.6883545-6.1347046l-.0856323-.2318726-4.9552612,2.8762207,2.3554077-5.2028198-5.1694946-1.2949829,5.1694946-2.3816528-2.3554077-4.7077026,4.9552612,1.8345947.0856323-.2498779c-.758667-2.1282959-2.0341187-3.9572144-3.6885376-5.3595581-2.5857544-2.1919556-6.0775146-3.3464966-9.9310913-2.9414673Z" fill="#ef3340"/><polygon points="302.0279261 153.418826 304.3833338 158.1265286 299.2138392 160.5081815 304.3833338 161.8031644 302.0279261 167.0059842 306.9831873 164.1297635 307.0688197 164.361636 308.8215052 169.1060818 310.6598231 163.7433499 315.6151453 165.5779446 313.2596766 160.870242 318.4292323 158.4885281 313.2597376 157.1935452 315.6151453 151.9907254 310.6598841 154.8669461 308.8215052 149.8906888 307.0688197 155.0035428 306.9831873 155.2534207 302.0279261 153.418826" fill="#f9f9f9"/></g></g><g id="CHANGE_GROUP_FILL_COLOUR"><path id="HEART_SHAPE" d="m328.124972,97.8772c-13.4179077,0-29.2871094,9.9101562-38.8916016,26.3788452-2.5927734-5.9476929-11.8261719-12.4286499-22.8036499-12.4286499-8.8447266,0-33.6728516,11.0546875-33.6728516,46.7348633,0,46.0483398,46.5883179,55.5062866,56.0063477,69.8168945.6469727.9852905,2.7318726,1.7285156,3.5268555-.6240845,7.5146484-22.1787109,65.7871094-47.2362671,65.7871094-92.3690796,0-25.3110352-16.5341797-37.5087891-29.9522095-37.5087891Zm14.3320923,37.3569946c-1.2216797,35.6781616-47.1855469,64.1537476-53.2363892,82.1351929-5.3866577-10.8916016-44.1206055-26.6328125-43.7406616-60.9418945.3178711-28.5098267,15.1552734-37.4331055,23.2348633-37.4331055,11.2837524,0,15.9443359,8.6137695,16.7059937,12.4281616.7613525,3.8116455,5.0322266,6.859436,6.4042969.6083984,1.3731079-6.2508545,14.6484985-25.3120117,30.9629517-25.3120117,14.9423828,0,20.1171875,15.4087524,19.6689453,28.5152588Z" fill="#fff"/></g></g></svg>