<svg xmlns="http://www.w3.org/2000/svg" id="LOGO_LAYER" viewBox="232.76 97.88 125.33 131.44"><defs><style>.cls-1{fill:none;}.cls-2{fill:#fff;}.cls-3{fill:#ff1d1e;}.cls-4{fill:#fbd600;}.cls-5{fill:#0b0e0e;}</style></defs><g id="LOGO_GROUP"><g id="SELECT_FLAG_HERE"><g id="BLACK_FLAG"><path class="cls-1" d="m311.68,109.59v79.83c.05-.05.1-.1.15-.15v-79.75s-.1.05-.15.07Z"/><path class="cls-4" d="m291.83,132.03c-1.37,6.25-5.64,3.2-6.4-.61-.58-2.91-3.43-8.59-9.74-11.13v84.28c6.4,5.11,11.77,9.22,13.54,12.8,2.54-7.55,12.11-16.95,22.46-27.95v-79.83c-10.9,5.56-18.81,17.7-19.85,22.44Z"/><path class="cls-5" d="m268.71,118.99c-8.08,0-22.92,8.92-23.23,37.43-.26,23.03,17.12,37.7,30.2,48.15v-84.28c-1.97-.8-4.28-1.3-6.96-1.3Z"/><path class="cls-3" d="m322.79,106.72c-3.87,0-7.56,1.08-10.96,2.8v79.75c14.26-15.18,29.93-33.4,30.63-54.03.45-13.11-4.73-28.52-19.67-28.52Z"/><path class="cls-2" d="m328.12,97.88c-13.42,0-29.29,9.91-38.89,26.38-2.59-5.95-11.83-12.43-22.8-12.43-8.84,0-33.67,11.05-33.67,46.73,0,46.05,46.59,55.51,56.01,69.82.65.99,2.73,1.73,3.53-.62,7.51-22.18,65.79-47.24,65.79-92.37,0-25.31-16.53-37.51-29.95-37.51Zm14.33,37.36c-.71,20.63-16.37,38.85-30.63,54.03-.05.05-.1.1-.15.15-10.34,11-19.92,20.4-22.46,27.95-1.77-3.58-7.14-7.68-13.54-12.8-13.08-10.45-30.45-25.11-30.2-48.15.32-28.51,15.16-37.43,23.23-37.43,2.69,0,4.99.5,6.96,1.3,6.31,2.55,9.16,8.23,9.74,11.13.76,3.81,5.03,6.86,6.4.61,1.04-4.75,8.96-16.88,19.85-22.44.05-.02.1-.05.15-.07,3.41-1.72,7.1-2.8,10.96-2.8,14.94,0,20.12,15.41,19.67,28.52Z"/></g></g></g></svg>