<svg xmlns="http://www.w3.org/2000/svg" id="LOGO_LAYER" viewBox="232.76 97.88 125.33 131.44"><defs><style>.cls-1{fill:#f9f9f9;}.cls-2{fill:#fff;}.cls-3{fill:#d57800;}.cls-4{fill:#4e5b31;}</style></defs><g id="LOGO_GROUP"><g id="SELECT_FLAG_HERE"><g id="BLACK_FLAG"><path class="cls-1" d="m322.79,106.72c-16.31,0-29.59,19.06-30.96,25.31-1.37,6.25-5.64,3.2-6.4-.61-.76-3.81-5.42-12.43-16.71-12.43-8.08,0-22.92,8.92-23.23,37.43-.38,34.31,38.35,50.05,43.74,60.94,6.05-17.98,52.01-46.46,53.24-82.14.45-13.11-4.73-28.52-19.67-28.52Zm-52.55,70.95c-.3-.02-.82-.19-1.4-.46-.64-.3-1.17-.64-1.47-.96-.28-.29-.44-.77-.49-1.43-.02-.3-.02-.6.01-.91.05-.02.11-.04.17-.04.22-.02.46.06.78.24.29.18.57.38.82.61.32.29.63.59.91.91h0c.03.06.32.55.55,1.03.11.22.2.46.26.7.02.07.02.15,0,.23,0,.02-.03.05-.05.06-.02,0-.04.02-.06.02h0s-.02,0-.03,0Zm-1.82,1.91c-.54-.04-.85-.47-1.01-.82-.11-.24-.19-.5-.23-.77h0c1.68-.13,2.48.28,2.85.64.23.21.37.51.41.83h0s-.24.05-.6.09h0c-.47.05-.94.06-1.41.03Zm3.16-1.96h0s0,0,0,0h0s-.19-.22-.38-.5c-.2-.29-.38-.59-.38-.86s-.06-.79-.1-1.08c-.05-.37-.09-.69-.09-.72h0s1.05.28,1.05,1.23-.09,1.91-.09,1.92Zm.69.98c.66.43,1.27,1.25,1.82,2.42,0,0,0,0,0,0h0s0,0,0,0c-.53-.09-1.04-.26-1.51-.5-.7-.36-1.56-1.03-1.67-2.21h0c.05-.02.11-.03.16-.04.01,0,.03,0,.04,0,.21-.02.64,0,1.16.33Zm-.69,1.98s.13.2.05.34c-.07.11-.22.18-.45.2h0c-.61.06-.82-.25-.88-.38-.06-.14-.09-.3-.07-.46h0c.1-.04.2-.06.3-.07h.02c.4-.05.78.09,1.02.38Zm3.12,1.93h0c-.5.18-1.02.29-1.53.34h0c-.51.06-1.02.05-1.51-.02-.84-.12-1.2-.4-1.35-.62-.07-.09-.11-.19-.13-.31,0-.04,0-.09,0-.14h0c.43-.15.88-.26,1.33-.31.03,0,.06,0,.09-.01.36-.04.73-.04,1.08,0,.81.08,1.53.46,2.03,1.07h0Zm-2.1-5.13c.11-.07.24-.11.37-.13.01,0,.03,0,.04,0,.02,0,.04,0,.06,0,.31-.02.77.05,1.29.56.59.58,1.12,1.57,1.57,2.96h0s0,0,0,0h0c-.43-.15-.84-.37-1.2-.64-.93-.7-1.66-1.64-2.12-2.73Zm6.63,5.8h0s0,0,0,0h0s0,0,0,0c-1.99.14-3.03-.32-3.54-.73-.22-.17-.4-.39-.54-.63-.05-.09-.09-.19-.11-.3h0c.16-.07.33-.11.49-.13h.05c.67-.08,2.04.06,3.65,1.78Zm-2.97-3.07c.06-.03.13-.06.2-.07h.01c.32-.03.57.21.68.48.06.11.07.25.03.38-.05.12-.17.2-.29.21h0c-.15.02-.3-.03-.4-.12-.09-.1-.15-.22-.18-.35-.04-.17-.06-.35-.04-.53Zm1.48.46c.16-.05.33-.09.49-.11.02,0,.04,0,.07,0,.02,0,.05,0,.07,0,.81-.07,2.27.14,3.02,2.31h0s0,0,0,0c-1.6-.08-2.51-.67-2.99-1.15-.3-.29-.52-.64-.66-1.04Zm-2.63,3.22c-.07-.09-.12-.19-.14-.3-.03-.15-.04-.3-.04-.46h0s.1-.05.15-.05c.12,0,.24.03.33.11.1.08.17.19.21.31.04.1.05.22.02.33-.04.1-.13.17-.23.18h0c-.12.01-.24-.03-.31-.11Zm4.73,1.04c-.21.18-.59.31-1.13.37h-.08s0,0,0,0c-.99.1-2.35-.06-3.2-.81h0s0,0,0,0c.64-.22,1.3-.38,1.97-.47.06,0,.12-.02.19-.02.93-.1,1.64,0,2.11.31.13.07.23.18.28.32.01.11-.04.22-.13.29Zm1.65-1.21s.1-.01.15-.02c.73-.08,1.83.04,2.99,1.05h0s0,0,0,0c-.48.12-.97.2-1.46.26h0c-.94.1-1.65.01-2.12-.26-.2-.11-.36-.27-.47-.47-.04-.08-.06-.16-.08-.25.31-.16.65-.27.98-.31Zm.71-1.66c.06-.03.13-.06.2-.07h.01c.32-.03.57.21.68.48.06.11.07.25.03.38-.05.12-.17.2-.3.2h0c-.15.02-.3-.03-.4-.13-.09-.09-.15-.21-.18-.35-.04-.17-.06-.35-.04-.53Zm1.62.34h0s0,0,0,0c.11-.04.22-.06.34-.07.58-.06,2.08.08,3.52,2.65h0s0,0,0,0c-2.2-.08-3.13-.78-3.52-1.35-.25-.34-.37-.78-.33-1.23Zm-2.39,3.82c-.05.12-.17.2-.3.2h0c-.15.02-.3-.03-.4-.13-.09-.09-.15-.21-.18-.35-.04-.17-.06-.35-.04-.53.06-.03.13-.06.2-.07h.01c.32-.03.57.21.68.48.06.11.07.25.03.38Zm3.42.64c-.89.09-1.76-.07-2.52-.44h0s0,0,0,0c.09-.16.22-.31.36-.43.25-.21.69-.47,1.41-.55h.01c.85-.09,1.89.09,3.09.53-.71.5-1.52.8-2.35.89Zm7.82.14s-.26.25-.52.51c-.12.12-.26.27-.36.39-.04.05-.08.1-.12.16-.02.04-.04.08-.06.12h0s-.03-.01-.04-.03h-.02c-.07-.07-.14-.13-.2-.2-.17-.17-.39-.43-.59-.66-.39-.45-.72-.84-.78-.91l-.02-.03-.02.03c-.06.09-.39.54-.78,1.08-.2.27-.43.57-.59.78-.06.08-.13.16-.2.23l-.02.02s-.03.03-.04.04h0s-.04-.07-.06-.11c-.04-.05-.08-.09-.12-.13-.1-.1-.25-.22-.36-.31-.26-.21-.52-.4-.52-.4h0s1.77-1.49,1.77-1.49l-.11-.02-.72-.26.38-.47,1.32.43h.08s.08-.02.08-.02l1.32-.7.38.39-.72.41-.11.05,1.77,1.12h0Zm-.45-2.5h0c1.44-2.88,2.94-3.33,3.52-3.39.11-.01.23-.01.34,0h0s0,0,0,0c.03.44-.08.9-.33,1.3-.39.65-1.33,1.55-3.52,2.09h0Zm5.35.32h0c-.76.53-1.63.87-2.52.97-.83.09-1.64-.05-2.35-.39,1.2-.69,2.24-1.09,3.09-1.18h.01c.72-.07,1.16.09,1.41.25.15.09.27.21.36.35h0Zm1.78-.84c-.03.14-.09.27-.18.38-.1.12-.25.2-.4.21h0c-.12.02-.24-.04-.3-.14-.04-.13-.02-.26.03-.39.11-.28.36-.59.68-.62h.01c.07,0,.14,0,.2.02.01.18,0,.36-.04.54Zm-.03-1.66c-.11.22-.27.42-.47.57-.47.37-1.19.61-2.12.7h0c-.49.05-.98.06-1.46.05h0s0,0,0,0c1.16-1.25,2.27-1.6,2.99-1.68.05,0,.1,0,.15-.01.34-.02.67.01.98.11-.01.09-.04.18-.08.26Zm-2.51-1.28c.11-.28.36-.59.68-.62h.01c.07,0,.14,0,.2.02.01.18,0,.36-.04.54-.03.14-.09.27-.18.38-.1.12-.25.2-.4.21h0c-.12.02-.24-.04-.3-.14-.04-.13-.02-.26.03-.39Zm7.53-2.55h.05c.17-.02.33-.01.49.02h0c-.03.11-.07.22-.11.32-.13.28-.32.53-.54.75-.52.52-1.55,1.19-3.54,1.47h0s0,0,0,0c0,0,0,0,0,0h0c1.61-2.06,2.98-2.49,3.65-2.56Zm-1.57-.54c.11-.28.36-.59.68-.62h.01c.07,0,.14,0,.2.02.01.18,0,.36-.04.53-.03.14-.09.27-.18.39-.1.12-.25.2-.4.21h0c-.12.02-.24-.04-.29-.14-.04-.12-.03-.26.03-.39Zm-1.26,1.35c-.48.59-1.39,1.37-2.99,1.78h0s0,0,0,0c.75-2.33,2.21-2.85,3.02-2.95.02,0,.05,0,.07,0,.02,0,.04,0,.07,0,.17-.02.33-.01.49,0-.14.43-.36.83-.66,1.18Zm2.96,2.17c-.85.94-2.21,1.38-3.2,1.49h0s-.08,0-.08,0c-.54.05-.92,0-1.13-.14-.09-.05-.14-.15-.13-.26.05-.15.14-.29.28-.38.47-.4,1.18-.66,2.11-.76.06,0,.12-.01.19-.02.66-.05,1.32-.03,1.97.05h0s0,0,0,0Zm.5-1.48c0,.16,0,.31-.04.47-.02.12-.07.23-.14.33-.08.1-.19.17-.31.18h0c-.1.01-.19-.04-.23-.13-.03-.11-.02-.23.02-.34.04-.13.12-.25.21-.36.09-.1.2-.16.33-.18.05,0,.11,0,.15.02h0Zm-.98-2.06h0s0,0,0,0h0c.45-1.48.98-2.59,1.57-3.29.52-.61.98-.79,1.29-.83.02,0,.04,0,.06,0,.01,0,.03,0,.04,0,.13,0,.25.01.37.05-.46,1.19-1.19,2.28-2.12,3.18-.36.35-.76.65-1.2.9Zm4.73-.64c-.23.02-.38-.01-.45-.11-.08-.12.02-.3.05-.35.24-.34.62-.56,1.02-.59h.02c.1-.01.2,0,.3,0h0c.02.16,0,.32-.07.48-.06.15-.27.5-.88.57h0Zm.46-6.03c-.04.3-.1.85-.1,1.1s-.18.61-.38.94c-.19.31-.38.57-.38.58h0s0,0,0,0h0s-.09-.96-.09-1.9,1.01-1.43,1.05-1.45h0s-.05.36-.09.74Zm-.4,3.16s.03,0,.04,0c.05,0,.11,0,.16,0h0c-.1,1.2-.96,2.05-1.67,2.56-.47.34-.98.61-1.51.82,0,0,0,0,0,0h0s0,0,0,0c.55-1.29,1.16-2.23,1.82-2.8.52-.45.95-.55,1.16-.58Zm.95,3.44c-.02.12-.06.23-.13.33-.15.25-.51.61-1.35.9-.5.17-1,.29-1.51.34h0c-.52.06-1.03.05-1.53-.02h0s0,0,0,0c.5-.71,1.22-1.24,2.03-1.5.36-.11.72-.18,1.08-.22.03,0,.06,0,.09,0,.45-.04.89-.03,1.33.03h0s0,.09,0,.14Zm2.76-3.72c-.16.39-.47.88-1.01,1.04-.47.13-.94.22-1.41.27h0c-.36.04-.6.04-.6.04h0c.03-.33.18-.66.41-.92.37-.44,1.16-1.02,2.85-1.24h0c-.04.28-.12.55-.23.82Zm.04-2.52c-.31.38-.83.83-1.47,1.27-.58.39-1.1.68-1.4.76-.01,0-.02,0-.03,0h0s-.04,0-.06,0c-.02-.01-.04-.03-.05-.05-.02-.07-.02-.15,0-.23.06-.26.14-.51.26-.75.22-.53.51-1.08.55-1.14h0c.29-.39.59-.76.91-1.11.25-.28.53-.54.82-.78.32-.26.56-.38.78-.41.06,0,.11,0,.17,0,.03.3.03.6.01.91-.05.67-.21,1.19-.49,1.54Zm12.36-37.76l-.06.09-.06.09-.07.36-.12.16-.02.54v.04l-.12.22-.14.08-.1.03-.57.15-.15.24h-.28s-1.95,1.17-1.95,1.17l-.06.03-.5.41-.04.08-.13.29-.14.05-.17.56-.13.18-.61.55-.71.37-.61.47-.35.39-.66.74-2.55,1.4-.29.2-.56.39-1.14.96-.51.52-.67.84-.12.23-.06.21-.19.65-.09.15-.17.13-.37.15-.22.05-.1.02-.49.06-.52-.11-.3.07-.31.08-.37.26-.04.03-.21.22-.22.34-.25.52-.23.21-.37.79-.03.14-.22,1.14.02.24v.03s.27.74.27.74l-.06.14-.14.05-.13.14h0s.01.02.01.02l.03.02.26-.03.12.06.09.11.52.66v.02s.27.25.27.25l.31.21.18.37.06.13.04.08.3.36.42.38.1.07h0s.27.19.27.19l.78.54.6.85.12.17.02.03.06.06.34.39-.22.26.23.37.26.03.02.03.05.07-.13.19h-.11s-.08-.11-.08-.11l-.02-.02h-.02s-.13.06-.13.06l-.08.03h-.04s-.02,0-.02,0h-.04s-.72-.35-.72-.35h-.2s-.35-.21-.35-.21l-.32.07-.17.04-.22-.07-.28.08-.4-.1-.16.02-.18.22-.04.03-.07.05-.66.11-.56.28-.06.1h0s0,0,0,0h0s0,0,0,0l-.16.26h0s-.29.2-.29.2l-.21.2-.28.18-.2.05-.07-.02-.24-.08-.07-.06-.37-.32-.35-.24-.3-.07h-.06s-.9-.07-.9-.07l-.36.04s-.37.03-.39.05l-1.07.13-.08.02h-.05s0,.01,0,.01l-.31.08-.22.12-.43.34-.27.32-.3.75-.06.57.05.55-.08.32v.48s-.49.76-.49.76l-.18.13-.17.64-.1.07h-.77s-.65.09-.65.09l-.2.14-.14.22-.17.27-.24.12-.21.26-.35.08-.16.29-.81.14-.31.11-.28.18-.33.29-.51.33-.05.03-.13.08-.5.2-.52.43-.1.05-.27.02-.43.28-.21.02-.3.2-.18-.03-.45-.06-.16.04-.35.19-.04.04-.06.06-.11.31h0s-.12.05-.12.05l-3.16.11-.47.13h-.02s-1.05.47-1.05.47h-.05s-.01.04-.01.04l-.41.22-.4.31-.51.51-.47.35-.18.26-.02.07h0s-.06.26-.06.26l-.09.12-.04.32.02.24.03.35.1.27.13.18.32.34.15.15.02.12-.05.11-.07.05h-.19s-.38-.13-.38-.13l-.13-.05-.32.04-.29-.09-.18.11-.27.16h-.43s-.15.04-.15.04l-.12.08-.06.04-.03-.08v-.03s.04-.08.04-.08l.17-.15v-.2s-.11-.29-.11-.29l-.16-.2-.21-.59-.02-.06-.29-.41-.32-.3.1-.18-.24.02h-.03s-.22-.22-.22-.22l-.19-.12-.73-.09-.33.15-.38-.07-.56.3-.22-.05-.75.17-.22.13-.06.1-.31.23-.2.05-.2-.03-.25.04-.25.24-.18.02-.24-.06-.34-.09-.36-.05-.67-.19h0s0,0,0,0h0s-.13-.03-.13-.03l-.17-.02-.31-.04-.36-.12-.18-.13-.14-.1-.23-.12-.54-.28-.27-.04-.61-.12-.28.03-.22-.12-.11-.06-.26.05h-.03s-.23.19-.23.19l-.15-.14-.12-.05h0s-.17-.07-.17-.07l-.75-.6-.15-.06-.24.06-.25-.35-.21-.15h-.13s-.2.05-.2.05l-.18-.15.08-.52-.05-.19-.14-.23v-.05s0-.33,0-.33l-.23-.59-.03-.49-.12-.15-.16-.06-.1-.04-.15-.14-.16.02-.1-.07-.18.06-.16-.12-.21-.5-.39-.31-.23-.18-.03-.16.05-.06.19-.23.12-.4-.11-.27-.5-.57.03-.19.17-.15-.07-.21.13-.33-.19-.55h0s-.09-.15-.09-.15l-.11-.18-.03-.04-.17-.4-.56-.72-.04-.33v-.05s.08-.82.08-.82l.03-.15.04-.16.07-.12.17-.02.23.12h.02s.1.06.1.06l.73.65.51.35.46.24.42.08h.47s.25-.01.25-.01l.51-.16.59-.28.62-.55.27-.24.31-.37.09-.11.29-.46.47-1.11.18-.28.25-.25.25-.25.08-.18.02-.29.09-.07.16.02.09.05.18.09.1-.03.08-.02h.05s0-.01,0-.01l.07-.04.15-.08.17-.09.13-.07h.12s.15-.02.15-.02l.12-.08.02-.04.18-.29.16-.03.22.06.17-.1.34-.19.32-.02.24.03.45.16.48-.04.1.02.14.03h0s.38.07.38.07h.27s.13.14.13.14l.5.24.46.05.41.25.31.05.32.14h.26s.41-.09.41-.09l.16-.08.51-.34.69-.54.3-.24.12-.18.45-1.42.12-.53.13-.57.04-.17.11-1.09v-.68s-.07-.66-.07-.66l-.09-.23-.22-.22-.06-.17v-.2s.02-.33.02-.33l-.04-.35-.11-.34.03-.11h.23s.6.24.6.24l.89.46.69.3.12-.02.38-.08.17.02.46.17.44.07.38-.05.28-.1.32-.15.22-.18.17-.03,1.08.2.32.06,1.19-.28.21.16.35.02.15.1.16.02.28-.13h.12s.34.08.34.08l.14-.03.19-.13.42.08.19.04h.79s.54.13.54.13l.32-.11h.68s1.49-.22,1.49-.22h.04s.18.04.18.04l.51-.12.26-.1.41-.04.55-.24,1.1-.22.99-.43h.03s.17.02.17.02l.27-.03.48-.13.15-.06.21-.09h0s0,.26,0,.26l.6-.25.51-.32.33-.33.99-.58.59-.34.31-.1.49-.06h.71s.27-.12.27-.12h.46s.99-.4.99-.4l.14-.06.04-.02.7-.29.79-.38.45-.12.31-.13,1.52-.92.96-.58.37-.34.52-.21.51-.31.6-.69.31-.44.04-.05.28-.2.15-.21v-.03s.05-.25.05-.25l.14-.04.19.07.25.09.2-.03.15-.11.09.13.22-.11h.19s.04-.01.04-.01l.16-.11.1-.07.05-.05.21-.22.49-.1.26-.17h.06s.26-.03.26-.03l.2-.12.22-.21.28-.13.1-.12.05-.27.1-.03.14.04.13-.04.22-.25.2-.43.13-.1.42-.08.22-.24.15-.06.35-.02h.09s.27-.16.27-.16l.52-.52.24-.12.53.09.4-.25.48-.1.14-.11.11-.19.04-.25.12-.07.21.07.22-.08.03-.02.6-.47.34-.2.36-.02.12-.06.3-.15h0s0,0,0,0h0s.03.06.03.06l-.16.13Z"/><path class="cls-4" d="m270.53,180.2c-.1.01-.2.04-.3.07h0c-.02.16,0,.32.07.46.06.14.27.45.88.38h0c.23-.02.38-.09.45-.2.08-.14-.02-.29-.05-.34-.24-.29-.62-.43-1.02-.38h-.02Z"/><path class="cls-4" d="m271.11,178.27s-.03,0-.04,0c-.05,0-.11.02-.16.04h0c.1,1.18.96,1.85,1.67,2.21.47.24.98.41,1.51.5-.55-1.17-1.16-1.99-1.82-2.42-.52-.34-.95-.35-1.16-.33Z"/><polygon class="cls-4" points="274.08 181.02 274.08 181.02 274.08 181.02 274.08 181.02"/><path class="cls-4" d="m275.91,180.76h0s0,0,0,0c-.45-1.39-.98-2.38-1.57-2.96-.52-.5-.98-.58-1.29-.56-.02,0-.04,0-.06,0-.01,0-.03,0-.04,0-.13.02-.25.06-.37.13.46,1.09,1.19,2.03,2.12,2.73.36.28.76.49,1.2.64h0Z"/><path class="cls-4" d="m271.58,181.45s-.06,0-.09.01c-.45.05-.89.15-1.33.31h0s0,.09,0,.14c.02.11.06.22.13.31.15.22.51.5,1.35.62.5.07,1,.08,1.51.02h0c.52-.05,1.03-.17,1.53-.34h0c-.5-.61-1.22-.99-2.03-1.07-.36-.03-.72-.03-1.08,0Z"/><polygon class="cls-4" points="279.23 183.19 279.23 183.19 279.23 183.19 279.23 183.19"/><path class="cls-4" d="m270.62,174.47h0s.05.35.09.72c.04.29.1.83.1,1.08s.18.57.38.86c.19.27.38.49.38.49h0s0,0,0,0h0s.09-.98.09-1.92-1.01-1.22-1.05-1.23Z"/><path class="cls-4" d="m270.32,177.65s.04-.04.05-.06c.02-.08.02-.15,0-.23-.06-.25-.14-.48-.26-.7-.22-.48-.51-.97-.55-1.03h0c-.29-.33-.59-.63-.91-.92-.25-.23-.53-.43-.82-.61-.32-.19-.56-.26-.78-.24-.06,0-.11.02-.17.04-.03.3-.03.61-.01.91.05.66.21,1.14.49,1.43.31.32.83.66,1.47.96.58.27,1.1.44,1.4.46.01,0,.02,0,.03,0h0s.04,0,.06-.02Z"/><path class="cls-4" d="m270.42,179.47h0c-.03-.33-.18-.62-.41-.83-.37-.36-1.16-.77-2.85-.65h0c.04.27.12.53.23.77.16.35.47.78,1.01.82.47.03.94.02,1.41-.03h0c.36-.04.6-.09.6-.09Z"/><path class="cls-4" d="m280.73,185.25h-.01c-.07.01-.14.03-.2.07-.01.18,0,.36.04.53.03.13.09.25.18.35.1.1.25.15.4.13h0c.12,0,.24-.09.3-.21.04-.13.02-.27-.03-.38-.11-.26-.36-.51-.68-.48Z"/><path class="cls-4" d="m284.13,185.33h-.01c-.72.08-1.16.34-1.41.55-.15.12-.27.27-.36.43h0s0,0,0,0c.76.37,1.63.53,2.52.44.83-.08,1.64-.39,2.35-.89-1.2-.44-2.24-.62-3.09-.53Z"/><path class="cls-4" d="m287.69,184.87h0s0,0,0,0c-1.44-2.57-2.94-2.71-3.52-2.65-.11.01-.23.04-.34.07h0c-.03.45.08.88.33,1.23.39.57,1.33,1.27,3.52,1.35Z"/><path class="cls-4" d="m275.57,181.4h-.05c-.17.02-.33.06-.49.13h0c.03.11.07.2.11.3.13.25.32.46.54.63.52.41,1.55.87,3.54.73h0c-1.61-1.72-2.98-1.86-3.65-1.79Z"/><path class="cls-4" d="m282.84,182.96h0c.12,0,.24-.09.3-.21.04-.13.02-.27-.03-.38-.11-.26-.36-.51-.68-.48h-.01c-.07.01-.14.03-.2.07-.01.18,0,.36.04.53.03.13.09.25.18.35.1.1.25.15.4.13Z"/><path class="cls-4" d="m279.7,184.22c-.47-.31-1.18-.41-2.11-.31-.06,0-.12.01-.19.02-.66.09-1.32.25-1.97.47h0s0,0,0,0c.85.76,2.21.92,3.2.81h0s.08,0,.08,0c.54-.07.92-.19,1.13-.37.09-.07.14-.18.13-.29-.05-.14-.14-.26-.28-.32Z"/><path class="cls-4" d="m281.06,184.65c.47.27,1.19.36,2.12.26h0c.49-.06.98-.14,1.46-.26h0s0,0,0,0c-1.16-1.01-2.27-1.13-2.99-1.05-.05,0-.1.01-.15.02-.34.05-.67.15-.98.31.01.09.04.17.08.25.11.2.27.37.47.47Z"/><path class="cls-4" d="m276.88,181.11h0c.12,0,.24-.09.29-.2.04-.13.03-.27-.03-.38-.11-.26-.36-.51-.68-.48h-.01c-.07.01-.14.03-.2.07-.01.18,0,.36.04.53.03.13.09.25.18.35.1.1.25.14.4.12Z"/><path class="cls-4" d="m281.39,182.76h0c-.75-2.17-2.21-2.38-3.02-2.31-.02,0-.05,0-.07,0-.02,0-.04,0-.07,0-.17.02-.33.06-.49.11.14.4.36.75.66,1.04.48.48,1.39,1.08,2.99,1.15h0Z"/><path class="cls-4" d="m275.65,183.72c.03-.11.02-.23-.02-.33-.04-.12-.12-.23-.21-.31-.09-.08-.2-.12-.33-.11-.05,0-.11.02-.15.05h0c0,.16,0,.31.04.46.02.11.07.22.14.3.08.09.19.13.31.11h0c.1-.01.19-.08.23-.18Z"/><path class="cls-4" d="m299.18,183.31c-.32.03-.57.34-.68.62-.06.13-.07.27-.03.39.05.11.17.16.3.14h0c.15-.01.3-.09.4-.21.09-.11.15-.25.18-.38.04-.18.06-.36.04-.54-.06-.02-.13-.03-.2-.02h-.01Z"/><polygon class="cls-4" points="305.83 177.69 305.83 177.68 305.83 177.68 305.83 177.69"/><path class="cls-4" d="m295.8,184.1h-.01c-.85.09-1.89.49-3.09,1.18.71.35,1.52.48,2.35.39.89-.1,1.76-.44,2.52-.97h0c-.09-.15-.22-.27-.36-.36-.25-.15-.69-.32-1.41-.25Z"/><path class="cls-4" d="m295.75,182.3c.25-.4.37-.85.33-1.3h0s0,0,0,0c-.11-.01-.22-.01-.34,0-.58.06-2.08.51-3.52,3.39h0s0,0,0,0c2.2-.54,3.13-1.44,3.52-2.09Z"/><path class="cls-4" d="m308.24,171.86c0,.95.09,1.89.09,1.9h0s0,0,0,0h0s.19-.26.38-.58c.2-.33.38-.67.38-.94s.06-.8.1-1.1c.05-.38.09-.71.09-.74h0s-1.05.51-1.05,1.45Z"/><path class="cls-4" d="m305.83,177.68c.53-.21,1.04-.48,1.51-.82.7-.51,1.56-1.36,1.67-2.56h0c-.05,0-.11,0-.16,0-.01,0-.03,0-.04,0-.21.02-.64.13-1.16.58-.66.57-1.27,1.52-1.82,2.8Z"/><path class="cls-4" d="m309.89,174.45c-.23.26-.37.59-.41.92h0s.24,0,.6-.04h0c.47-.05.94-.14,1.41-.27.54-.16.85-.65,1.01-1.04.11-.26.19-.54.23-.82h0c-1.68.23-2.48.8-2.85,1.24Z"/><path class="cls-4" d="m312.87,169.05c-.22.03-.46.15-.78.41-.29.24-.57.5-.82.78-.32.35-.63.72-.91,1.11h0c-.03.07-.32.62-.55,1.15-.11.24-.2.5-.26.75-.02.08-.02.15,0,.23,0,.02.03.04.05.05.02,0,.04,0,.06,0h0s.02,0,.03,0c.3-.08.82-.36,1.4-.76.64-.44,1.17-.89,1.47-1.27.28-.35.44-.86.49-1.54.02-.3.02-.61-.01-.91-.05-.01-.11-.01-.17,0Z"/><path class="cls-4" d="m308.43,177.58s-.06,0-.09,0c-.36.04-.73.11-1.08.22-.81.25-1.53.79-2.03,1.5h0s0,0,0,0c.5.07,1.02.08,1.53.02h0c.51-.05,1.02-.17,1.51-.34.84-.3,1.2-.66,1.35-.9.07-.1.11-.22.13-.33,0-.05,0-.09,0-.14h0c-.43-.06-.88-.07-1.33-.03Z"/><path class="cls-4" d="m304.5,180.02c-.1.1-.17.23-.21.36-.04.11-.05.23-.02.34.04.09.13.14.23.13h0c.12-.01.24-.08.31-.18.07-.1.12-.22.14-.33.03-.16.04-.31.04-.47h0s-.1-.03-.15-.02c-.12.02-.24.08-.33.18Z"/><path class="cls-4" d="m303.03,178.36h0c.15-.01.3-.09.4-.21.09-.12.15-.25.18-.39.04-.18.06-.36.04-.53-.06-.02-.13-.03-.2-.02h-.01c-.32.03-.57.34-.68.62-.06.13-.07.26-.03.39.05.11.17.17.29.14Z"/><path class="cls-4" d="m298.27,181.85c-.73.08-1.83.43-2.99,1.68h0s0,0,0,0c.48.02.97,0,1.46-.05h0c.94-.1,1.65-.34,2.12-.7.2-.15.36-.35.47-.57.04-.08.06-.17.08-.26-.31-.09-.65-.13-.98-.11-.05,0-.1,0-.15.01Z"/><path class="cls-4" d="m301.61,178s-.05,0-.07,0c-.81.1-2.27.62-3.02,2.95h0s0,0,0,0c1.6-.41,2.51-1.2,2.99-1.78.3-.35.52-.75.66-1.18-.16-.02-.33-.02-.49,0-.02,0-.04,0-.07,0Z"/><path class="cls-4" d="m309.62,176.61c.06-.15.09-.32.07-.48h0c-.1-.02-.2-.02-.3-.01h-.02c-.4.03-.78.25-1.02.6-.03.05-.13.23-.05.35.07.1.22.13.45.11h0c.61-.06.82-.42.88-.57Z"/><path class="cls-4" d="m306.95,173.68s-.03,0-.04,0c-.02,0-.04,0-.06,0-.31.04-.77.22-1.29.83-.59.7-1.12,1.81-1.57,3.29h0s0,0,0,0h0c.43-.24.84-.55,1.2-.9.93-.9,1.66-1.99,2.12-3.18-.11-.04-.24-.06-.37-.05Z"/><path class="cls-4" d="m302.51,181.29c-.06,0-.12.01-.19.02-.93.1-1.64.35-2.11.76-.13.09-.23.23-.28.38-.01.11.04.21.13.26.21.14.59.18,1.13.14h.08s0,0,0,0c.99-.1,2.35-.55,3.2-1.49h0s0,0,0,0c-.64-.08-1.3-.1-1.97-.05Z"/><path class="cls-4" d="m300.69,180.93h0c1.99-.28,3.03-.95,3.54-1.47.22-.22.4-.47.54-.75.05-.1.09-.21.11-.32h0c-.16-.03-.33-.04-.49-.02h-.05c-.67.08-2.04.5-3.65,2.56Z"/><polygon class="cls-4" points="300.69 180.93 300.69 180.93 300.69 180.93 300.69 180.93"/><path class="cls-4" d="m297.08,181.46c.15-.01.3-.09.4-.21.09-.11.15-.25.18-.38.04-.18.06-.36.04-.54-.06-.02-.13-.03-.2-.02h-.01c-.32.03-.57.34-.68.62-.06.13-.07.27-.03.39.05.11.17.16.3.14h0Z"/><path class="cls-4" d="m291.02,185.73l.72-.41-.38-.39-1.32.7-.08.02h-.08s-1.32-.43-1.32-.43l-.38.47.72.26.11.02-1.77,1.49h0s.26.19.52.4c.12.09.26.21.36.31.04.04.08.09.12.13.02.03.04.07.06.11h0s.03-.02.04-.04l.02-.02c.07-.07.14-.15.2-.23.17-.21.39-.51.59-.78.39-.53.72-.99.78-1.08l.02-.03.02.03c.06.07.39.46.78.91.2.23.43.48.59.66.06.07.13.13.2.19h.02s.03.03.04.04h0s.04-.08.06-.12c.04-.05.08-.11.12-.16.1-.12.25-.27.36-.39.26-.26.52-.51.52-.51h0s-1.77-1.12-1.77-1.12l.11-.05Z"/><polygon class="cls-3" points="325.04 133.55 325.05 133.56 325.05 133.55 325.04 133.55"/><path class="cls-3" d="m324.75,133.7l-.12.06-.36.02-.34.2-.6.47-.03.02-.22.08-.21-.07-.12.07-.04.25-.11.19-.14.11-.48.1-.4.25-.53-.09-.24.12-.52.52-.27.15h-.09s-.35.02-.35.02l-.15.06-.22.24-.42.08-.13.1-.2.43-.22.25-.13.04-.14-.04-.1.03-.05.27-.1.12-.28.13-.22.21-.2.12-.26.02h-.06s-.26.18-.26.18l-.49.1-.21.22-.05.05-.1.07-.16.11-.04.03h-.19s-.22.1-.22.1l-.09-.13-.15.11-.2.03-.25-.09-.19-.07-.14.04-.05.25v.03s-.15.21-.15.21l-.28.2-.04.05-.31.44-.6.69-.51.31-.52.21-.37.34-.96.58-1.52.92-.31.13-.45.12-.79.38-.7.29-.04.02-.14.06-.99.4h-.46s-.27.13-.27.13h-.71s-.49.06-.49.06l-.31.1-.59.34-.99.58-.33.33-.51.32-.6.25v-.25s0-.01,0-.01l-.21.09-.15.06-.48.13-.27.03-.17-.03h-.03s-.99.44-.99.44l-1.1.22-.55.24-.41.04-.26.1-.51.12-.18-.03h-.04s-1.49.21-1.49.21h-.68s-.32.1-.32.1l-.54-.13h-.79s-.19-.04-.19-.04l-.42-.08-.19.13-.14.03-.34-.09h-.12s-.28.14-.28.14l-.16-.02-.15-.1-.35-.02-.21-.16-1.19.28-.32-.06-1.08-.2-.17.03-.22.18-.32.15-.28.1-.38.05-.44-.07-.46-.17-.17-.02-.38.08-.12.02-.69-.3-.89-.46-.6-.23h-.23s-.03.1-.03.1l.11.34.04.35v.33s-.02.2-.02.2l.06.17.22.22.09.23.07.66v.68s-.11,1.09-.11,1.09l-.04.17-.13.57-.12.53-.45,1.42-.12.18-.3.24-.69.54-.51.34-.16.08-.41.07h-.26s-.32-.12-.32-.12l-.31-.05-.41-.25-.46-.05-.5-.24-.13-.14h-.27s-.38-.07-.38-.07h0s-.14-.03-.14-.03l-.1-.02-.48.04-.45-.16-.24-.03-.32.02-.34.19-.17.1-.22-.06-.16.03-.18.29-.02.04-.12.08h-.15s-.12.02-.12.02l-.13.07-.17.09-.15.08-.07.04h0s-.05.01-.05.01l-.08.02-.1.03-.18-.09-.09-.05-.16-.02-.09.07-.02.29-.08.18-.25.25-.25.25-.18.28-.47,1.11-.29.46-.09.11-.31.37-.27.24-.62.55-.59.28-.51.16-.25.03h-.47s-.42-.1-.42-.1l-.46-.24-.51-.35-.73-.65-.1-.05h-.02s-.23-.14-.23-.14l-.17.02-.07.12-.04.16-.03.15-.08.82v.05s.05.33.05.33l.56.72.17.4.03.04.11.18.09.14h0s.19.56.19.56l-.13.33.07.21-.17.15-.03.19.5.57.11.27-.12.4-.19.23-.05.06.03.16.23.18.39.31.21.5.16.12.18-.06.1.07.16-.02.15.14.1.04.16.06.12.15.03.49.23.59v.33s0,.05,0,.05l.14.23.05.19-.08.52.18.15.2-.06h.13s.21.16.21.16l.25.35.24-.06.15.06.75.6.17.07h0s.12.05.12.05l.15.14.23-.18h.03s.26-.05.26-.05l.11.06.22.12.28-.03.61.12.27.04.54.28.23.12.14.1.18.13.36.12.31.04.17.02.13.04h0s0,0,0,0h0s.67.19.67.19l.36.05.34.09.24.06.18-.02.25-.24.25-.04.2.03.2-.05.31-.23.06-.1.22-.13.75-.17.22.05.56-.3.38.07.33-.15.73.09.19.12.22.23h.03s.24-.02.24-.02l-.1.18.32.3.29.41.02.06.21.59.16.2.11.29v.2s-.16.15-.16.15l-.03.08v.03s.02.08.02.08l.06-.04.12-.08.15-.04h.26s.17,0,.17,0l.27-.16.18-.11.29.09.32-.04.13.05.38.13h.19s.07-.06.07-.06l.05-.11-.02-.12-.15-.15-.32-.34-.13-.18-.1-.27-.03-.35-.02-.24.04-.32.09-.12.06-.26h0s.02-.07.02-.07l.18-.26.47-.35.51-.51.4-.31.41-.22v-.05s.06.01.06.01l1.05-.47h.02s.47-.13.47-.13l3.16-.11.12-.05h0s.11-.31.11-.31l.06-.06.04-.04.35-.19.16-.04.45.06.18.03.3-.2.21-.02.43-.28.27-.02.1-.05.52-.43.5-.2.13-.08.05-.03.51-.33.33-.29.28-.18.31-.11.81-.14.16-.29.35-.08.21-.26.24-.12.17-.27.14-.22.2-.14.65-.11h.77s.1-.06.1-.06l.17-.64.18-.13.49-.76v-.26s0-.22,0-.22l.08-.32-.05-.55.06-.57.3-.75.27-.32.43-.34.22-.12.31-.08h0s.05-.01.05-.01l.08-.02,1.07-.13s.39-.05.39-.05l.36-.04.9.07h.06s.3.07.3.07l.35.24.37.32.07.06.24.08.07.02.2-.05.28-.18.21-.2.29-.19h0s.16-.27.16-.27h0s0,0,0,0h0s0,0,0,0l.06-.1.56-.28.66-.11.07-.05.04-.03.18-.22.16-.02.4.1.28-.08.22.07.17-.04.32-.07.35.21h.2s.72.35.72.35h.04s.02,0,.02,0h.04s.08-.03.08-.03l.13-.05h.02s.02.01.02.01l.08.11h.11s.13-.19.13-.19l-.05-.07-.02-.03-.26-.03-.23-.37.22-.26-.34-.39-.06-.06-.02-.03-.12-.17-.6-.85-.78-.54-.27-.19h0s-.1-.07-.1-.07l-.42-.38-.3-.36-.04-.08-.06-.13-.18-.37-.31-.21-.25-.25v-.02s-.54-.66-.54-.66l-.09-.11-.12-.06-.26.03-.03-.02h-.01s0-.02,0-.02l.13-.14.14-.05.06-.14-.27-.74v-.03s-.02-.24-.02-.24l.22-1.14.03-.14.37-.79.23-.21.25-.52.22-.34.21-.22.04-.03.37-.26.31-.08.3-.07.52.11.49-.06.1-.02.22-.05.37-.15.17-.13.09-.15.19-.65.06-.21.12-.23.67-.84.51-.52,1.14-.96.56-.39.29-.2,2.55-1.4.66-.74.35-.39.61-.47.71-.37.61-.55.13-.18.17-.56.14-.05.13-.29.04-.08.5-.41.06-.03,1.95-1.18h.28s.15-.23.15-.23l.57-.15.1-.03.14-.08.12-.22v-.04l.02-.54.12-.16.07-.36.06-.09.06-.09.16-.13-.03-.06-.3.15Z"/><path class="cls-2" d="m328.12,97.88c-13.42,0-29.29,9.91-38.89,26.38-2.59-5.95-11.83-12.43-22.8-12.43-8.84,0-33.67,11.05-33.67,46.73,0,46.05,46.59,55.51,56.01,69.82.65.99,2.73,1.73,3.53-.62,7.51-22.18,65.79-47.24,65.79-92.37,0-25.31-16.53-37.51-29.95-37.51Zm14.33,37.36c-1.22,35.68-47.19,64.15-53.24,82.14-5.39-10.89-44.12-26.63-43.74-60.94.32-28.51,15.16-37.43,23.23-37.43,11.28,0,15.94,8.61,16.71,12.43.76,3.81,5.03,6.86,6.4.61,1.37-6.25,14.65-25.31,30.96-25.31,14.94,0,20.12,15.41,19.67,28.52Z"/></g></g></g></svg>