<svg xmlns="http://www.w3.org/2000/svg" id="LOGO_LAYER" viewBox="232.76 97.88 125.33 131.44"><defs><style>.cls-1{fill:#f9f9f9;}.cls-2{fill:#fff;}.cls-3{fill:#d7141a;}.cls-4{fill:#11457e;}</style></defs><g id="LOGO_GROUP"><g id="SELECT_FLAG_HERE"><g id="BLACK_FLAG"><path class="cls-3" d="m258.04,188.27c11.71,13.74,27.85,22.35,31.18,29.1,4.81-14.3,34.85-35.23,47.58-61.14l-43.12,4.53-35.64,27.51Z"/><path class="cls-1" d="m322.79,106.72c-16.31,0-29.59,19.06-30.96,25.31-1.37,6.25-5.64,3.2-6.4-.61-.76-3.81-5.42-12.43-16.71-12.43-5.65,0-14.6,4.38-19.58,16.75l44.55,25.02h0s43.12-4.53,43.12-4.53c3.28-6.68,5.41-13.68,5.66-20.99.45-13.11-4.73-28.52-19.67-28.52Z"/><path class="cls-4" d="m293.68,160.76l-44.55-25.02c-2.14,5.32-3.56,12.11-3.65,20.68-.14,13.05,5.37,23.41,12.56,31.84l35.64-27.51h0Z"/><path class="cls-2" d="m328.12,97.88c-13.42,0-29.29,9.91-38.89,26.38-2.59-5.95-11.83-12.43-22.8-12.43-8.84,0-33.67,11.05-33.67,46.73,0,46.05,46.59,55.51,56.01,69.82.65.99,2.73,1.73,3.53-.62,7.51-22.18,65.79-47.24,65.79-92.37,0-25.31-16.53-37.51-29.95-37.51Zm14.33,37.36c-.25,7.31-2.38,14.32-5.66,20.99-12.72,25.91-42.77,46.84-47.58,61.14-3.34-6.75-19.48-15.36-31.18-29.1-7.18-8.43-12.7-18.79-12.56-31.84.1-8.57,1.51-15.36,3.65-20.68,4.98-12.37,13.93-16.75,19.58-16.75,11.28,0,15.94,8.61,16.71,12.43.76,3.81,5.03,6.86,6.4.61,1.37-6.25,14.65-25.31,30.96-25.31,14.94,0,20.12,15.41,19.67,28.52Z"/></g></g></g></svg>