<svg xmlns="http://www.w3.org/2000/svg" id="LOGO_LAYER" viewBox="232.76 97.88 125.33 131.44"><defs><style>.cls-1{fill:#f9f9f9;}.cls-2{fill:#fff;}.cls-3{fill:#c60c30;}</style></defs><g id="LOGO_GROUP"><g id="SELECT_FLAG_HERE"><g id="BLACK_FLAG"><path class="cls-3" d="m288.38,215.99c.33.47.62.93.84,1.38,4.17-12.4,27.34-29.8,41.71-51.12l-42.55,4.47v45.27Z"/><path class="cls-3" d="m249.34,174.83c5.28,11.76,15.09,20.62,23.73,27.65v-30.14l-23.73,2.49Z"/><path class="cls-3" d="m322.79,106.72c-16.31,0-29.59,19.06-30.96,25.31-.69,3.13-2.1,3.93-3.44,3.46v19.92l51.06-5.37c1.75-4.79,2.84-9.73,3.01-14.81.45-13.11-4.73-28.52-19.67-28.52Z"/><path class="cls-3" d="m273.07,119.48c-1.33-.3-2.77-.49-4.36-.49-8.08,0-22.92,8.92-23.23,37.43-.01,1.18.02,2.35.1,3.49l27.49-2.89v-37.54Z"/><path class="cls-1" d="m288.38,135.5c-1.33-.46-2.58-2.17-2.96-4.07-.65-3.28-4.2-10.09-12.35-11.94v37.54l-27.49,2.89c.37,5.44,1.73,10.39,3.76,14.91l23.73-2.49v30.14c6.68,5.43,12.66,9.77,15.31,13.52v-45.27l42.55-4.47c3.49-5.18,6.46-10.58,8.52-16.21l-51.06,5.37v-19.92Z"/><path class="cls-2" d="m328.12,97.88c-13.42,0-29.29,9.91-38.89,26.38-2.59-5.95-11.83-12.43-22.8-12.43-8.84,0-33.67,11.05-33.67,46.73,0,46.05,46.59,55.51,56.01,69.82.65.99,2.73,1.73,3.53-.62,7.51-22.18,65.79-47.24,65.79-92.37,0-25.31-16.53-37.51-29.95-37.51Zm14.33,37.36c-.17,5.09-1.26,10.03-3.01,14.81-2.05,5.62-5.02,11.03-8.52,16.21-14.37,21.31-37.54,38.71-41.71,51.12-.22-.45-.51-.91-.84-1.38-2.65-3.75-8.63-8.09-15.31-13.52-8.64-7.03-18.45-15.89-23.73-27.65-2.03-4.52-3.39-9.47-3.76-14.91-.08-1.14-.12-2.3-.1-3.49.32-28.51,15.16-37.43,23.23-37.43,1.59,0,3.03.18,4.36.49,8.14,1.85,11.69,8.66,12.35,11.94.38,1.9,1.63,3.61,2.96,4.07,1.34.47,2.75-.33,3.44-3.46,1.37-6.25,14.65-25.31,30.96-25.31,14.94,0,20.12,15.41,19.67,28.52Z"/></g></g></g></svg>