<svg xmlns="http://www.w3.org/2000/svg" id="LOGO_LAYER" viewBox="232.76 97.88 125.33 131.44"><defs><style>.cls-1{fill:#f9f9f9;}.cls-2{fill:#0072ce;}.cls-3{fill:#fff;}</style></defs><g id="LOGO_GROUP"><g id="SELECT_FLAG_HERE"><g id="BLACK_FLAG"><path class="cls-2" d="m322.79,106.72c-16.31,0-29.59,19.06-30.96,25.31-1.37,6.25-5.64,3.2-6.4-.61-.76-3.81-5.42-12.43-16.71-12.43-7.04,0-19.22,6.79-22.44,27.42l96.12-10.1c.02-.36.05-.71.06-1.07.45-13.11-4.73-28.52-19.67-28.52Z"/><path d="m245.48,156.43c-.13,11.52,4.16,20.94,10.1,28.79l66.14-6.95c10.55-12.44,19.75-26.52,20.67-41.96l-96.12,10.1c-.47,3.03-.76,6.36-.8,10.02Z"/><path class="cls-1" d="m289.22,217.37c3.36-9.99,19.03-23.21,32.51-39.1l-66.14,6.95c11.77,15.54,30.06,24.91,33.64,32.15Z"/><path class="cls-3" d="m328.12,97.88c-13.42,0-29.29,9.91-38.89,26.38-2.59-5.95-11.83-12.43-22.8-12.43-8.84,0-33.67,11.05-33.67,46.73,0,46.05,46.59,55.51,56.01,69.82.65.99,2.73,1.73,3.53-.62,7.51-22.18,65.79-47.24,65.79-92.37,0-25.31-16.53-37.51-29.95-37.51Zm14.33,37.36c-.01.36-.04.72-.06,1.07-.92,15.44-10.12,29.52-20.67,41.96-13.48,15.89-29.15,29.12-32.51,39.1-3.58-7.24-21.87-16.61-33.64-32.15-5.95-7.85-10.23-17.27-10.1-28.79.04-3.66.32-6.98.8-10.02,3.22-20.63,15.39-27.42,22.44-27.42,11.28,0,15.94,8.61,16.71,12.43.76,3.81,5.03,6.86,6.4.61,1.37-6.25,14.65-25.31,30.96-25.31,14.94,0,20.12,15.41,19.67,28.52Z"/></g></g></g></svg>