<svg xmlns="http://www.w3.org/2000/svg" id="LOGO_LAYER" viewBox="232.76 97.88 125.33 131.44"><defs><style>.cls-1{fill:#f9f9f9;}.cls-2{fill:#003580;}.cls-3{fill:#fff;}</style></defs><g id="LOGO_GROUP"><g id="SELECT_FLAG_HERE"><g id="BLACK_FLAG"><path class="cls-1" d="m322.79,106.72c-13.32,0-24.61,12.7-29.06,20.77v22.35l47.32-4.97c.8-3.15,1.29-6.36,1.4-9.63.45-13.11-4.73-28.52-19.67-28.52Z"/><path class="cls-1" d="m270.98,119.13c-.73-.08-1.48-.13-2.27-.13-7.93,0-22.37,8.62-23.19,35.91l25.46-2.68v-33.1Z"/><path class="cls-1" d="m293.73,209.41c8.07-10.91,23.93-24.58,35.38-40.53l-35.38,3.72v36.82Z"/><path class="cls-1" d="m250.45,177.14c5,9.71,13.02,17.36,20.53,23.62v-25.77l-20.53,2.16Z"/><path class="cls-2" d="m293.73,127.49c-1,1.81-1.66,3.39-1.91,4.54-1.37,6.25-5.64,3.2-6.4-.61-.71-3.55-4.8-11.24-14.44-12.3v33.1l-25.46,2.68c-.02.51-.04,1-.04,1.52-.09,7.81,1.86,14.66,4.97,20.71l20.53-2.16v25.77c8.35,6.95,16.05,12.18,18.24,16.61.83-2.46,2.41-5.12,4.51-7.96v-36.82l35.38-3.72c5.39-7.51,9.79-15.53,11.95-24.01l-47.32,4.97v-22.35Z"/><path class="cls-3" d="m328.12,97.88c-13.42,0-29.29,9.91-38.89,26.38-2.59-5.95-11.83-12.43-22.8-12.43-8.84,0-33.67,11.05-33.67,46.73,0,46.05,46.59,55.51,56.01,69.82.65.99,2.73,1.73,3.53-.62,7.51-22.18,65.79-47.24,65.79-92.37,0-25.31-16.53-37.51-29.95-37.51Zm14.33,37.36c-.11,3.27-.6,6.48-1.4,9.63-2.15,8.48-6.56,16.49-11.95,24.01-11.44,15.96-27.3,29.63-35.38,40.53-2.11,2.84-3.68,5.5-4.51,7.96-2.19-4.43-9.89-9.66-18.24-16.61-7.5-6.25-15.52-13.9-20.53-23.62-3.12-6.05-5.06-12.9-4.97-20.71,0-.52.03-1.02.04-1.52.82-27.3,15.26-35.91,23.19-35.91.79,0,1.54.05,2.27.13,9.64,1.06,13.73,8.75,14.44,12.3.76,3.81,5.03,6.86,6.4.61.25-1.15.91-2.73,1.91-4.54,4.44-8.07,15.74-20.77,29.06-20.77,14.94,0,20.12,15.41,19.67,28.52Z"/></g></g></g></svg>