<svg xmlns="http://www.w3.org/2000/svg" id="LOGO_LAYER" viewBox="232.76 97.88 125.33 131.44"><defs><style>.cls-1{fill:#f9f9f9;}.cls-2{fill:#fff;}.cls-3{fill:red;}</style></defs><g id="LOGO_GROUP"><g id="SELECT_FLAG_HERE"><g id="BLACK_FLAG"><path class="cls-1" d="m296.4,206.03c9.92-11.94,26.96-26.83,37.31-44.13l-37.31,3.92v40.2Zm6.92-30.46c1.8.17,3.61.21,5.43.1-.09-1.81-.32-3.6-.68-5.36,1.65.04,3.33-.13,4.98-.52-.36,1.83-.59,3.67-.68,5.5,1.82-.28,3.63-.7,5.43-1.25-.22,1.68-.22,3.35,0,4.98-1.8-.17-3.61-.21-5.43-.1.09,1.81.32,3.6.68,5.36-1.65-.04-3.33.13-4.98.52.36-1.83.59-3.67.68-5.5-1.82.28-3.63.7-5.43,1.25.22-1.68.22-3.35,0-4.98Z"/><path class="cls-1" d="m282.23,125.13c-2.62-3.2-6.93-6.14-13.52-6.14-8.08,0-22.92,8.92-23.23,37.43,0,.2,0,.39,0,.58l36.75-3.86v-28.01Zm-6.92,18.26c-1.8-.17-3.61-.21-5.43-.1.09,1.81.32,3.6.68,5.36-1.65-.04-3.33.13-4.98.52.36-1.83.59-3.67.68-5.5-1.82.28-3.63.7-5.43,1.25.22-1.68.22-3.35,0-4.98,1.8.17,3.61.21,5.43.1-.09-1.81-.32-3.6-.68-5.36,1.65.04,3.33-.13,4.98-.52-.36,1.83-.59,3.67-.68,5.5,1.82-.28,3.63-.7,5.43-1.25-.22,1.68-.22,3.35,0,4.98Z"/><path class="cls-1" d="m247.8,170.93c6.34,18.52,24.14,30.3,34.43,38.93v-42.55l-34.43,3.62Zm22.08,12.46c.09,1.81.32,3.6.68,5.36-1.65-.04-3.33.13-4.98.52.36-1.83.59-3.67.68-5.5-1.82.28-3.63.7-5.43,1.25.22-1.68.22-3.35,0-4.98,1.8.17,3.61.21,5.43.1-.09-1.81-.32-3.6-.68-5.36,1.65.04,3.33-.13,4.98-.52-.36,1.83-.59,3.67-.68,5.5,1.82-.28,3.63-.7,5.43-1.25-.22,1.68-.22,3.35,0,4.98-1.8-.17-3.61-.21-5.43-.1Z"/><path class="cls-1" d="m322.79,106.72c-11.17,0-20.92,8.94-26.39,16.58v28.36l44.06-4.63c1.15-3.84,1.87-7.77,2-11.79.45-13.11-4.73-28.52-19.67-28.52Zm-4.98,32.21c-1.8-.17-3.61-.21-5.43-.1.09,1.81.32,3.6.68,5.36-1.65-.04-3.33.13-4.98.52.36-1.83.59-3.67.68-5.5-1.82.28-3.63.7-5.43,1.25.22-1.68.22-3.35,0-4.98,1.8.17,3.61.21,5.43.1-.09-1.81-.32-3.6-.68-5.36,1.65.04,3.33-.13,4.98-.52-.36,1.83-.59,3.67-.68,5.5,1.82-.28,3.63-.7,5.43-1.25-.22,1.68-.22,3.35,0,4.98Z"/><path class="cls-3" d="m296.4,123.3c-2.52,3.52-4.14,6.76-4.57,8.73-1.37,6.25-5.64,3.2-6.4-.61-.32-1.59-1.32-4.01-3.19-6.29v28.01l-36.75,3.86c0,5.03.86,9.65,2.32,13.92l34.43-3.62v42.55c3.33,2.79,5.87,5.25,6.99,7.51,1.15-3.41,3.73-7.2,7.18-11.34v-40.2l37.31-3.92c2.86-4.78,5.2-9.74,6.75-14.87l-44.06,4.63v-28.36Z"/><path class="cls-3" d="m308.75,179.31c-.09,1.83-.32,3.67-.68,5.5,1.65-.39,3.33-.57,4.98-.52-.36-1.76-.59-3.55-.68-5.36,1.82-.1,3.63-.07,5.43.1-.22-1.63-.22-3.3,0-4.98-1.8.55-3.61.97-5.43,1.25.09-1.83.32-3.67.68-5.5-1.65.39-3.33.57-4.98.52.36,1.76.59,3.55.68,5.36-1.82.1-3.63.07-5.43-.1.22,1.63.22,3.3,0,4.98,1.8-.55,3.61-.97,5.43-1.25Z"/><path class="cls-3" d="m275.31,178.51c-1.8.55-3.61.97-5.43,1.25.09-1.83.32-3.67.68-5.5-1.65.39-3.33.57-4.98.52.36,1.76.59,3.55.68,5.36-1.82.1-3.63.07-5.43-.1.22,1.63.22,3.3,0,4.98,1.8-.55,3.61-.97,5.43-1.25-.09,1.83-.32,3.67-.68,5.5,1.65-.39,3.33-.57,4.98-.52-.36-1.76-.59-3.55-.68-5.36,1.82-.1,3.63-.07,5.43.1-.22-1.63-.22-3.3,0-4.98Z"/><path class="cls-3" d="m312.38,135.19c.09-1.83.32-3.67.68-5.5-1.65.39-3.33.57-4.98.52.36,1.76.59,3.55.68,5.36-1.82.1-3.63.07-5.43-.1.22,1.63.22,3.3,0,4.98,1.8-.55,3.61-.96,5.43-1.25-.09,1.83-.32,3.67-.68,5.5,1.65-.39,3.33-.57,4.98-.52-.36-1.76-.59-3.55-.68-5.36,1.82-.1,3.63-.07,5.43.1-.22-1.63-.22-3.3,0-4.98-1.8.55-3.61.97-5.43,1.25Z"/><path class="cls-3" d="m269.88,139.66c.09-1.83.32-3.67.68-5.5-1.65.39-3.33.57-4.98.52.36,1.76.59,3.55.68,5.36-1.82.1-3.63.07-5.43-.1.22,1.63.22,3.3,0,4.98,1.8-.55,3.61-.97,5.43-1.25-.09,1.83-.32,3.67-.68,5.5,1.65-.39,3.33-.57,4.98-.52-.36-1.76-.59-3.55-.68-5.36,1.82-.1,3.63-.07,5.43.1-.22-1.63-.22-3.3,0-4.98-1.8.55-3.61.97-5.43,1.25Z"/><path class="cls-2" d="m328.12,97.88c-13.42,0-29.29,9.91-38.89,26.38-2.59-5.95-11.83-12.43-22.8-12.43-8.84,0-33.67,11.05-33.67,46.73,0,46.05,46.59,55.51,56.01,69.82.65.99,2.73,1.73,3.53-.62,7.51-22.18,65.79-47.24,65.79-92.37,0-25.31-16.53-37.51-29.95-37.51Zm14.33,37.36c-.14,4.02-.85,7.96-2,11.79-1.55,5.13-3.89,10.1-6.75,14.87-10.35,17.3-27.39,32.19-37.31,44.13-3.44,4.14-6.03,7.93-7.18,11.34-1.11-2.25-3.66-4.72-6.99-7.51-10.29-8.63-28.1-20.41-34.43-38.93-1.46-4.27-2.31-8.89-2.32-13.92,0-.19,0-.39,0-.58.32-28.51,15.16-37.43,23.23-37.43,6.59,0,10.9,2.94,13.52,6.14,1.87,2.28,2.87,4.7,3.19,6.29.76,3.81,5.03,6.86,6.4.61.43-1.97,2.05-5.21,4.57-8.73,5.48-7.64,15.22-16.58,26.39-16.58,14.94,0,20.12,15.41,19.67,28.52Z"/></g></g></g></svg>