<svg xmlns="http://www.w3.org/2000/svg" id="LOGO_LAYER" viewBox="232.76 97.88 125.33 131.44"><defs><style>.cls-1{fill:#fff;}.cls-2{fill:#ffcc01;}.cls-3{fill:red;}.cls-4{fill:#0b0e0e;}</style></defs><g id="LOGO_GROUP"><g id="SELECT_FLAG_HERE"><g id="BLACK_FLAG"><path class="cls-4" d="m322.79,106.72c-16.31,0-29.59,19.06-30.96,25.31-1.37,6.25-5.64,3.2-6.4-.61-.76-3.81-5.42-12.43-16.71-12.43-7.06,0-19.28,6.81-22.46,27.55l96.14-10.1c.03-.4.05-.8.06-1.2.45-13.11-4.73-28.52-19.67-28.52Z"/><path class="cls-3" d="m245.48,156.43c-.13,11.58,4.2,21.04,10.19,28.91l65.93-6.93c10.57-12.44,19.82-26.52,20.79-41.97l-96.14,10.1c-.46,3-.73,6.28-.77,9.88Z"/><path class="cls-2" d="m289.22,217.37c3.35-9.96,18.93-23.13,32.38-38.96l-65.93,6.93c11.77,15.46,29.98,24.81,33.55,32.03Z"/><path class="cls-1" d="m328.12,97.88c-13.42,0-29.29,9.91-38.89,26.38-2.59-5.95-11.83-12.43-22.8-12.43-8.84,0-33.67,11.05-33.67,46.73,0,46.05,46.59,55.51,56.01,69.82.65.99,2.73,1.73,3.53-.62,7.51-22.18,65.79-47.24,65.79-92.37,0-25.31-16.53-37.51-29.95-37.51Zm14.33,37.36c-.01.4-.04.8-.06,1.2-.97,15.45-10.22,29.53-20.79,41.97-13.45,15.83-29.03,29-32.38,38.96-3.57-7.22-21.77-16.56-33.55-32.03-6-7.88-10.32-17.34-10.19-28.91.04-3.6.31-6.89.77-9.88,3.19-20.73,15.4-27.55,22.46-27.55,11.28,0,15.94,8.61,16.71,12.43.76,3.81,5.03,6.86,6.4.61,1.37-6.25,14.65-25.31,30.96-25.31,14.94,0,20.12,15.41,19.67,28.52Z"/></g></g></g></svg>