<svg xmlns="http://www.w3.org/2000/svg" id="LOGO_LAYER" viewBox="232.76 97.88 125.33 131.44"><defs><style>.cls-1{fill:#f9f9f9;}.cls-2{fill:#fff;}.cls-3{fill:#0d5eaf;}</style></defs><g id="LOGO_GROUP"><g id="SELECT_FLAG_HERE"><g id="BLACK_FLAG"><path class="cls-1" d="m278.97,207.2l18.04-1.92c3.35-3.96,7.44-8.23,11.77-12.81l-42.2,4.48c4.29,3.86,8.63,7.24,12.38,10.24Z"/><path class="cls-1" d="m272.67,173.2v-23.11l22.86-2.43v-11.55l-22.86,2.43v-19.15c-1.22-.25-2.54-.39-3.96-.39-2.15,0-4.77.64-7.47,2.1v18.66l-13.9,1.48c-.89,3.43-1.5,7.33-1.74,11.74l15.64-1.66v23.11l-11.52,1.22c1.85,3.92,4.2,7.52,6.84,10.83l63.97-6.8c3.48-4.03,6.84-8.23,9.85-12.6l-34.83,3.7-22.86,2.43Z"/><path class="cls-1" d="m295.54,159.22l41.96-4.46c1.8-3.89,3.19-7.88,4.04-11.99l-45.99,4.89v11.56Z"/><path class="cls-1" d="m295.54,124.55v11.56l46.87-4.98c-.22-3.88-.95-7.79-2.28-11.31l-44.59,4.74Z"/><path class="cls-3" d="m266.59,196.96l42.2-4.48c3.83-4.04,7.85-8.31,11.73-12.8l-63.97,6.8c3.08,3.87,6.54,7.34,10.04,10.49Z"/><path class="cls-3" d="m289.22,217.37c1.22-3.61,4.04-7.65,7.8-12.08l-18.04,1.92c4.9,3.92,8.79,7.22,10.25,10.17Z"/><path class="cls-3" d="m261.24,121.09c-5.37,2.9-11.04,9.09-13.9,20.13l13.9-1.48v-18.66Z"/><path class="cls-3" d="m261.24,151.31l-15.64,1.66c-.06,1.12-.11,2.27-.12,3.46-.08,7.18,1.56,13.54,4.24,19.21l11.52-1.22v-23.11Z"/><path class="cls-3" d="m295.54,136.11v-11.56l44.59-4.74c-2.8-7.4-8.26-13.09-17.34-13.09-16.31,0-29.59,19.06-30.96,25.31-1.37,6.25-5.64,3.2-6.4-.61-.67-3.33-4.31-10.33-12.75-12.04v19.15l22.86-2.43Z"/><path class="cls-3" d="m295.54,147.66l-22.86,2.43v23.11l22.86-2.43,34.83-3.7c2.73-3.97,5.17-8.08,7.12-12.31l-41.96,4.46v-11.56Z"/><path class="cls-3" d="m295.54,147.66l45.99-4.89c.51-2.48.84-4.99.92-7.54.05-1.35.03-2.73-.05-4.11l-46.87,4.98v11.55Z"/><path class="cls-2" d="m328.12,97.88c-13.42,0-29.29,9.91-38.89,26.38-2.59-5.95-11.83-12.43-22.8-12.43-8.84,0-33.67,11.05-33.67,46.73,0,46.05,46.59,55.51,56.01,69.82.65.99,2.73,1.73,3.53-.62,7.51-22.18,65.79-47.24,65.79-92.37,0-25.31-16.53-37.51-29.95-37.51Zm14.33,37.36c-.09,2.55-.41,5.06-.92,7.54-.85,4.1-2.24,8.1-4.04,11.99-1.96,4.24-4.39,8.34-7.12,12.31-3.01,4.37-6.37,8.57-9.85,12.6-3.88,4.49-7.9,8.76-11.73,12.8-4.34,4.57-8.42,8.85-11.77,12.81-3.75,4.43-6.58,8.47-7.8,12.08-1.46-2.94-5.35-6.24-10.25-10.17-3.75-3.01-8.09-6.38-12.38-10.24-3.5-3.15-6.96-6.62-10.04-10.49-2.64-3.31-4.99-6.91-6.84-10.83-2.68-5.68-4.32-12.04-4.24-19.21.01-1.19.06-2.34.12-3.46.25-4.41.86-8.31,1.74-11.74,2.85-11.04,8.52-17.23,13.9-20.13,2.7-1.46,5.33-2.1,7.47-2.1,1.42,0,2.74.14,3.96.39,8.44,1.71,12.08,8.71,12.75,12.04.76,3.81,5.03,6.86,6.4.61,1.37-6.25,14.65-25.31,30.96-25.31,9.08,0,14.55,5.69,17.34,13.09,1.33,3.53,2.06,7.44,2.28,11.31.08,1.38.1,2.76.05,4.11Z"/></g></g></g></svg>