<svg xmlns="http://www.w3.org/2000/svg" id="LOGO_LAYER" viewBox="232.76 97.88 125.32 131.44"><g id="LOGO_GROUP"><g id="SELECT_FLAG_HERE"><g id="ICELAND"><path d="m269.0529505,119.0105618c-.1155396-.0018311-.2211304-.0161743-.3380737-.0161743-7.951416,0-22.4375,8.6565552-23.1984253,36.1049194l23.536499-2.4738159v-33.6149292Z" fill="#02529c"/><path d="m292.0509974,211.8175687c7.2770996-11.1723633,24.4368896-25.5197144,36.7191772-42.4705811l-36.7191772,3.859314v38.6112671Z" fill="#02529c"/><path d="m250.668368,177.5557889c4.5805664,8.6929932,11.5700073,15.7203369,18.3845825,21.5701294v-23.5024414l-18.3845825,1.932312Z" fill="#02529c"/><path d="m322.788119,106.7189358c-15.6669312,0-28.5246582,17.5715332-30.7371216,24.5026245v18.9867554l48.9556885-5.1455078c.8292236-3.2113037,1.3359985-6.4883423,1.4503784-9.8286133.4482422-13.1065063-4.7265625-28.5152588-19.6689453-28.5152588Z" fill="#02529c"/><path d="m274.8024622,119.9688138c-1.6835327-.5723267-3.5913696-.9239502-5.7495117-.958252v33.6149292l-23.536499,2.4738159c-.0122681.4425659-.0313721.8757935-.036438,1.328186-.0166626,1.5049438.0460815,2.9721069.1738281,4.4067993l29.1486206-3.0635986v-37.8018799Z" fill="#f9f9f9"/><path d="m286.3014857,213.5537747c1.315918,1.3436279,2.3226929,2.6095581,2.9191895,3.8156128.5894165-1.7515869,1.5617065-3.604126,2.8303223-5.5518188v-38.6112671l36.7191772-3.859314c1.4674072-2.0252075,2.8621826-4.0887451,4.1651001-6.1873169l-46.6337891,4.9014282v45.4926758Z" fill="#f9f9f9"/><path d="m292.0509974,131.2215604c-.0914307.286438-.1713257.5612793-.2258301.8093872-1.0861816,4.9485474-3.9834595,4.0628052-5.5236816,1.5907593v22.9403687l52.78125-5.5474854c.7550049-1.9580078,1.4048462-3.9415283,1.9239502-5.9517822l-48.9556885,5.1455078v-18.9867554Z" fill="#f9f9f9"/><path d="m248.2072474,172.0649441c.708374,1.9006958,1.5336914,3.730835,2.4611206,5.4908447l18.3845825-1.932312v23.5024414c1.9512329,1.6749878,3.8878784,3.253479,5.7495117,4.7470093v-34.6032104l-26.5952148,2.7952271Z" fill="#f9f9f9"/><path d="m286.3014857,133.6217068c-.4053955-.6506958-.7219849-1.4049072-.8806152-2.1991577-.6063232-3.0363159-3.6968384-9.100708-10.6184082-11.4537354v37.8018799l-29.1486206,3.0635986c.3565674,4.0046997,1.2523804,7.7394409,2.5534058,11.2306519l26.5952148-2.7952271v34.6032104c4.5962524,3.687439,8.7330322,6.8565063,11.4990234,9.6808472v-45.4926758l46.6337891-4.9014282c2.4362183-3.9240723,4.5393677-7.9744873,6.1474609-12.1450806l-52.78125,5.5474854v-22.9403687Z" fill="#dc1e35"/></g></g><g id="CHANGE_GROUP_FILL_COLOUR"><path id="HEART_SHAPE" d="m328.124972,97.8772c-13.4179077,0-29.2871094,9.9101562-38.8916016,26.3788452-2.5927734-5.9476929-11.8261719-12.4286499-22.8036499-12.4286499-8.8447266,0-33.6728516,11.0546875-33.6728516,46.7348633,0,46.0483398,46.5883179,55.5062866,56.0063477,69.8168945.6469727.9852905,2.7318726,1.7285156,3.5268555-.6240845,7.5146484-22.1787109,65.7871094-47.2362671,65.7871094-92.3690796,0-25.3110352-16.5341797-37.5087891-29.9522095-37.5087891Zm14.3320923,37.3569946c-1.2216797,35.6781616-47.1855469,64.1537476-53.2363892,82.1351929-5.3866577-10.8916016-44.1206055-26.6328125-43.7406616-60.9418945.3178711-28.5098267,15.1552734-37.4331055,23.2348633-37.4331055,11.2837524,0,15.9443359,8.6137695,16.7059937,12.4281616.7613525,3.8116455,5.0322266,6.859436,6.4042969.6083984,1.3731079-6.2508545,14.6484985-25.3120117,30.9629517-25.3120117,14.9423828,0,20.1171875,15.4087524,19.6689453,28.5152588Z" fill="#fff"/></g></g></svg>