<svg xmlns="http://www.w3.org/2000/svg" id="LOGO_LAYER" viewBox="232.76 97.88 125.33 131.44"><defs><style>.cls-1{fill:#f9f9f9;}.cls-2{fill:#019245;}.cls-3{fill:#fff;}.cls-4{fill:#ce2b37;}</style></defs><g id="LOGO_GROUP"><g id="SELECT_FLAG_HERE"><g id="BLACK_FLAG"><path class="cls-4" d="m322.79,106.72c-4.19,0-8.18,1.26-11.82,3.24v80.22c14.48-15.36,30.77-33.9,31.49-54.94.45-13.11-4.73-28.52-19.67-28.52Z"/><path class="cls-1" d="m291.83,132.03c-1.37,6.25-5.64,3.2-6.4-.61-.57-2.84-3.3-8.34-9.32-10.96v84.45c6.21,4.96,11.39,8.96,13.12,12.46,2.48-7.37,11.68-16.51,21.74-27.19v-80.22c-10.53,5.72-18.12,17.43-19.14,22.07Z"/><path class="cls-2" d="m268.71,118.99c-8.08,0-22.92,8.92-23.23,37.43-.26,23.29,17.5,38.02,30.62,48.49v-84.45c-2.06-.9-4.51-1.47-7.39-1.47Z"/><path class="cls-3" d="m328.12,97.88c-13.42,0-29.29,9.91-38.89,26.38-2.59-5.95-11.83-12.43-22.8-12.43-8.84,0-33.67,11.05-33.67,46.73,0,46.05,46.59,55.51,56.01,69.82.65.99,2.73,1.73,3.53-.62,7.51-22.18,65.79-47.24,65.79-92.37,0-25.31-16.53-37.51-29.95-37.51Zm14.33,37.36c-.72,21.05-17.01,39.59-31.49,54.94-10.07,10.68-19.26,19.82-21.74,27.19-1.73-3.5-6.91-7.5-13.12-12.46-13.12-10.47-30.88-25.2-30.62-48.49.32-28.51,15.16-37.43,23.23-37.43,2.88,0,5.33.57,7.39,1.47,6.02,2.62,8.75,8.12,9.32,10.96.76,3.81,5.03,6.86,6.4.61,1.02-4.64,8.61-16.35,19.14-22.07,3.64-1.98,7.63-3.24,11.82-3.24,14.94,0,20.12,15.41,19.67,28.52Z"/></g></g></g></svg>