<svg xmlns="http://www.w3.org/2000/svg" id="LOGO_LAYER" viewBox="232.76 97.88 125.33 131.44"><defs><style>.cls-1{fill:#f9f9f9;}.cls-2{fill:#fff;}.cls-3{fill:#9d2136;}</style></defs><g id="LOGO_GROUP"><g id="SELECT_FLAG_HERE"><g id="BLACK_FLAG"><path class="cls-3" d="m289.22,217.37c3.86-11.47,23.97-27.22,38.33-46.38l-76.09,8.03c11.01,19.33,33.72,30.2,37.75,38.35Z"/><path class="cls-3" d="m322.79,106.72c-16.31,0-29.59,19.06-30.96,25.31-1.37,6.25-5.64,3.2-6.4-.61-.76-3.81-5.42-12.43-16.71-12.43-8.07,0-22.9,8.91-23.23,37.38l95.17-10.04c1.03-3.62,1.67-7.32,1.8-11.1.45-13.11-4.73-28.52-19.67-28.52Z"/><path class="cls-1" d="m245.48,156.43c-.1,8.63,2.29,16.09,5.99,22.59l76.09-8.03c5.76-7.69,10.6-15.93,13.1-24.66l-95.17,10.04s0,.04,0,.05Z"/><path class="cls-2" d="m328.12,97.88c-13.42,0-29.29,9.91-38.89,26.38-2.59-5.95-11.83-12.43-22.8-12.43-8.84,0-33.67,11.05-33.67,46.73,0,46.05,46.59,55.51,56.01,69.82.65.99,2.73,1.73,3.53-.62,7.51-22.18,65.79-47.24,65.79-92.37,0-25.31-16.53-37.51-29.95-37.51Zm14.33,37.36c-.13,3.78-.77,7.48-1.8,11.1-2.5,8.73-7.34,16.97-13.1,24.66-14.37,19.16-34.47,34.91-38.33,46.38-4.03-8.15-26.74-19.02-37.75-38.35-3.7-6.5-6.09-13.96-5.99-22.59,0-.02,0-.04,0-.05.34-28.47,15.16-37.38,23.23-37.38,11.28,0,15.94,8.61,16.71,12.43.76,3.81,5.03,6.86,6.4.61,1.37-6.25,14.65-25.31,30.96-25.31,14.94,0,20.12,15.41,19.67,28.52Z"/></g></g></g></svg>