<svg xmlns="http://www.w3.org/2000/svg" id="LOGO_LAYER" viewBox="232.76 97.88 125.33 131.44"><defs><style>.cls-1{fill:#f9f9f9;}.cls-2{fill:#fff;}.cls-3{fill:#cf142b;}</style></defs><g id="LOGO_GROUP"><g id="SELECT_FLAG_HERE"><g id="BLACK_FLAG"><path class="cls-1" d="m285.42,131.42c-.76-3.81-5.42-12.43-16.71-12.43-8.08,0-22.92,8.92-23.23,37.43-.38,34.31,38.35,50.05,43.74,60.94.39-1.17.96-2.39,1.67-3.65v-79.27c-1.8,2.74-4.84.13-5.47-3.03Zm-10.53,10.45l-5.58.59c-.12.84-.8,1.64-1.65,1.9-.03,0-.06.02-.09.03v5.58l-6.59.69v-5.58c-.83-.03-1.56-.63-1.73-1.47,0-.03-.01-.06-.02-.09l-5.58.59v-6.59l5.58-.59c.12-.84.8-1.64,1.65-1.9.03,0,.06-.02.09-.03v-5.58l6.59-.69v5.58c.83.03,1.56.63,1.73,1.47,0,.03.01.06.02.09l5.58-.59v6.59Z"/><path class="cls-3" d="m322.79,106.72c-16.31,0-29.59,19.06-30.96,25.31-.24,1.07-.56,1.85-.93,2.42v79.27c10.18-18.08,50.42-45.13,51.57-78.49.45-13.11-4.73-28.52-19.67-28.52Z"/><path class="cls-3" d="m269.3,135.78c-.17-.84-.9-1.43-1.73-1.47v-5.58l-6.59.69v5.58s-.06.02-.09.03c-.85.26-1.53,1.06-1.65,1.9l-5.58.59v6.59l5.58-.59s0,.06.02.09c.17.84.9,1.43,1.73,1.47v5.58l6.59-.69v-5.58s.06-.02.09-.03c.85-.26,1.53-1.06,1.65-1.9l5.58-.59v-6.59l-5.58.59s0-.06-.02-.09Zm5.23,5.77l-5.57.59s0,.04,0,.07c0,.05,0,.1,0,.15,0,.05-.01.1-.02.16,0,.04-.02.09-.03.13-.01.06-.03.11-.05.16-.01.04-.03.08-.05.12-.02.06-.05.11-.08.16-.02.04-.04.07-.06.11-.03.05-.07.1-.11.15-.03.03-.05.07-.08.1-.04.04-.08.09-.13.13-.03.03-.07.06-.1.09-.04.04-.09.07-.14.1-.04.03-.08.06-.12.08-.05.03-.1.05-.15.08-.03.01-.06.03-.09.05-.02,0-.05.02-.07.02,0,0-.02,0-.03.01,0,0,0,0-.01,0-.02,0-.04.01-.06.02,0,0,0,0,0,0,0,0-.02,0-.02,0-.11.03-.22.05-.33.06v5.57l-5.86.62v-5.57s-.01,0-.02,0c-.03,0-.06.01-.08.02-.01,0-.03,0-.04,0-.16.01-.31,0-.46-.03-.02,0-.03-.01-.05-.01-.31-.09-.59-.27-.79-.53,0-.01-.02-.02-.03-.03-.09-.13-.16-.27-.21-.42,0-.01-.02-.02-.02-.04,0-.02-.01-.05-.02-.07,0,0,0-.02,0-.03,0,0,0,0,0-.01,0-.02,0-.04-.01-.05,0,0,0-.02,0-.03-.02-.11-.03-.22-.02-.33l-5.57.59v-5.86l5.57-.59s0-.04,0-.07c0-.05,0-.1,0-.15,0-.05.01-.1.02-.15,0-.05.02-.09.03-.13.01-.06.03-.11.05-.16.01-.04.03-.08.05-.12.02-.06.05-.11.08-.16.02-.04.04-.07.06-.11.03-.05.07-.1.11-.15.03-.03.05-.07.08-.1.04-.04.08-.09.13-.13.03-.03.07-.06.11-.09.04-.04.09-.07.14-.1.04-.03.08-.06.12-.08.05-.03.1-.05.15-.07.03-.01.06-.03.09-.05.02,0,.05-.02.07-.02,0,0,.02,0,.03-.01,0,0,0,0,.01,0,.02,0,.04-.01.06-.02.01,0,.02,0,.03,0,.11-.03.22-.05.33-.06v-5.57l5.86-.62v5.57s.04,0,.06,0c.05,0,.1-.01.15-.01.05,0,.1,0,.15,0,.05,0,.09,0,.14.01.05,0,.1.02.15.04.04.01.08.02.12.04.05.02.1.04.15.07.04.02.07.03.11.06.05.03.09.06.13.09.03.02.07.05.1.08.04.04.08.07.11.11.03.03.06.06.08.1.03.04.06.08.09.13.02.04.05.08.07.12.02.05.04.09.06.14.01.03.03.06.04.09,0,.02.01.05.02.07,0,0,0,.02,0,.03,0,0,0,0,0,.01,0,.02,0,.04.01.05,0,0,0,.02,0,.03.02.11.03.22.02.33l5.57-.59v5.86Z"/><path class="cls-1" d="m268.28,135.22c-.07-.06-.14-.11-.22-.15-.09-.05-.18-.07-.26-.09-.04.15-.08.34-.09.49.15-.05.41-.16.57-.25Z"/><path class="cls-1" d="m260.05,136.34c-.06.1-.09.19-.12.28.14.03.33.04.48.04-.03-.15-.12-.4-.19-.55-.06.07-.13.15-.18.23Z"/><path class="cls-1" d="m267.85,142.25c-.05.06-.09.13-.14.19.09-.08.18-.14.28-.2h-.14Z"/><path class="cls-1" d="m267.71,136.23s.09.1.14.16h.13c-.1-.05-.19-.1-.28-.16Z"/><path class="cls-1" d="m261.34,143.72v-.14c-.06-.04-.12-.08-.18-.13.07.08.13.17.18.26Z"/><path class="cls-1" d="m260.84,143.16s-.09-.1-.14-.16h-.13c.1.05.19.1.28.16Z"/><path class="cls-1" d="m267.2,142.96v.13c.05-.1.1-.2.17-.29-.05.05-.11.11-.17.16Z"/><path class="cls-1" d="m260.7,137.14c.05-.06.09-.13.15-.19-.09.08-.18.15-.28.21h.14Z"/><path class="cls-1" d="m267.2,135.67v.14c.06.04.12.08.18.13-.07-.08-.13-.17-.18-.26Z"/><path class="cls-1" d="m261.34,136.43v-.13c-.05.1-.1.2-.17.29.05-.05.11-.11.17-.16Z"/><path class="cls-1" d="m260.26,144.16c.07.06.14.11.22.15.09.05.18.07.26.09.04-.15.08-.34.09-.49-.15.05-.41.16-.57.25Z"/><path class="cls-1" d="m268.5,143.04c.06-.1.09-.19.12-.28-.14-.03-.33-.04-.48-.04.03.15.12.4.19.55.06-.07.13-.15.18-.23Z"/><path class="cls-1" d="m259.59,137.19s0,.04,0,.07h0s0-.04,0-.07Z"/><path class="cls-1" d="m261.06,144.39c.08-.04.13-.11.14-.21.02-.12-.02-.26-.1-.4-.06.17-.11.43-.14.62.03,0,.07,0,.09-.01Z"/><path class="cls-1" d="m261.06,136.37c-.18-.18-.38-.38-.56-.52-.03.02-.06.05-.09.08.08.25.2.62.32.83.12-.11.24-.24.33-.39,0,0,0,0,0,0Z"/><path class="cls-1" d="m260.92,135.39s-.02,0-.03.01c.01,0,.03,0,.04-.01,0,0,0,0-.01,0Z"/><path class="cls-1" d="m261.03,135.4v.23s0,.02-.01.03c0,0-.02.01-.03.01-.08,0-.18.02-.28.07.12.12.29.27.45.39.02-.05.03-.11.04-.16l-.18-.13s-.01-.01-.01-.02c0,0,0-.02.01-.03l.2-.22s.02-.01.02-.01c0,0,.02,0,.02,0l.07.06v-.31c-.11,0-.22.03-.33.06,0,0,0,0,0,0,0,0,.01.01.01.02Z"/><path class="cls-1" d="m268.43,142.33c-.12,0-.26.05-.41.14.16.04.42.07.6.07,0-.03,0-.07,0-.09-.03-.07-.1-.12-.19-.12Z"/><path class="cls-1" d="m267.52,143.99v-.23s0-.02.01-.03c0,0,.02-.01.03-.01.08,0,.18-.02.28-.07-.12-.12-.29-.27-.46-.4-.02.05-.03.11-.04.16l.18.13s.01.01.01.02,0,.02-.01.03l-.2.22s-.02.01-.02.01c0,0-.02,0-.02,0l-.07-.06v.31c.11,0,.22-.03.33-.06,0,0,0,0,0,0,0,0-.01-.01-.01-.02Z"/><path class="cls-1" d="m268.96,142.2s0-.04,0-.07h0s0,.04,0,.07Z"/><path class="cls-1" d="m261.32,144.69s.01,0,.02,0h0s-.01,0-.02,0Z"/><path class="cls-1" d="m267.48,135c-.08.04-.13.11-.14.21-.02.12.02.26.1.4.06-.17.11-.43.14-.62-.03,0-.07,0-.09.01Z"/><path class="cls-1" d="m259.64,143.43l.23-.02s.02,0,.03,0c0,0,0,.02,0,.03-.01.08,0,.18.04.27.13-.13.3-.32.44-.5-.05-.01-.11-.02-.15-.02l-.15.19s-.02.01-.02.01c0,0-.02,0-.03,0l-.2-.18s-.01-.01-.01-.02,0-.02.01-.03l.07-.08-.31.03c0,.11,0,.22.02.33,0,0,0,0,0,0,0,0,.02-.01.03-.01Z"/><path class="cls-1" d="m260.61,143.3c-.2.2-.42.43-.58.62.02.03.05.05.07.08.26-.1.64-.26.87-.41-.1-.11-.21-.22-.35-.3,0,0,0,0,0,0Z"/><path class="cls-1" d="m268.93,135.85s0-.02,0-.03c0,.01,0,.03,0,.04,0,0,0,0,0-.01Z"/><path class="cls-1" d="m267.49,143.01c.18.18.38.38.56.52.03-.02.06-.05.09-.08-.08-.25-.2-.62-.31-.83-.12.11-.24.24-.33.39,0,0,0,0,0,0Z"/><path class="cls-1" d="m260.69,144.65c-.31-.09-.59-.27-.79-.53.2.26.48.44.79.53Z"/><path class="cls-1" d="m268.91,135.96l-.23.02s-.02,0-.03,0,0-.02,0-.03c.01-.08,0-.18-.04-.27-.13.13-.3.32-.44.5.05.01.11.02.15.02l.15-.19s.02-.01.02-.01c0,0,.02,0,.03,0l.2.18s.01.01.01.02,0,.02-.01.03l-.07.08.31-.03c0-.11,0-.22-.02-.33,0,0,0,0,0,0,0,0-.02.01-.03.01Z"/><path class="cls-1" d="m259.62,143.54s0,.02,0,.03c0-.01,0-.03,0-.04,0,0,0,0,0,.01Z"/><path class="cls-1" d="m267.63,144s.02,0,.03-.01c-.01,0-.03,0-.04.01,0,0,0,0,.01,0Z"/><path class="cls-1" d="m267.93,136.09c.2-.2.42-.43.58-.62-.02-.03-.05-.05-.07-.08-.26.1-.64.26-.87.41.1.11.21.22.35.3,0,0,0,0,0,0Z"/><path class="cls-1" d="m267.27,134.69s-.04,0-.06,0h0s.04,0,.06,0Z"/><path class="cls-1" d="m260.11,137.06c.12,0,.26-.05.41-.14-.16-.04-.42-.07-.6-.07,0,.03,0,.07,0,.09.03.07.1.12.19.12Z"/><path class="cls-1" d="m267.04,143.6c.02-.12.05-.23.09-.34v-.23c-.08.07-.15.15-.23.21v6.14l-5.26.55v-6.14c-.08-.05-.15-.11-.23-.16v.22c.07.18.11.37.11.58,0,.07,0,.14-.02.2,0,.01-.01.03-.03.03-.02,0-.04,0-.06.01v5.51l5.72-.6v-5.88l-.08-.07s-.01-.02,0-.03Z"/><path class="cls-1" d="m260.08,142.91c.12,0,.23.03.33.06l.23-.02c-.06-.07-.13-.13-.19-.21l-6.14.64v-5.26l6.14-.64c.06-.09.13-.16.19-.25l-.22.02c-.18.09-.37.15-.56.17,0,0-.02,0-.03,0-.07,0-.14,0-.2,0-.01,0-.03-.01-.03-.03,0-.02,0-.04,0-.06l-5.51.58v5.72l5.88-.62.08-.09s.02-.01.03-.01Z"/><path class="cls-1" d="m261.5,135.79c-.02.12-.05.23-.09.34v.23c.08-.07.15-.15.23-.21v-6.14l5.26-.55v6.14c.08.05.15.11.23.16v-.22c-.07-.18-.11-.37-.11-.58,0-.07,0-.14.02-.2,0-.01.01-.03.03-.03.02,0,.04,0,.06-.01v-5.51l-5.72.6v5.88l.08.07s.01.02,0,.03Z"/><path class="cls-1" d="m268.5,136.47s-.02.01-.02.01c0,0,0,0,0,0-.12,0-.23-.03-.33-.06l-.23.02c.06.07.13.13.19.21l6.14-.64v5.26l-6.14.64c-.06.09-.13.16-.19.25l.22-.02c.19-.09.39-.15.59-.17.07,0,.14,0,.2,0,.01,0,.03.01.03.03,0,.02,0,.04,0,.06l5.51-.58v-5.72l-5.88.62-.08.09Z"/><path d="m268.65,136.3l.07-.08s.01-.02.01-.03,0-.02-.01-.02l-.2-.18s-.02,0-.03,0c0,0-.02,0-.02.01l-.15.19s-.1-.01-.15-.02c.14-.18.31-.37.44-.5.03.09.05.19.04.27,0,.01,0,.02,0,.03s.02.01.03,0l.23-.02s.02,0,.03-.01c0,0,0,0,0,0,0,0,0-.02,0-.03,0-.02,0-.04-.01-.05,0-.01,0-.03,0-.04,0-.02-.01-.05-.02-.07,0-.03-.03-.06-.04-.09-.02-.05-.04-.1-.06-.14-.02-.04-.04-.08-.07-.12-.03-.04-.05-.09-.09-.13-.03-.03-.06-.07-.08-.1-.04-.04-.07-.08-.11-.11-.03-.03-.06-.05-.1-.08-.04-.03-.09-.06-.13-.09-.03-.02-.07-.04-.11-.06-.05-.02-.1-.05-.15-.07-.04-.01-.08-.02-.12-.04-.05-.01-.1-.03-.15-.04-.04,0-.09-.01-.14-.01-.05,0-.1,0-.15,0-.05,0-.1,0-.15.01-.02,0-.04,0-.06.01h0v-5.57l-5.86.62v5.88l-.07-.06s-.02,0-.02,0c0,0-.02,0-.02.01l-.2.22s-.01.02-.01.03c0,0,0,.02.01.02l.18.13s-.02.1-.04.16c-.17-.13-.34-.28-.45-.39.1-.04.19-.07.28-.07,0,0,.02,0,.03-.01,0,0,.01-.02.01-.03v-.23s0-.02-.01-.02c0,0,0,0,0,0,0,0-.02,0-.03,0-.02,0-.04.01-.06.02-.01,0-.03,0-.04.01-.02,0-.05.02-.07.02-.03.01-.06.03-.09.05-.05.02-.1.05-.15.07-.04.02-.08.05-.12.08-.05.03-.09.06-.14.1-.04.03-.07.06-.11.09-.04.04-.09.08-.13.13-.03.03-.06.07-.08.1-.04.05-.08.1-.11.15-.02.04-.04.07-.06.11-.03.05-.06.11-.08.16-.02.04-.03.08-.05.12-.02.05-.04.11-.05.16-.01.04-.02.09-.03.13,0,.05-.02.1-.02.15,0,.05,0,.1,0,.15,0,.02,0,.04,0,.07h0s-5.57.59-5.57.59v5.86l5.57-.59.31-.03-.07.08s-.01.02-.01.03,0,.02.01.02l.2.18s.02,0,.03,0c0,0,.02,0,.02-.01l.15-.19s.1.01.15.02c-.14.18-.31.37-.44.5-.03-.09-.05-.19-.04-.27,0-.01,0-.02,0-.03,0,0-.02-.01-.03,0l-.23.02s-.02,0-.03.01c0,0,0,0,0,0,0,0,0,.02,0,.03,0,.02,0,.04.01.05,0,.01,0,.03,0,.04,0,.02.01.05.02.07,0,.01.02.03.02.04.05.15.12.3.21.42,0,.01.02.02.03.03.2.26.48.44.79.53.02,0,.03.01.05.01.15.04.3.04.46.03.01,0,.03,0,.04,0,.03,0,.06-.01.08-.02,0,0,.01,0,.02,0h0v5.57l5.86-.62v-5.88l.07.06s.02,0,.02,0c0,0,.02,0,.02-.01l.2-.22s.01-.02.01-.03,0-.02-.01-.02l-.18-.13s.02-.1.04-.16c.17.13.34.28.46.4-.1.04-.19.07-.28.07,0,0-.02,0-.03.01,0,0-.01.02-.01.03v.23s0,.02.01.02c0,0,0,0,0,0,0,0,.01,0,.02,0,0,0,0,0,0,0,.02,0,.04-.01.06-.02.01,0,.03,0,.04-.01.02,0,.05-.02.07-.02.03-.01.06-.03.09-.05.05-.02.1-.05.15-.08.04-.02.08-.05.12-.08.05-.03.1-.07.14-.1.04-.03.07-.06.1-.09.04-.04.09-.08.13-.13.03-.03.06-.07.08-.1.04-.05.08-.1.11-.15.02-.04.04-.07.06-.11.03-.05.06-.11.08-.16.02-.04.03-.08.05-.12.02-.05.04-.11.05-.16.01-.04.02-.09.03-.13,0-.05.02-.1.02-.16,0-.05,0-.1,0-.15,0-.02,0-.04,0-.07h0s5.57-.59,5.57-.59v-5.86l-5.57.59-.31.03Zm-.55-.14s-.07-.03-.1-.04c.19-.19.39-.4.55-.58.02.03.03.05.04.08-.14.14-.33.35-.48.55Zm-.66-.56c-.07-.14-.12-.28-.1-.4.02-.09.07-.17.14-.21.02-.01.06,0,.09-.01-.02.19-.08.45-.14.62Zm.21-.63s.06-.02.09-.01c-.05.17-.09.4-.1.56,0,.01,0,.02.01.03s.02,0,.03,0c.16-.04.48-.18.66-.29.02.02.04.05.06.07-.27.11-.64.27-.86.41-.01-.02-.03-.04-.05-.06.07-.18.14-.5.17-.71Zm.16,0c.08.02.17.04.26.09.08.04.15.1.22.15-.16.09-.42.2-.57.25.02-.16.05-.35.09-.49Zm.63.41s.05.05.07.08c-.16.19-.38.42-.58.62,0,0,0,0,0,0-.14-.08-.25-.18-.35-.3.23-.14.61-.3.87-.41Zm.4.39s.02.08.03.12l-.15.02c.02-.31-.24-.7-.62-.91-.24-.13-.48-.16-.65-.07-.1.05-.16.15-.18.26-.05.31.22.74.61.95.15.08.31.12.45.12.01,0,.02,0,.03-.02l.14-.18.15.13-.18.2c-.77-.04-1.38-.69-1.37-1.46,0-.06,0-.11.01-.17.74-.19,1.51.25,1.73.99Zm-.06,3.44c0,2.49-2.02,4.72-4.51,4.98-2.49.26-4.51-1.55-4.51-4.04s2.02-4.72,4.51-4.98c2.49-.26,4.51,1.55,4.51,4.04Zm-.6-2.43l5.91-.62v4.99l-5.91.62c.46-.77.74-1.65.74-2.57s-.28-1.74-.74-2.42Zm-.98,6.17c.06-.05.12-.1.17-.16-.07.09-.12.19-.17.29v-.13Zm.65-.71h.14c-.1.05-.19.11-.28.19.05-.06.1-.13.14-.19Zm-6.07,1.62c.72.39,1.58.57,2.49.48s1.77-.46,2.49-1v5.91l-4.99.52v-5.91Zm-.43-.15c-.05-.09-.11-.18-.18-.26.06.05.12.08.18.13v.14Zm-.51-.56c-.09-.06-.18-.1-.28-.14h.13s.09.09.14.14Zm-.47-.56l-5.91.62v-4.99l5.91-.62c-.46.77-.74,1.65-.74,2.57s.28,1.74.74,2.42Zm.98-6.17c-.06.05-.12.1-.17.16.07-.09.12-.19.17-.29v.13Zm-.65.71h-.14c.1-.05.19-.11.28-.19-.05.06-.1.13-.15.19Zm6.07-1.62c-.72-.39-1.58-.57-2.49-.48s-1.77.46-2.49,1v-5.91l4.99-.52v5.91Zm.43.15c.05.09.11.18.18.26-.06-.05-.12-.08-.18-.13v-.14Zm.51.56c.09.06.18.1.28.14h-.13s-.09-.09-.14-.14Zm-6.3-6.42l5.72-.6v5.51s-.04,0-.06.01c-.01,0-.03.02-.03.03-.01.07-.02.14-.02.2,0,.2.03.4.11.58v.22c-.08-.05-.15-.12-.23-.16v-6.14l-5.26.55v6.14c-.08.07-.15.14-.23.21v-.23c.04-.11.07-.23.09-.34,0-.01,0-.02,0-.03l-.08-.07v-5.88Zm-.27,6.39s-.03.07-.05.11c-.17-.17-.36-.35-.53-.49.03-.02.06-.03.09-.05.12.13.31.29.49.43Zm-1.23.58s-.01-.06,0-.09c.16.03.39.05.55.04.01,0,.02,0,.03-.01,0,0,.01-.02,0-.03-.03-.16-.13-.46-.22-.63.02-.02.05-.04.07-.07.08.26.2.62.32.83-.02.02-.04.04-.06.05-.17-.06-.48-.09-.69-.09Zm.61.14c-.14.09-.29.15-.41.14-.09,0-.16-.05-.19-.12-.01-.02,0-.06,0-.09.18,0,.44.03.6.07Zm-.59-.3c.03-.09.06-.18.12-.28.05-.08.11-.16.18-.23.07.15.16.4.19.55-.15,0-.34-.02-.48-.04Zm.47-.68s.06-.06.09-.08c.18.14.38.34.56.52,0,0,0,0,0,0-.09.15-.21.28-.33.39-.12-.22-.24-.58-.32-.83Zm.43-.45s.08-.03.12-.04v.15c-.3,0-.73.32-.97.72-.16.26-.21.5-.13.66.04.1.13.15.25.16.31.02.76-.3,1.01-.72.1-.17.16-.33.17-.46,0-.01,0-.02-.01-.03l-.16-.12.15-.16.18.17c-.12.77-.82,1.45-1.57,1.53,0,0-.02,0-.03,0-.06,0-.11,0-.17,0-.11-.73.41-1.55,1.17-1.85Zm-6.75,8.14v-5.72l5.51-.58s0,.04,0,.06c0,.01.01.02.03.03.07,0,.13,0,.2,0,0,0,.02,0,.03,0,.19-.02.38-.08.56-.17l.22-.02c-.06.08-.13.16-.19.25l-6.14.64v5.26l6.14-.64c.06.08.13.14.19.21l-.23.02c-.11-.03-.22-.05-.33-.06-.01,0-.02,0-.03.01l-.08.09-5.88.62Zm6.36-.4s.07.03.1.04c-.19.19-.39.4-.55.58-.02-.03-.03-.05-.04-.08.14-.14.33-.35.48-.55Zm.66.56c.07.14.12.28.1.4-.02.09-.06.17-.14.21-.02.01-.06,0-.09.01.02-.19.08-.45.14-.62Zm-.21.63s-.06.02-.09.01c.05-.17.09-.4.1-.56,0-.01,0-.02-.01-.03,0,0-.02,0-.03,0-.16.04-.48.18-.66.29-.02-.02-.04-.05-.06-.07.27-.11.64-.27.86-.41.01.02.03.04.05.06-.07.18-.14.5-.17.71Zm-.16,0c-.08-.02-.17-.04-.26-.09-.08-.04-.15-.1-.22-.15.16-.09.42-.2.57-.25-.02.16-.05.35-.09.49Zm-.63-.41s-.05-.05-.07-.08c.16-.19.38-.42.58-.62,0,0,0,0,0,0,.14.08.25.18.35.3-.23.14-.61.3-.87.41Zm-.4-.39s-.02-.08-.03-.12l.15-.02c-.02.31.24.7.62.91.24.13.48.16.65.07.1-.05.16-.15.18-.26.05-.31-.22-.74-.61-.95-.15-.08-.31-.12-.45-.12-.01,0-.02,0-.03.02l-.14.18-.15-.13.18-.2c.77.04,1.38.69,1.37,1.46,0,.06,0,.11-.01.17-.74.19-1.51-.25-1.73-.99Zm7.43,5.97l-5.72.6v-5.51s.04,0,.06-.01c.01,0,.03-.02.03-.03.01-.07.02-.14.02-.2,0-.2-.03-.4-.11-.58v-.22c.08.05.15.12.23.16v6.14l5.26-.55v-6.14c.08-.07.15-.14.23-.21v.23c-.04.11-.07.23-.09.34,0,.01,0,.02,0,.03l.08.07v5.88Zm.27-6.39s.03-.07.05-.11c.17.17.36.35.53.49-.03.02-.06.03-.09.05-.12-.13-.31-.29-.49-.43Zm1.23-.58s.01.06,0,.09c-.16-.03-.39-.05-.55-.04-.01,0-.02,0-.03.01,0,0-.01.02,0,.03.03.16.13.46.22.63-.02.02-.05.04-.07.07-.08-.26-.2-.62-.32-.83.02-.02.04-.04.06-.05.17.06.48.09.69.09Zm-.61-.14c.14-.09.29-.15.41-.14.09,0,.16.05.19.12.01.02,0,.06,0,.09-.18,0-.44-.03-.6-.07Zm.59.3c-.03.09-.06.18-.12.28-.05.08-.11.16-.18.23-.07-.15-.16-.4-.19-.55.15,0,.34.02.48.04Zm-.47.68s-.06.06-.09.08c-.18-.14-.38-.34-.56-.52,0,0,0,0,0,0,.09-.15.21-.28.33-.39.12.22.24.58.31.83Zm-.43.45s-.08.03-.12.04v-.15c.3,0,.73-.32.97-.72.16-.26.21-.5.13-.66-.04-.1-.13-.15-.25-.16-.31-.02-.76.3-1.01.72-.1.17-.16.33-.17.46,0,.01,0,.02.01.03l.16.12-.15.16-.18-.17c.12-.78.84-1.47,1.6-1.53.06,0,.11,0,.17,0,.11.73-.41,1.55-1.17,1.85Zm6.75-2.41l-5.51.58s0-.04,0-.06c0-.01-.01-.02-.03-.03-.07,0-.13,0-.2,0-.2.02-.4.08-.59.17l-.22.02c.06-.08.13-.16.19-.25l6.14-.64v-5.26l-6.14.64c-.06-.08-.13-.14-.19-.21l.23-.02c.11.03.22.05.33.06,0,0,0,0,0,0,0,0,.02,0,.02-.01l.08-.09,5.88-.62v5.72Z"/><path class="cls-1" d="m266.77,143.34c-.72.54-1.58.91-2.49,1s-1.77-.09-2.49-.48v5.91l4.99-.52v-5.91Z"/><path class="cls-1" d="m261.78,136.05c.72-.54,1.58-.91,2.49-1s1.77.09,2.49.48v-5.91l-4.99.52v5.91Z"/><path class="cls-1" d="m260.37,137.61l-5.91.62v4.99l5.91-.62c-.46-.67-.74-1.5-.74-2.42s.28-1.8.74-2.57Z"/><path class="cls-1" d="m268.18,141.78l5.91-.62v-4.99l-5.91.62c.46.67.74,1.5.74,2.42s-.28,1.8-.74,2.57Z"/><path class="cls-1" d="m264.27,135.19c-2.49.26-4.51,2.5-4.51,4.98s2.02,4.3,4.51,4.04c2.49-.26,4.51-2.5,4.51-4.98s-2.02-4.3-4.51-4.04Zm1.99,1.04l.57-.38-.09.63s-.04.25-.02.42l-.22-.17c.11-.05.13-.24.13-.24l-.3-.18s-.18.09-.2.19l-.22-.09c.15-.03.35-.17.35-.17Zm-1.18-.94l.22.03c-.09.14-.17.46-.21.73.19.04.35.06.44,0l-.06.21c-.18-.05-.4-.09-.6-.11.11-.28.22-.66.21-.85Zm-1.3.09c-.04.16,0,.47.06.73.2-.04.36-.08.42-.17l.02.21c-.2.02-.42.07-.62.12,0-.29-.03-.68-.11-.83l.22-.06Zm-1.53,1.29l-.03-.65.51.3s.2.12.36.17l-.28.14c.02-.12-.14-.2-.14-.2l-.33.21s-.02.19.06.25l-.2.16c.05-.15.04-.38.04-.38Zm-1.4.6c.11-.14.32-.22.33-.31l.13.13c-.19.04-.44.24-.43.4,0,.08.03.19.14.27.11.07.22.08.31.06.09-.02.23-.16.23-.23,0-.07-.15-.23-.25-.22l.16-.19c.04.1.21.22.27.24-.07.17-.16.36-.34.46-.18.11-.37.12-.55-.02-.16-.14-.1-.44,0-.57Zm-.93,2.18c.02-.06.14-.16.25-.17.11,0,.2.07.22.19.17-.14.37-.29.46-.44,0-.02.04-.03.04,0,0,.13-.2.33-.23.36l-.26.23v.08s.24.03.35-.01l-.02.19c-.17-.04-.66-.03-.88,0,0,0,.04-.36.06-.45Zm0,1.63c-.05-.25.09-.49.36-.57.27-.08.48.05.53.32s-.1.52-.35.59c-.25.07-.49-.08-.53-.34Zm.71,1.56c-.1-.17-.24-.39-.31-.44.05-.04.11-.09.14-.1,0,.11.17.33.17.33l.25-.19c-.07-.1-.13-.18-.19-.21.06-.05.13-.1.15-.1,0,.06.03.15.13.25,0,0,.24-.15.31-.26l.1.15c-.11.03-.61.4-.76.56Zm1.53.84c-.1.01-.18-.06-.18-.16s.08-.19.18-.2.18.06.18.16-.08.19-.18.2Zm2.55.12c.04.07-.01.13-.03.17-.02.05,0,.12-.08.16-.03.02-.07.01-.08.01.03.02.04.07.03.09-.02.01-.07,0-.08-.04,0,.01,0,.05-.03.08-.06.06-.12.04-.17.05-.05,0-.11.04-.17-.01-.02-.02-.03-.06-.03-.07-.01.04-.06.07-.08.06-.02-.01,0-.07.03-.09-.01,0-.05.02-.08,0-.07-.03-.06-.1-.08-.15-.02-.05-.06-.09-.03-.17.01-.03.05-.05.06-.06-.04,0-.08-.03-.07-.05,0-.02.06-.04.1-.01,0,0-.03-.04-.02-.07.01-.08.08-.1.12-.14.04-.03.08-.1.16-.09.03,0,.06.03.07.04-.01-.04.01-.09.03-.09.02,0,.05.05.03.09,0-.01.03-.04.07-.05.08-.02.11.04.16.06.04.03.11.03.12.11,0,.03-.01.07-.02.08.03-.03.09-.03.1,0,0,.02-.03.06-.07.07.01,0,.05.01.06.04Zm1.67-.56c-.1.01-.18-.06-.18-.16s.08-.19.18-.2.18.06.18.16-.08.19-.18.2Zm-2.11.12c-1.91.2-3.46-1.19-3.46-3.09s1.55-3.62,3.46-3.82,3.46,1.19,3.46,3.09-1.55,3.62-3.46,3.82Zm3.95-1.95c-.07-.03-.24.01-.47.12.06.27.15.3.22.32l-.17.31c.01-.26-.14-.51-.18-.6-.12-.06-.26-.13-.36-.1l.13-.24c.04.11.25.15.32.18.07.02.48-.14.66-.26l-.15.27Zm.39-1.21c-.02.06-.14.16-.25.17-.11,0-.2-.07-.22-.19-.17.14-.37.28-.46.43,0,.02-.04.03-.04,0,0-.13.2-.33.24-.36l.26-.23v-.08s-.24-.03-.35.01l.02-.19c.17.05.65.04.88,0,0,0-.04.36-.07.44Zm-.1-1.89c.06.16.14.62.13.74l-.16.04v-.04c.05-.07,0-.28,0-.28-.24.05-.65.16-.71.25l-.04-.22c.08.02.5-.07.72-.16-.02-.13-.02-.21-.08-.23v-.05s.15-.04.15-.04Zm-.67-1.37l-.19.88c.17-.09.44-.25.51-.34l.1.18c-.19,0-.54.2-.8.39l-.03-.04.16-.86s-.44.24-.49.37l-.09-.16c.15-.03.59-.33.79-.48l.03.05Z"/><path class="cls-1" d="m260.75,140.84c-.03-.16-.21-.25-.42-.19-.22.06-.33.26-.31.4.02.14.2.26.41.19s.35-.24.32-.4Z"/><polygon class="cls-1" points="262.62 136.37 262.32 136.21 262.33 136.56 262.62 136.37"/><path class="cls-1" d="m264.07,143.53s.04,0,.05,0c-.02-.01-.03-.04-.02-.05.01,0,.04,0,.05.03,0,0,0-.03.02-.05.03-.03.06-.03.08-.03,0-.03-.01-.06-.05-.08-.07-.04-.11.03-.15.06-.04.03-.11.06-.09.14.01.04.04.05.06.06,0-.03,0-.06.04-.08Z"/><path class="cls-1" d="m264.06,143.79s-.05.02-.06,0c0-.01.02-.04.04-.04,0,0-.03,0-.04-.02-.02-.03,0-.06,0-.09-.03,0-.06,0-.09.03-.06.06-.02.12,0,.16.01.04.01.12.1.11.04,0,.06-.03.08-.05-.02-.01-.05-.02-.06-.06,0-.02,0-.04.01-.05Z"/><path class="cls-1" d="m264.46,143.6s0-.06-.05-.06c-.04,0-.05.04-.07.04-.01,0,.02-.04,0-.07-.02-.04-.06-.02-.08-.02-.02,0-.06,0-.08.04-.01.04.02.06,0,.07s-.03-.03-.07-.02c-.04,0-.04.05-.05.07,0,.02-.03.06,0,.08.03.02.07,0,.07,0,0,.02-.04.02-.05.06-.01.04.03.05.05.07s.05.04.08.01c.03-.02.02-.07.04-.07s0,.04.04.06c.04.02.06-.02.08-.03s.06-.03.05-.08c-.01-.03-.05-.03-.05-.05,0-.01.04,0,.07-.02.03-.03.01-.06,0-.08Zm-.19.15s-.07-.02-.07-.06.03-.07.07-.08c.04,0,.07.02.07.06s-.03.07-.07.08Z"/><path class="cls-1" d="m264.39,143.47s.04-.04.05-.04c.01,0,0,.04-.02.06,0,0,.03-.01.05,0,.03.01.04.04.04.07.02-.02.05-.04.06-.08.02-.08-.05-.1-.09-.12-.04-.02-.08-.08-.15-.03-.03.03-.04.06-.05.09.03,0,.06-.01.08,0,.01.01.02.04.02.04Z"/><path class="cls-1" d="m264.33,143.93s-.04-.02-.04-.02c0,.02,0,.06-.02.06s-.03-.03-.02-.05c0,0-.02.03-.04.03-.04.01-.06,0-.08-.03-.01.03-.02.06,0,.09.03.07.1.04.15.04.04,0,.12.01.15-.07.01-.04,0-.07,0-.09-.02.02-.04.04-.08.04Z"/><polygon class="cls-1" points="266.69 136.04 266.38 136.24 266.65 136.4 266.69 136.04"/><path class="cls-1" d="m264.53,143.59s.03.05,0,.09c0,.02-.03.03-.04.03.02,0,.05.02.04.03,0,.01-.04.02-.06,0,0,0,.02.03.01.05,0,.04-.04.05-.06.07.02.02.05.04.09.03.08-.01.08-.09.1-.13.01-.04.06-.11,0-.16-.03-.02-.06-.02-.09-.01Z"/><path class="cls-1" d="m268.39,140.01c.11,0,.17-.08.2-.29-.06-.02-.27-.01-.37,0-.03.24.07.28.17.28Z"/><path class="cls-1" d="m260.15,139.43c-.11,0-.17.08-.19.29.06.02.27,0,.37,0,.03-.24-.08-.28-.18-.28Z"/><path class="cls-1" d="m265.41,137.69s-.04-.01-.06-.01c-.08.02-.12.03-.22.05-.01.05-.02.14-.01.2.01.01.03.03.04.04,0,0,.02,0,.02-.02.08-.07.16-.16.22-.26Z"/><path class="cls-1" d="m262.39,137.64c.05.04.1.08.14.06.05-.02.14-.11.21-.19l-.46.07s.07.04.11.07Z"/><path class="cls-1" d="m264.12,137.57h0s0,.04,0,.04c0,.06.02.12.02.19,0,.04,0,.16-.01.24.02.02.04.04.05.05,0,0,.01-.02.02-.03,0,0,0,0,0,0,0,0,0-.01,0-.02,0,0-.01-.02-.01-.03,0-.01,0-.03,0-.04,0,0-.01-.02-.01-.04,0-.02,0-.03.01-.04,0,0-.01-.02,0-.04,0-.02,0-.03.01-.04,0,0,0-.02,0-.04,0-.01,0-.03.02-.04,0,0,0-.02,0-.04,0-.01,0-.03.02-.04,0,0,0-.02,0-.04,0-.01.01-.03.02-.04,0,0,0-.02,0-.04,0,0,0-.02.01-.02-.02-.01-.04-.03-.07-.04,0,0-.01,0-.02,0,0,0-.01,0-.02.02-.03.02-.04.04-.03.06Z"/><path class="cls-1" d="m266.71,139.86s0,0-.01-.01c0,0,0,0,0,0,0,0,0,0,0,0Z"/><path class="cls-1" d="m261.99,137.96s.08.04.09.03c.01-.01.01-.1,0-.16,0,0,0,0,0-.01l-.2.09s.07.03.1.05Z"/><path class="cls-1" d="m264.23,140.31c.05-.02.12-.04.17-.05,0-.04,0-.09,0-.14-.08.02-.15.04-.2.05.02.05.04.1.04.15Z"/><path class="cls-1" d="m264.13,138.17s0-.02,0-.03c0-.01.01-.01.02-.02,0,0-.02-.02-.03-.03,0,0,0,.01,0,.02,0,.02-.01.05-.02.07,0,0,.02,0,.03,0Z"/><path class="cls-1" d="m265.13,140.26s-.06,0-.08-.01c-.02-.02-.02-.05-.02-.09,0-.06-.02-.17-.06-.22-.05.02-.1.03-.15.05-.1.03-.26.08-.4.11,0,.06,0,.1,0,.15.02,0,.04,0,.04,0,.08-.01.37.02.63.06.02-.02.04-.03.05-.04,0,0-.02,0-.03,0Z"/><path class="cls-1" d="m264.22,141.82c-.18.02-.38-.03-.45-.09-.08-.02-.13,0-.17.03.04.03.1.08.16.12l.07.05s0,0,0,0c.03.06.07.1.12.14.01.01.03.02.04.03,0-.03.01-.06.04-.08,0-.06.07-.13.18-.2Z"/><path class="cls-1" d="m264.57,137.12s0,0,0,0c0,0,0,0,0,0l.1.09s.02-.03.04-.04l-.08-.08s-.03.03-.05.03Z"/><path class="cls-1" d="m264.55,137.23v.07s.02.02.02.02c.01-.01.03-.03.04-.04l-.06-.04Z"/><path class="cls-1" d="m264.56,137.33h-.02s0,.03,0,.03c0-.01.02-.02.03-.03Z"/><path class="cls-1" d="m264.38,138.58v.06s0,0,0,0c0-.02,0-.04,0-.06h0Z"/><path class="cls-1" d="m263.5,142.05s0-.02-.02-.03c0,0-.01,0-.01,0-.02.05-.02.12-.05.15,0,0-.02,0-.03.01.03,0,.05,0,.08-.01.01-.03.02-.06.03-.12Z"/><path class="cls-1" d="m264.56,137.14s0,0,0,0v.07s.06.05.06.05c.01-.01.02-.03.04-.04l-.1-.08Z"/><path class="cls-1" d="m262.45,139.1l.35.3c.15-.09.37-.19.59-.27,0-.01,0-.03,0-.04,0-.06.01-.14-.01-.24-.02-.07-.04-.13-.06-.2-.03-.08-.06-.16-.08-.27,0-.04-.01-.09-.02-.14-.28.15-.52.45-.72.74,0,0,.02,0,.02.02,0,.02,0,.03-.01.05l-.05.06Z"/><path class="cls-1" d="m264.38,138.54v.03s0,0,0,0c0,0,0,0,0,0,0,0,0-.02,0-.03Z"/><path class="cls-1" d="m264.04,138.46c-.02.06,0,.15.02.21,0,.03.01.06.02.08,0,.04.01.06.03.07l.21-.1s.01-.01.02-.02c0,0,0,0,0,0,0-.01,0-.03,0-.04,0,0-.02-.01-.02-.03,0-.01,0-.03,0-.04,0,0-.02-.01-.02-.03,0-.01,0-.03,0-.04,0,0-.02-.01-.02-.03,0,0,0-.02,0-.02-.04,0-.08-.03-.12-.08-.03,0-.05,0-.07,0-.01,0-.02-.01-.02-.02,0,.03-.01.06-.02.08Z"/><path class="cls-1" d="m266.8,139.92s0,0-.01,0c0,0,.02.01.02.02.03.01.06.02.08.06.01.02.01.04.02.06,0,.03.01.05.03.08,0-.09-.01-.16-.03-.22-.02-.02-.05-.02-.09,0,0,0-.02,0-.02,0Z"/><path class="cls-1" d="m266.27,139.57s-.04,0-.06,0c-.06-.01-.16-.02-.24.02-.07.03-.31.14-.55.2-.03.01-.07.03-.12.05.02.05.04.1.08.14.03.03.08.07.12.11.04-.02.08-.03.11-.05.06-.04.12-.11.18-.19.04-.05.07-.09.11-.14,0,0,0,0,0,0,.05-.04.09-.08.21-.08.11,0,.11.02.11.03,0,.02-.01.04-.13.07-.09.02-.1.06-.13.12,0,.01-.01.03-.02.04-.03.07,0,.14.02.2h0s0,.02,0,.02c-.02.05-.06.14-.07.22,0,.03,0,.05.04.09.13-.07.26,0,.35.06.03.02.07.04.09.04.02-.02-.03-.07-.11-.14-.03-.03-.06-.06-.1-.09,0,0,0,0,0,0-.03-.05-.03-.06-.03-.08h0c0-.05,0-.13.04-.15.04-.03.17.02.2.06.02.03.05.05.06.05,0,0,.02,0,.02,0,0,0,0,0,0,0-.01-.01-.04-.03-.05-.07,0-.01-.01-.03-.02-.04-.01-.02-.03-.05-.03-.08,0,0,0-.01,0-.02.03-.03.14-.14.24-.19,0,0,0,0,0,0-.07-.06-.16-.12-.21-.15-.05-.03-.07-.02-.11-.02Z"/><path class="cls-1" d="m266.56,141.84s-.08-.01-.11-.04c-.02-.02-.03-.04-.04-.06-.03,0-.05,0-.06,0-.03-.01-.04-.03-.05-.06-.06.05-.15.11-.19.13-.03.01-.05.03-.08.02,0,0-.02-.01-.02-.02-.05.04-.13.08-.14.08-.05.02-.1.04-.16.06-.02,0-.04.01-.06.02.29-.02.58-.06.87-.07.02-.02.03-.03.05-.05,0,0-.01,0-.02,0,0,0,0,0,0,0Z"/><path class="cls-1" d="m264.96,141.08s-.05,0-.06-.01c0,0,0,0,0,0,0,0,0,0,0,0,0,0,0,0-.01,0,0,0,0,0,0,0,0,0,0,0,0,0,0,0,0,0,0,0,0,0,0,0,0,0,0-.02,0-.03.01-.05.02-.04.03-.06.01-.09-.02-.03-.09-.02-.15-.02-.04,0-.07,0-.09,0,0,0,0,0,0,0,0,0,0,0,0,0,0,0,0,0,0,0,0,0,0,0,0,0,0,0,0,0,0,0,0,0,0,0,0,0,0,0,0,0,0,0h0c.01-.08.02-.12-.02-.18-.02-.04-.11-.03-.19-.03-.04,0-.08,0-.11,0,0,0,0,0-.01-.01,0,0,0,0,0,0,0,0,0,0,0,0s0,0,0,0c0,0,0-.01,0-.02.07-.06.09-.13.06-.2-.02-.03-.06-.02-.11-.02-.04,0-.08,0-.11-.01-.01-.01-.02-.03-.02-.05,0-.02.02-.03.05-.04,0-.04-.02-.1-.04-.16,0,0-.03,0-.03,0-.04.21-.24.51-.32.57-.05.07-.06.13-.02.16.02.02.15.01.39,0,.02,0,.04,0,.05,0,.08,0,.25-.02.28-.02.04,0,.08.03.13.06.03.02.06.03.09.05.06.02.08.06.11.1l.02.03s.01.02.02.03c.06-.02.11-.03.17-.05-.02,0-.05,0-.09,0Z"/><path class="cls-1" d="m262.56,142.29l-.56-.11s-.05-.03-.06-.06c0-.03,0-.07.03-.09.02-.02.05-.03.09-.03l.78.16c.05-.1.15-.18.33-.2,0-.06,0-.13.03-.19-.07-.1-.18-.22-.22-.25-.02-.01-.05-.04-.08-.07-.07-.06-.19-.17-.21-.17-.02,0-.04-.02-.04-.05,0-.04,0-.09.03-.12.04-.04.16-.24.2-.38.02-.06,0-.07,0-.08,0,0,0,0-.01-.01-.21-.14-.4-.32-.51-.51-.08.03-.29.04-.4,0-.04-.01-.17-.05-.24.06-.03.06-.03.15.02.19.09.06.21.16.32.29.12.14,0,.26-.11.38,0,.02,0,.03,0,.04,0,.01,0,.03.01.07.04.05.04.15.03.21,0,.04-.03.07-.05.09,0,0-.02.02-.03.02-.05.04-.11.08-.16.15-.04.05-.07.05-.09.05-.06-.02-.04-.14-.03-.19.01-.07-.04-.13-.1-.18h0c-.07-.08-.04-.29,0-.36.03-.05.07-.15,0-.22-.07-.06-.26-.23-.23-.49.01-.14.09-.26.2-.34.11-.07.24-.1.34-.06.25.09.41.06.52.03.06-.1.15-.22.28-.33l-.3-.28-.05.06s-.05.02-.08,0c-.01-.01,0-.02,0-.04-.1,0-.34,0-.39,0l-.12.06s0,0,0,0c-.12,0-.49-.12-.55-.22,0,0,0,0,0-.01-.09.31-.15.62-.15.95,0,.96.41,1.77,1.07,2.31.18-.03.36-.04.54-.07Z"/><path class="cls-1" d="m264.38,138.65h-.01s0,.02,0,.02c0,0,.01-.01.01-.02Z"/><path class="cls-1" d="m265.09,142.07c-.06.02-.13.08-.13.11,0,0,.02.02.1.02.01,0,.03,0,.03,0,.01,0,.02.01.02.02,0,.01,0,.02-.02.03-.06.03-.26.09-.36.06-.06.02-.21.02-.42,0-.08,0-.16-.01-.19,0-.04,0-.08-.01-.11-.04-.02-.02-.02-.06-.03-.1-.23.03-.46.06-.7.09l1.61.33s.07.06.07.07c0,0,0,.01,0,.02,0,0,0,0-.01.01-.01,0-.06.03-.09.04,0,0,0,0-.01,0l-1.37-.27s.03.07.03.11c0,.1-.07.17-.09.18-.04.04-.12.04-.2.05-.02,0-.04,0-.05,0-.04,0-.05.01-.07.03,0,0-.01.01-.02.02-.04.02-.07.03-.09.04.39.12.82.17,1.27.12.83-.09,1.59-.49,2.17-1.06-.45.03-.9.07-1.35.11,0,0,0,0,0,0Z"/><path class="cls-1" d="m265.86,140.31c.01-.07.05-.16.07-.22h0c-.02-.06-.06-.15-.02-.23,0-.02.01-.03.02-.04.03-.07.05-.12.16-.14.06-.01.09-.03.1-.03-.01,0-.03,0-.08,0-.11,0-.14.03-.19.08-.04.04-.08.09-.11.14-.06.08-.12.16-.19.2-.03.02-.06.03-.09.04.04.02.07.05.09.05.06,0,.17.02.2.02.03,0,.04.03.04.07,0,.04-.02.09-.07.1-.01,0-.02,0-.04,0-.04,0-.11,0-.19,0-.03,0-.06-.02-.11-.05-.02-.01-.04-.02-.05-.03-.02,0-.11-.02-.18-.02-.02.02-.05.03-.07.05.02.01.05.02.1.04.15.05.37.13.38.26h0s0,.04-.01.06c-.02.07-.04.17.04.23.02.01.04.03.06.04.02,0,.05,0,.07,0-.03-.08-.04-.19-.02-.29.02-.1.07-.18.14-.23-.03-.04-.05-.06-.05-.1Z"/><path class="cls-1" d="m263.13,141.03c-.06.08-.06.16,0,.26.04.03.19.16.3.27.12-.05.24-.07.36-.07.03,0,.06,0,.09,0,.09-.06.32-.19.55-.23.01,0,.04,0,.06-.01,0-.03,0-.07-.03-.08,0,0-.02-.02-.03-.02-.05.04-.13.1-.21.08-.15,0-.27.02-.39.03-.13.01-.24.02-.39.03-.04,0-.08-.02-.11-.06-.04-.05-.05-.12-.03-.19.02-.08.02-.14,0-.2,0,0-.01.01-.02.02-.05.05-.11.12-.15.18Z"/><path class="cls-1" d="m262.94,142.83c.02-.06.04-.16.13-.19.06-.01.13-.05.13-.07,0,0-.06,0-.1-.01-.06,0-.12,0-.19-.03-.11-.03-.14-.1-.13-.21h0c-.22.03-.45.05-.67.08.25.19.53.35.84.46,0,0,0,0,0-.01,0,0,0-.01,0-.02Z"/><path class="cls-1" d="m261.34,139.06c.06.02.14.05.16.03.02-.02,0-.21-.01-.34,0-.02,0-.03,0-.05l-.33.34s.11,0,.19.03Z"/><path class="cls-1" d="m261.5,138.36s0,0,0,0c0,0,0,0,0-.01l.27-.15c-.02-.12-.04-.23,0-.27,0,0,0,0,0,0,0,0,0,0,0,0l.29-.13c0-.09,0-.18.04-.22,0,0,0,0,0,0,.01,0,.02,0,.03,0,0,0,0-.01,0-.01l.61-.09s0,0,0,0c.08-.09.14-.15.18-.14.16.01.46.01.62-.02,0,0,0,0,.01,0,0,0,0,0,0,0,.02,0,.02-.01.04-.01.03,0,.06.02.08.03.01,0,.03.01.04.01.03,0,.08,0,.12,0,0,0,0-.04,0-.06h0s-.02-.01-.02-.01c0,0,0,0,0,0,0,0,0,0-.01,0-.04,0-.08-.02-.11-.03-.07-.02-.13-.04-.2,0-.07.03-.23.04-.28.02-.03-.02-.13-.01-.16-.01h-.02s-.08-.05-.09-.1c0-.03,0-.06.04-.07.05-.02.22-.04.25-.04.03,0,.05,0,.07-.02.02-.01.04-.02.07-.03l.17-.02s.05,0,.07.02c.01,0,.02.01.03.01.03,0,.15-.04.2-.1.07-.08.21-.25.38-.28.17-.02.34.05.39.13.02.02.04.04.07.05.03.02.06.04.07.08,0,0,0,.02,0,.02,0,0-.01,0-.02.01-.1,0-.13.03-.13.07.02.03.02.08,0,.11l.08.08s.03-.04.05-.05c.01-.01.02-.05.03-.08.01-.05.03-.11.07-.17,0,0,.02-.01.02-.01,0,0,.02,0,.02.02,0,.01.02.04.04.07.03.04.06.09.08.13.05.01.11.03.18.04,0,0,0,0,0,0,0,0,0,0,0,0,.17.04.37.09.47.13.04.01.07.02.11.02.02,0,.04,0,.06.01.04.01.08.05.1.1,0,.01,0,.02,0,.03,0,0,0,0,0,0,0,0,0,0,0,0,0,.02.01.04,0,.06,0,.03-.03.07-.06.09-.02.01-.04,0-.09,0-.03,0-.08,0-.11,0,.01.02.04.04.11.06.02,0,.03.03.03.05,0,.04-.06.09-.1.1-.03,0-.07,0-.1-.02-.04,0-.08-.02-.13-.03-.08.12-.17.23-.26.31,0,0,0,0-.01,0,.17.17.34.38.35.61.07.05.11.1.15.18.06-.04.11-.08.17-.12.1-.07.19-.14.28-.18.09-.03.26-.06.35-.02.04.02.44.22.55.28.1.05.18.13.26.23.06.08.07.24.04.29,0,.01-.02.02-.03.02l-.33-.06s-.01,0-.02-.01c-.02-.05-.01-.11.02-.2,0-.01.01-.03.01-.04,0,0-.02-.02-.03-.02-.02-.02-.06,0-.09,0-.04.01-.1,0-.14-.05-.03-.03-.36-.15-.42-.15-.08,0-.14.02-.19.07-.03.05-.15.25-.24.35-.01.01-.02.02-.01.04.06,0,.23-.03.34-.02.14,0,.31.13.39.21.23.18.36.31.45.41.05.04.08.08.12.11.05.04.11.1.1.19,0,.01-.01.02-.03.02h0l-.32.03c.07.1.18.2.3.27.01,0,.07.04.07.08,0,.02,0,.04-.01.06.16-.4.25-.82.25-1.25,0-1.83-1.49-3.16-3.32-2.97-1.48.16-2.72,1.26-3.15,2.65l.36-.36c-.02-.17-.02-.28.01-.3Z"/><path class="cls-1" d="m267.31,140.66s-.11.05-.19.02l-.05-.02c-.07-.03-.1-.04-.14-.03-.05.01-.1.06-.15.11-.07.07-.15.15-.27.17-.1,0-.17-.06-.24-.11-.07-.06-.12-.09-.16-.06,0,0,0,.01,0,.01,0,.03.06.09.11.14.06.06.13.12.12.18.03.03.06.08.07.13.15-.06.28-.18.33-.27.09-.14.17-.23.23-.26.04-.02.08-.02.12,0,.02,0,.03.02.03.04,0,0,.02,0,.03,0,.01,0,.03,0,.04,0,0,0,0,0,0,0,.03.01.04.03.05.05,0,.03,0,.06-.02.08,0,0-.02.01-.03.01,0,0-.01,0-.02,0,0,0-.02,0-.03,0h-.02s-.07.04-.09.06c-.02.02-.04.05-.06.09-.02.03-.03.06-.05.08-.02.03-.06.07-.09.11-.03.04-.07.08-.09.11.01.03.01.07.01.1,0,0,0,.01,0,.02.02,0,.04,0,.05.02.03.02.03.04.02.07.21-.27.37-.58.5-.89,0,.01-.02.03-.02.04Z"/><path class="cls-1" d="m261.69,138.42s.11.07.13.05c.01-.02,0-.11-.03-.19,0-.02,0-.03,0-.05l-.23.12s.09.03.14.06Z"/><path d="m264.27,136.24c-1.91.2-3.46,1.91-3.46,3.82s1.55,3.29,3.46,3.09,3.46-1.91,3.46-3.82-1.55-3.29-3.46-3.09Zm0,.14c1.83-.19,3.32,1.14,3.32,2.97,0,.44-.09.86-.25,1.25,0-.02.02-.04.01-.06,0-.04-.06-.07-.07-.08-.13-.06-.23-.16-.3-.27l.32-.03h0s.02-.01.03-.02c.01-.09-.05-.14-.1-.19-.03-.03-.07-.07-.12-.11-.1-.1-.23-.23-.45-.41-.08-.09-.25-.21-.39-.21-.11,0-.28.02-.34.02,0-.01,0-.02.01-.04.1-.1.22-.3.24-.35.05-.05.11-.07.19-.07.06,0,.39.12.42.15.03.05.09.06.14.05.03-.01.06-.02.09,0,0,0,.03.02.03.02,0,0,0,.02-.01.04-.04.08-.04.15-.02.2,0,0,0,.01.02.01l.33.06s.02,0,.03-.02c.02-.05.01-.21-.04-.29-.07-.1-.16-.18-.26-.23-.12-.06-.51-.26-.55-.28-.09-.04-.26-.02-.35.02-.09.03-.18.1-.28.18-.05.04-.11.08-.17.12-.04-.08-.08-.13-.15-.18-.02-.23-.18-.44-.35-.61,0,0,0,0,.01,0,.09-.08.18-.19.26-.31.04.01.09.02.13.03.03.02.07.02.1.02.04,0,.09-.06.1-.1,0-.02,0-.04-.03-.05-.07-.02-.1-.04-.11-.06.03,0,.08,0,.11,0,.05,0,.07,0,.09,0,.03-.02.05-.05.06-.09,0-.02,0-.04,0-.06,0,0,0,0,0,0,0,0,0,0,0,0,0-.01,0-.02,0-.03-.03-.05-.06-.08-.1-.1-.02,0-.04,0-.06-.01-.03,0-.07,0-.11-.02-.1-.04-.3-.09-.47-.13,0,0,0,0,0,0,0,0,0,0,0,0-.07-.02-.13-.03-.18-.04-.02-.04-.05-.09-.08-.13-.02-.03-.04-.05-.04-.07,0,0-.01-.01-.02-.02,0,0-.02,0-.02.01-.04.06-.05.12-.07.17,0,.04-.02.07-.03.08-.02.01-.03.03-.05.05l-.08-.08s.02-.08,0-.11c0-.04.03-.06.13-.07,0,0,.01,0,.02-.01,0,0,0-.01,0-.02,0-.04-.04-.06-.07-.08-.02-.01-.05-.03-.07-.05-.06-.08-.22-.15-.39-.13-.18.02-.32.19-.38.28-.06.07-.18.11-.2.1-.01,0-.02,0-.03-.01-.02,0-.04-.02-.07-.02l-.17.02s-.05.02-.07.03c-.02.01-.04.02-.07.02-.04,0-.2.02-.25.04-.03.01-.04.04-.04.07,0,.05.04.1.09.1h.02s.13,0,.16.01c.06.03.21.02.28-.02.07-.03.13-.02.2,0,.03.01.07.02.11.03,0,0,0,0,.01,0,0,0,0,0,0,0h.02s0,.01,0,.01c0,.02,0,.05,0,.06-.03,0-.09,0-.12,0,0,0-.03,0-.04-.01-.03-.01-.06-.02-.08-.03-.02,0-.03,0-.04.01,0,0,0,0,0,0,0,0,0,0-.01,0-.16.03-.46.03-.62.02-.04,0-.1.06-.18.14,0,0,0,0,0,0l-.61.09s0,0,0,.01c0,0-.02,0-.03,0,0,0,0,0,0,0-.04.04-.04.13-.04.22l-.29.13s0,0,0,0c0,0,0,0,0,0-.05.04-.03.15,0,.27l-.27.15s0,0,0,.01c0,0,0,0,0,0-.03.02-.03.13-.01.3l-.36.36c.43-1.38,1.67-2.49,3.15-2.65Zm1.91,4.56s.12.12.1.14c0,.01,0,.02,0,.03.03.02.07.08.06.13,0,0,0,.02,0,.02,0,0,.01,0,.02,0,.19-.06.34-.21.39-.31.11-.16.17-.22.21-.24.02-.01.05,0,.07,0,0,0,.02.01.02.02,0,0,0,0,0,0-.08.04-.13.1-.17.15-.03.05-.06.09-.12.13,0,0,0,.01,0,.02,0,0,0,0,.01,0,0,0,0,0,0,0,.06-.04.09-.09.13-.13.04-.06.08-.11.16-.15,0,0,.01,0,.02,0,0,0,.02,0,.02,0,.01,0,.03,0,.05.01.01,0,.02.01.02.02,0,0,0,.01,0,.02,0,0-.01,0-.02,0h-.02s-.1.03-.14.07c-.03.03-.05.06-.07.1-.01.03-.03.05-.05.08-.02.03-.05.06-.09.11-.04.04-.08.09-.1.12-.13.13-.26.23-.4.31,0,0,0,0,0,0,0,0,0,0,0,0-.03.04-.15.12-.2.15-.01,0-.03.01-.03.01,0,0,0,0-.01-.03,0,0,0,0,0,0-.03-.15-.2-.14-.35-.14-.05,0-.11,0-.15,0-.01,0-.03,0-.03.02,0,.01,0,.03.02.03.05,0,.1,0,.16,0,.14,0,.26,0,.29.1-.02.03-.1.07-.13.08-.05.02-.11.04-.16.06-.09.04-.19.07-.28.08,0,0,0,0,0,0l-.36.03h-.01c-.07-.02-.08-.02-.08-.05,0-.03.06-.05.08-.07,0,0,.01,0,.02-.01,0,0,.02-.02.01-.03,0-.01,0-.02-.02-.02-.06-.01-.17.02-.25.05-.03,0-.05.02-.07.02-.05,0-.14.01-.25.03,0,0-.01,0-.02,0,.15-.07.23-.14.26-.22.02-.06,0-.11-.04-.17-.08-.1-.34-.11-.47-.1-.02,0-.03.01-.03.03,0,.01.01.03.02.02.13,0,.37,0,.43.09.04.05.05.09.03.13-.02.06-.11.15-.42.27-.01,0-.02.02-.02.03,0,.01.01.02.03.02.07,0,.15-.02.22-.04.1-.02.2-.04.24-.03,0,0,0,0,.01,0,.02,0,.05-.01.07-.02.04-.01.08-.03.12-.04-.02.02-.03.04-.03.06,0,.07.05.08.12.09-.06.03-.12.09-.12.14,0,.04.03.05.07.06-.08.02-.17.04-.22.02,0,0-.02,0-.02,0-.03.02-.27,0-.4,0-.09,0-.16-.01-.19,0-.02,0-.05,0-.08-.03-.02-.02-.03-.05-.03-.09,0,0,0-.06.05-.08,0,0,.01,0,.02-.02,0,0,0-.02,0-.02,0-.01.01-.06.24-.22.01,0,.02-.02.01-.03,0-.01-.02-.02-.03-.01-.21.05-.45,0-.51-.07,0,0,0,0-.01,0-.1-.03-.17,0-.22.05,0,0-.02-.02-.02-.02-.01-.03-.05-.07-.09-.12.1-.03.21-.05.32-.05.03,0,.07,0,.1,0,0,0,0,0,.01,0,.07-.04.3-.19.53-.22.02,0,.06-.01.1-.02l.39-.03s.02,0,.02-.01c0,0,0-.02,0-.02,0-.01-.02-.03-.03-.04.07-.02.13-.04.2-.06.01.01.02.03.02.04,0,0,0,0,0,0,0,0,0,.01,0,.02,0,0,0,0,.01,0,.1,0,.18.03.22.08,0,0,0,0,0,0,0,0,0,0,0,.01.02.03.03.07.02.11,0,0,0,.01,0,.01,0,0,0,0,.01,0,.01,0,.02,0,.04,0,.09-.03.16-.05.19.06,0,0,0,0,.01,0,0,0,0,0,0,0,0,0,.01,0,.01-.01.04-.1.14-.24.21-.23.01,0,.03,0,.04-.02.02-.03.04-.08.01-.13-.02-.04-.07-.07-.12-.09.01,0,.03,0,.05,0,0,0,.02,0,.02-.01s0-.02,0-.03c-.05-.06-.06-.18-.03-.3.02-.09.06-.16.11-.19.11-.07.23,0,.32.05.06.04.12.07.15.03.06-.07-.01-.12-.11-.21-.03-.02-.06-.05-.1-.08-.03-.04-.03-.05-.03-.05,0,0,0,0,0-.01,0-.01,0-.02,0-.03.06.05.16.11.22.15h0s.05.03.07.02c.02,0,.03-.01.04-.02.03-.03.02-.09-.01-.16,0,0,0,0,0,0,0-.02-.01-.03-.02-.04-.01,0-.03-.02-.04-.05,0-.02-.01-.03-.02-.05-.01-.02-.02-.03-.02-.05.02-.02.05-.05.09-.08.02,0,.04,0,.06,0,.03,0,.05-.02.07-.03,0,.01.02.02.03.04,0,0,.01.02.02.03.04.06.08.08.12.09.03,0,.05.02.06.04,0,0,0,.03.01.05,0,.03.02.08.04.11.07.13.2.25.35.32.03.02.05.04.05.05,0,.03-.03.06-.03.08,0,.01-.06.03-.13,0l-.05-.02c-.07-.03-.11-.04-.17-.03-.07.02-.12.07-.18.13-.07.07-.14.14-.23.15-.08,0-.15-.06-.21-.1-.08-.06-.15-.11-.22-.06-.02.01-.03.03-.03.05,0,.06.06.12.12.18Zm.6.59s-.18.25-.22.26c-.03,0-.06-.02-.07-.03-.02-.02-.03-.05-.03-.06,0,0,0,0,0,0,.1-.06.16-.12.21-.17.02-.02.04-.04.06-.06,0,0,0,0,0,0,0,0,.03,0,.05.01,0,0,0,0,0,.04Zm-.25.35c-.29.02-.58.05-.87.07.02,0,.04-.01.06-.02.05-.02.1-.04.16-.06.01,0,.09-.04.14-.08,0,0,.01.01.02.02.02.01.05,0,.08-.02.04-.02.13-.08.19-.13.01.02.03.05.05.06.01,0,.04.01.06,0,0,.02.02.04.04.06.03.03.07.05.11.04,0,0,0,0,0,0,0,0,.01,0,.02,0-.02.02-.03.03-.05.05Zm.18-.47s0,.03,0,.04c0,0,0,0,0,0-.02.02-.04.04-.06.06-.05.05-.1.1-.2.16,0,0-.02,0-.02,0-.02.01-.04.01-.05,0-.02-.01-.03-.04-.03-.05.12-.08.24-.17.35-.28,0,.02,0,.04,0,.06Zm-3.24,1.17c0,.08-.06.13-.07.14-.03.02-.1.03-.16.03-.02,0-.04,0-.06,0-.06,0-.08.02-.1.04,0,0,0,0-.02.01-.04.02-.06.03-.08.03,0,0,0,0,0,0,0,0,0,0,0,0,.01-.05.04-.13.09-.15.06-.01.17-.05.17-.12,0-.05-.06-.05-.15-.06-.06,0-.12,0-.18-.02-.07-.02-.1-.07-.1-.15l.59.11s.05.09.05.13Zm-1.46-.44s-.03-.02-.03-.03c0-.02,0-.04.01-.05,0,0,.02-.01.03-.01,0,0,.01,0,.02,0l2.85.59s0,0,0,0c0,0,.02.02.04.04-.02.01-.05.02-.05.02l-2.86-.55Zm1.2-.16s0-.11.01-.17c.02.03.04.06.04.07.02.07.09.14.16.13-.01.04-.01.1-.04.13-.04.05-.1.07-.17.07-.05,0-.08,0-.11.02l-.25-.05c.06-.11.2-.15.32-.16,0,0,.01,0,.02-.01,0,0,0-.01,0-.02Zm-.32-1.37s0,0,0-.01c0,0,0,0,0,0-.21-.14-.4-.32-.51-.52,0,0,0,0-.02-.01,0,0-.01,0-.02,0-.03.02-.26.05-.37,0-.1-.04-.24-.03-.31.09-.04.08-.04.2.04.25.09.06.2.16.31.29.09.1.03.17-.12.32,0,0-.01.02,0,.03,0,.02,0,.03,0,.04,0,.02,0,.04.01.09,0,0,0,0,0,0,.03.03.04.11.02.17,0,.03-.02.05-.03.06-.01,0-.02.02-.03.02-.05.04-.11.08-.17.16-.02.02-.03.03-.03.03,0,0-.02-.05,0-.14.02-.1-.05-.16-.11-.22h0c-.05-.06-.02-.24.01-.29.04-.06.08-.2-.01-.28-.07-.06-.24-.21-.21-.45.01-.13.07-.23.17-.3.09-.06.21-.08.29-.05.31.11.49.05.56.02,0,0,.01,0,.02-.01.06-.1.15-.22.28-.33l.39.36s0,0,.01,0h.15s0,0,0,0c0,0,.01,0,.01,0,0,0,0-.01,0-.02l-.02-.15s0,0,0-.01l-.37-.32c.12-.07.28-.15.45-.22.17.08.17.42.17.66,0,.02,0,.03,0,.05,0,0-.01,0-.01.02,0,.01.01.03.02.02.21-.02.27.12.28.2,0,0,0,0,0,0,0,.15-.19.44-.44.59,0,0,0,0,0,0,0,0,0,0,0,0,0,.01-.03.03-.05.06-.05.05-.11.12-.15.18-.05.07-.1.18,0,.32,0,0,0,0,0,0,.06.05.38.32.42.41.03.04.12.11.23.19l.06.04c.03.07.08.11.13.15,0,0,0,0,0,0l-.4.04s.01-.06.02-.1c0-.02,0-.05-.03-.07-.02-.02-.05-.03-.08-.02,0,0,0,0-.01,0-.05.01-.1-.05-.12-.1-.02-.07-.25-.33-.31-.39-.02-.02-.05-.04-.08-.07-.14-.12-.2-.18-.23-.18,0,0,0,0-.01-.02,0-.02,0-.05.02-.07.05-.05.17-.26.21-.4.02-.08,0-.11-.02-.13Zm-.75-3.01c.09-.04.16.02.23.07.05.04.1.07.15.06,0,0,0,0,0,0,0,0,0,0,0,0h.02c.3-.07.47-.1.58-.12-.05.04-.09.08-.13.12-.02,0-.04,0-.06.01-.28.05-.59.11-.83.24,0-.03.01-.08,0-.15,0-.09-.01-.2.02-.24Zm1.7-.41s0,.02,0,.02c-.03,0-.06-.01-.09-.02-.08-.02-.15-.05-.24,0-.06.03-.2.03-.24.02-.04-.02-.11-.02-.18-.02h-.02s-.03-.01-.04-.04c0-.02,0-.03,0-.03.04-.02.19-.04.23-.04.04,0,.07-.01.09-.03.02,0,.03-.02.05-.02l.16-.02s.03,0,.04.01c.01,0,.03.01.05.02.05,0,.19-.05.25-.13.06-.08.19-.23.34-.25,0,0,0,0,0,0,.16-.02.3.05.34.11.03.03.06.05.08.06.01,0,.02.01.03.02-.06,0-.12.04-.13.11,0,0-.01,0-.02,0-.03-.01-.07-.05-.08-.09-.03-.09-.1-.14-.2-.13-.1.01-.3.09-.35.23,0,.07-.02.12-.02.15,0,0-.02,0-.02,0-.02,0-.05,0-.05.04,0,0,0,0,0,0v.02Zm1.99.15s0,.05,0,.07c.01.01.03.01.06.01,0,.01,0,.02,0,.04,0,.02-.02.04-.03.05,0,0-.04,0-.06,0-.04,0-.06,0-.09.01,0,0,0,0,0,0,0-.06-.09-.09-.17-.13-.11-.04-.21-.09-.19-.19.12.03.23.06.29.09.04.02.09.02.12.03.02,0,.04,0,.05,0,0,0,.01.01.02.02Zm.02.02s.03.02.03.03c-.01,0-.03,0-.03,0s0-.02,0-.03Zm-.32.05c.08.03.16.06.16.11,0,0,0,0,0,0-.01,0-.04,0-.04,0l-.46-.19s.02-.04.03-.05c0,0,0,0,0-.01.02-.02.05-.05.05-.09,0,0,0,0,0,0,.02,0,.03,0,.05.01-.03.12.09.17.2.22Zm-.38,1.16c.16-.01.25.04.35.1.01,0,.03.02.04.02.07.05.11.1.15.19.03.11.03.24,0,.36-.01,0-.03,0-.04,0-.11-.02-.22-.04-.33-.03-.01,0-.03.01-.03.03,0,.01.01.03.02.02.1,0,.21.01.32.03.1.02.19.03.26.02,0,0,0,0,.01,0,0,0,.22-.03.35-.03.13,0,.29.12.36.2.23.18.36.31.45.41.05.05.08.08.12.11.05.04.08.07.08.12l-.28.02c0-.1-.02-.18-.04-.24,0,0,0,0,0,0-.04-.05-.11-.03-.14-.02,0,0-.01,0-.02,0,0,0-.02,0-.08-.09-.05-.11-.28-.23-.31-.25-.06-.03-.1-.03-.14-.02-.02,0-.04,0-.05,0-.06-.01-.17-.02-.26.03-.04.02-.12.05-.21.09-.22.03-.29.01-.37-.01-.04-.01-.07-.02-.13-.03-.01,0-.03,0-.03.02,0,.01,0,.03.02.03.05,0,.08.02.12.03.05.02.11.03.2.03-.05.01-.1.03-.15.04,0,0,0,0,0,0-.02.01-.07.03-.12.05,0-.01-.01-.03-.02-.04-.04-.07-.25-.35-.31-.4-.02-.03-.13-.29-.15-.35-.03-.07-.08-.08-.12-.09h-.08c-.13-.04-.21-.05-.37-.07-.02,0-.03,0-.04,0l.14-.07c.05-.02.14-.08.11-.22,0-.02,0-.05,0-.08,0,0,.02,0,.03,0,.27-.09.5-.22.73-.4.16.15.3.34.34.54-.09-.05-.2-.11-.36-.1-.02,0-.03.01-.03.03,0,.01.01.02.02.02Zm1.89.39s-.09-.02-.13,0c-.02,0-.06,0-.08-.03-.04-.06-.4-.17-.45-.17-.04,0-.06.03-.1.04,0,0-.02,0-.02,0-.04.01-.09.01-.12.04,0,0,0,0,0,0-.01.02-.14.24-.24.34-.02.02-.01.05-.01.07-.04,0-.09,0-.14,0,.02-.12.02-.25,0-.37.06-.04.12-.08.18-.13.1-.07.19-.14.27-.17.09-.03.24-.05.31-.02.04.02.44.22.55.28.09.05.17.12.24.21.04.06.05.17.05.21l-.29-.05s0-.08.02-.14c.03-.07.03-.08-.03-.12Zm-.44.86s-.05.02-.08.02c.02-.02.04-.03.07-.04,0,0,.01.01.02.02Zm-.02-.08c-.1.04-.21.15-.24.19,0,0,0,.01,0,.02,0,.03.01.06.03.08,0,.01.01.02.02.04.01.04.04.06.05.07,0,0,0,0,0,0,0,0-.01.01-.02,0-.02,0-.04-.02-.06-.05-.03-.04-.16-.09-.2-.06-.03.03-.04.1-.04.15h0s0,.03.03.09c0,0,0,0,0,0,.04.03.07.06.1.09.08.07.13.12.11.14-.01,0-.06-.02-.09-.04-.09-.05-.22-.13-.35-.06-.04-.04-.05-.06-.04-.09.01-.07.05-.16.07-.22,0,0,0,0,0-.01h0c-.02-.06-.05-.14-.02-.21,0-.02.01-.03.02-.04.03-.06.05-.1.13-.12.12-.03.13-.05.13-.07,0,0,0-.04-.11-.03-.12,0-.16.04-.21.08,0,0,0,0,0,0-.04.04-.08.09-.11.14-.06.08-.12.16-.18.19-.04.02-.07.04-.11.05-.05-.03-.09-.07-.12-.11-.03-.04-.06-.09-.08-.14.05-.02.09-.03.12-.05.24-.05.49-.16.55-.2.07-.04.18-.03.24-.02.03,0,.05,0,.06,0,.04,0,.06,0,.11.02.06.03.15.09.21.15,0,0,0,0,0,0Zm-.12.44s.03.08.02.1c-.01.01-.04,0-.07,0h0c-.07-.05-.18-.11-.24-.16,0,0,0-.02,0-.03.03,0,.11.02.13.05.03.04.06.07.1.07.02,0,.04,0,.06-.02Zm-.69.75s-.05,0-.07,0c-.02-.01-.05-.02-.06-.04-.08-.06-.06-.16-.04-.23,0-.02.01-.05.01-.06h0c0-.13-.23-.21-.38-.26-.04-.02-.07-.03-.1-.04.02-.02.05-.04.07-.05.07,0,.16.01.18.02.01,0,.03.02.05.03.05.03.08.05.11.05.08,0,.15,0,.19,0,.02,0,.03,0,.04,0,.05,0,.07-.06.07-.1,0-.04-.01-.07-.04-.07-.02,0-.13-.01-.2-.02-.02,0-.06-.03-.09-.05.03-.01.06-.02.09-.04.07-.04.13-.12.19-.2.04-.05.07-.09.11-.14.04-.04.08-.07.19-.08.04,0,.07,0,.08,0-.01,0-.04.02-.1.03-.1.02-.13.07-.16.14,0,.01-.01.03-.02.04-.04.08,0,.16.02.22h0c-.02.06-.06.15-.07.22,0,.04.01.06.05.1-.07.05-.11.12-.14.23-.02.11-.02.22.02.29Zm-.13.17s-.05.05-.08.08c-.07.06-.13.13-.17.18,0-.04,0-.08-.03-.11,0,0-.03,0-.04-.02,0,0,0,0,0,0-.04-.03-.09-.06-.15-.07.08-.04.22-.11.35-.14,0,0,.01-.01.01-.02,0,0,0-.01-.02-.01-.14.04-.29.11-.37.15,0-.03-.03-.06-.07-.09-.03-.02-.07-.02-.11-.01.17-.05.38-.1.51-.11,0,0,0,0,0,0,0,0,.02,0,.02-.02,0,0,0-.02-.02-.01-.15,0-.39.07-.57.12,0,0,0-.01,0-.02.02-.03.04-.08.01-.12-.02-.03-.07-.03-.12-.03.18-.05.37-.07.52-.08.04,0,.09,0,.12,0h0s.02,0,.02-.02c0,0,0-.02-.02-.01-.04,0-.08,0-.12,0-.18.01-.43.03-.65.11,0-.07.01-.11-.02-.18-.03-.04-.1-.05-.17-.04.29-.05.61-.03.8-.02.06,0,.11,0,.13,0,0,0,0,0,0,0,0,0,.02,0,.02-.02,0,0,0-.02-.01-.02-.02,0-.07,0-.13,0-.21-.02-.6-.04-.91.04.05-.06.07-.13.04-.2-.02-.05-.08-.04-.14-.03-.04,0-.07,0-.09,0,0,0,0-.02,0-.03.01-.03.18-.08.3-.1,0,0,0,0,0,0,.09,0,.38.03.62.06.02.01.06.03.12.05.13.05.35.12.36.23,0,.01,0,.03,0,.05-.02.07-.04.19.05.26.03.02.06.04.09.06.06.03.12.07.15.11.02.03.01.06,0,.07,0,.02-.02.03-.02.03-.02,0-.04.02-.06.04,0,0,0,0,0,0-.06.04-.13.11-.16.18-.03-.06-.07-.07-.12-.06-.02,0-.05.01-.07.02.04-.05.1-.11.16-.17.03-.03.05-.05.08-.08,0,0,0-.02,0-.02,0,0-.02,0-.02,0Zm-.78.03s-.01-.02-.02-.03l-.02-.03s-.05-.07-.11-.1c-.03-.01-.06-.03-.09-.05-.05-.03-.09-.05-.13-.06-.03,0-.2.01-.28.02-.01,0-.03,0-.05,0-.24.02-.37.02-.39,0-.04-.03-.03-.09.02-.16.08-.06.28-.35.32-.57,0,0,.02,0,.03,0,.03.06.04.12.04.16-.02.01-.05.03-.05.04,0,.02,0,.04.02.05.02.02.07.02.11.01.05,0,.09-.01.11.02.03.07.01.14-.06.2,0,0,0,.01,0,.02,0,0,0,0,0,0s0,0,0,0c0,0,0,0,0,0,0,0,0,0,.01.01.03,0,.07,0,.11,0,.08,0,.17,0,.19.03.03.06.03.1.02.17h0s0,.01,0,.01c0,0,0,0,0,0,0,0,0,0,0,0,0,0,0,0,0,0,0,0,0,0,0,0,0,0,0,0,0,0,0,0,0,0,0,0,.02,0,.05,0,.09,0,.06,0,.13-.01.15.02.02.03,0,.05-.01.09-.01.02-.02.04-.01.05,0,0,0,0,0,0,0,0,0,0,0,0,0,0,0,0,0,0,0,0,0,0,0,0,0,0,0,0,.01,0,0,0,0,0,0,0,0,0,0,0,0,0,.02,0,.03.01.06.01.03,0,.06,0,.09,0-.06.02-.12.03-.17.05Zm-1.58-.3c.01.06.02.12,0,.2-.02.06,0,.14.03.19.03.04.07.06.11.06.14,0,.26-.02.39-.03.12-.01.24-.02.39-.03.08.02.16-.03.21-.08.01,0,.03,0,.03.02.02.02.03.05.03.08-.02,0-.05.01-.06.01-.23.03-.45.17-.55.23-.03,0-.06,0-.09,0-.12,0-.25.02-.36.07-.11-.11-.26-.23-.3-.27-.06-.09-.06-.18,0-.26.04-.05.1-.12.15-.18,0,0,.01-.01.02-.02Zm1.19.29s-.05-.03-.08-.03c0,0-.01,0-.01,0-.06.05-.11.09-.17.07,0,0,0,0,0,0-.15,0-.28.02-.4.03-.12.01-.24.02-.38.03-.03,0-.05-.01-.07-.04-.03-.04-.04-.09-.03-.14.03-.11.02-.18,0-.25.18-.11.34-.29.41-.46.11-.01.2-.05.26-.15.02,0,.03,0,.05,0-.04.2-.24.49-.29.52,0,0,0,0,0,0-.08.12-.06.2-.01.24.04.03.19.02.43,0,.02,0,.04,0,.05,0,.1,0,.25-.02.27-.02.03,0,.07.02.11.05.03.02.06.04.1.05.05.02.06.04.09.08l.02.03s.02.03.03.05c0,0,.01.01.02.02l-.32.03s-.02-.09-.05-.11Zm-1.18-1.91s.05-.02.08-.02c0,.06.03.08.08.1h.01s.12.02.21,0c.06,0,.12-.01.15,0,.1.02.19.02.26.02.02,0,.04,0,.05,0,0,0,0,0,0,0,.17-.04.28,0,.32.03.05.03.15.26.19.34h0c.03.07.12.13.21.19.03.02.04.03.06.04-.04.01-.08.03-.12.04-.19.06-.63.18-.72.19h0s-.1,0-.15,0c-.06,0-.12.01-.16,0-.01-.09-.09-.24-.32-.23,0-.01,0-.03,0-.04,0-.23,0-.57-.17-.66Zm-.82-.23c.21-.29.45-.58.72-.74,0,.05,0,.09.02.14.02.11.05.19.08.27.02.07.05.13.06.2.03.1.02.18.01.24,0,.02,0,.03,0,.04-.23.07-.44.18-.59.27l-.35-.3.05-.06s.02-.03.01-.05c0,0-.01,0-.02-.02Zm.72-.77c-.29.16-.53.46-.74.75,0,0,0,0,0,0,0-.1.06-.22.08-.25.11-.15.26-.38.32-.49l.02-.03s.09-.06.14-.1c.06-.04.13-.08.18-.12,0,.09,0,.16,0,.23Zm1.85,1.37l-.26.16s-.02-.02-.03-.03l.27-.16s.02.02.03.04Zm.04.72c-.27-.04-.55-.07-.63-.06,0,0-.02,0-.04,0,0-.04,0-.09,0-.15.15-.04.3-.08.4-.11.05-.02.1-.03.15-.05.03.05.06.16.06.22,0,.04,0,.07.02.09.02.02.06.02.08.01,0,0,.02,0,.03,0-.02.01-.04.02-.05.04Zm-.71-.04c-.05.01-.12.03-.17.05,0-.04-.01-.09-.04-.15.06-.01.12-.03.2-.05,0,.06,0,.1,0,.14Zm.74-.05s-.01,0-.02,0c-.03,0-.03,0-.04,0,0,0,0-.01,0-.05,0-.06-.02-.19-.07-.25l.06-.03.06.11c.03.07.05.09.09.12,0,0,0,0,0,0,0,0,0,0,0,0,0,0,0,0,0-.01,0-.06-.01-.08-.04-.14l-.06-.12.07-.04s.02.04.03.06c.02.05.05.11.09.16.05.06.2.18.27.19.06,0,.16.02.2.02,0,0,0,.03,0,.05,0,.02-.02.02-.02.02-.03,0-.09.01-.22.01-.01,0-.06-.03-.08-.04-.02-.01-.04-.02-.06-.03-.04-.02-.2-.03-.27-.02Zm-.06-.38s0,0,0,0c0,0,0,0,0,0,0,0,0,0,0,0l-.05.03s-.01,0-.01,0c0,0,0,0,0-.01l.04-.02s0,0,0,0c0,0,0,0,0,0l-.06-.11s0,0,0,0c0,0,.01,0,.02-.02.01,0,.02-.01.03-.01,0,0,0,0,0,0l.06.11s0,0,.02,0l.04-.02s0,0,0,0c0,0,0,0,0,.01,0,0,0,0,0,0l-.05.03s0,0,0,0c0,0,0,0,0,0v.02s-.02.02-.02.02v-.02Zm.04.02l.06.12s.04.07.04.11c-.03-.02-.04-.04-.07-.1l-.06-.11.03-.02Zm.01-.03h0s.04-.03.04-.03c0,0,.02-.01.02-.03,0-.01,0-.03-.02-.03,0,0-.02,0-.03,0l-.03.02-.05-.09s0-.02,0-.02c-.01,0-.03,0-.06.02-.04.02-.04.04-.04.04,0,0,0,.01.02.01l.05.09-.03.02s-.02.03-.01.04c0,.01.03.02.04.01l.04-.02h0s-.06.04-.06.04c0,0,0,0,0,0-.02-.02-.05-.04-.1-.07-.03-.02-.06-.04-.1-.06l.26-.16c.06.08.11.15.13.18l-.07.04Zm-1.34.38s.1,0,.16,0c0,0,.02,0,.02,0-.05.07-.11.1-.21.11.01-.04.03-.07.03-.1Zm3.14-.06s-.02-.06-.03-.08c0-.03-.01-.05-.02-.06-.03-.04-.06-.05-.08-.06,0,0-.02-.01-.02-.02,0,0,0,0,.01,0,0,0,.01,0,.02,0,.04-.01.07-.02.09,0,.02.06.03.13.03.22Zm-.22-.27s0,0,0,0c0,0,0,0,0,0,0,0,0,0,.01.01Zm-2.62-1.63s.07-.02.11-.02c.01.03.01.09,0,.13-.03,0-.07.01-.1.01,0,0,0,0,0,0,0,0,0,0,0,0h.08s0-.01,0-.02,0,0,0,0h-.08s0,0,0,0c0,0,0,0,0,0,0,0,0,0,0-.02h.07s0-.02,0-.02c0,0,0,0,0,0h-.07s0,0,0,0c0,0,0,0,0,0,0,0,0,0,0-.01h0s.07,0,.07,0c0,0,0,0,0,0,0,0,0,0,0,0h-.08s0,0,0,0Zm.17.16s0,0,0,0c0,0,0,0,0,0,0,0,0,0,.01,0h0s0,0,0,0,0,0,0,0Zm0-.13l.09-.02s0,.04,0,.05l-.1.03s0-.03,0-.06Zm0-.01s0-.04,0-.06l.1-.02s0,.04,0,.05l-.09.02Zm0,.12s0,0,0,0c0,0,0,0,0,0,0,0,0-.02,0-.03l.1-.03s0,.04,0,.05l-.09.02s-.02,0-.03-.02Zm.11,0s0,0,0,.01c-.02,0-.04.01-.05.01,0,0,0,0-.01,0l.06-.02Zm-.02-.22l-.1.02s0,0,0,0c0,0,0,0,0,0,0,0,0,0,0,0,.03-.02.07-.02.11-.02,0,0,0,0,0,0Zm-.12,0s0,0,0,.01c-.01,0-.04,0-.07,0,0,0,0-.01,0-.02.01-.03.03-.06.05-.07.07-.03.13-.05.2-.06.01,0,.02,0,.03,0,.04,0,.07,0,.08.02,0,0,.01.02.01.04,0,.02-.01.04-.03.05-.02.01-.04.02-.06.02,0,0-.01,0-.02,0-.06-.01-.14-.03-.19.01Zm-.11-.05s0-.01,0-.02c.01.01.02.02.03.03,0,0-.01.01-.02.02,0,0,0,.02,0,.03,0,0-.02,0-.03,0,0-.03.01-.05.02-.07Zm.11-.36h0s0,0,0,0c0,0,0-.01,0-.03,0-.02.01-.03.02-.03l.14.02s0,.04,0,.05h-.14s0,0,0,0,0,0,0,0Zm0,.01h.14s0,.04,0,.06h-.14s0,0,0,0,0,0,0,0,0,0,0,0c0,0,0,0,0,0,0,0,0-.01,0-.03,0-.02.01-.03.02-.03Zm0,.07h.14s0,.04,0,.05h-.14s0,0,0,0,0,0,0,0c0,0,0,0,0,0,0,0,0,0,0,0,0,0,0-.01,0-.03,0-.02,0-.03.01-.03Zm0,.07h.14s0,.03,0,.05h-.13s0,.01,0,.01c0,0,0,0,0,0,0,0,0,0,0,0,0,0,0-.01,0-.03,0-.02,0-.03.01-.03Zm0,.13h0s0,0,0,0c0,0,0,0,0,0,0,0,0-.01,0-.02,0-.02,0-.03.01-.03h.13s0,.02,0,.04l-.12.02Zm0,.01h.06s-.04,0-.06,0c0,0,0,0,0,0Zm.02-.38s0,0,0,0c0,0,0,0,0,0,0,0,0,0,0,0,0,0,0-.01,0-.03,0-.02.01-.03.02-.03l.15.03s-.02.03-.02.05l-.15-.02Zm.02-.07s0,0,0,0c0,0,0,0,0,0,0,0,0,0,0,0,0,0,0-.01,0-.03,0-.01.01-.02.02-.02.01,0,.02,0,.03,0,0,0,0,0,0,0l.13.03s-.02.03-.02.05l-.16-.03Zm.06-.06s0,0,.01,0c0-.01.01-.03.02-.04,0,0,0,0,0,0l.11.04s-.01.03-.02.05l-.12-.03Zm.03-.07s0,0,0,0c0,0,.01,0,.02-.01,0,0,0-.01.01-.02,0,0,0,0,0-.01l.1.04s-.01.03-.02.05l-.11-.04Zm.04-.06s.01-.01.01-.03c0,0,0,0,0,0h0s.03,0,.05,0l.06.03s-.01.03-.02.05l-.1-.04Zm.09-.04s.01-.02.01-.03v-.03s.04.02.04.02h.02s-.02.03-.03.05c0,0,0,0,0,0l-.04-.02Zm.05-.05l-.03-.02s0-.04.01-.07l.03.02.06.04s-.03.03-.04.04l-.03-.02Zm.01-.08l-.03-.02s0,0,0,0c.03,0,.03-.03.04-.05,0,0,0,0,0,0l.1.08s-.02.03-.04.04l-.07-.05Zm-.09.07v.02s-.02,0-.02,0h-.01s-.03,0-.04.01c-.02.02-.02.04-.02.06,0,0,0,0,0,.02-.02,0-.03,0-.05-.01,0,0,0,0,0,0,0,0,0,0,0,0,.01,0,.03.01.05.01,0,0,0,0,0,0,0,0-.02,0-.02,0-.01.01-.02.03-.02.05,0,.01,0,.02,0,.03,0,0,0,0,0,0-.02-.01-.05-.03-.08-.05,0,0,0,0-.01,0,0,0,0,0,0,0,.06-.02.09-.07.11-.1,0,0,0-.01,0-.01,0,0,.01-.02.02-.02.02-.01.04-.03.05-.05,0,0,0,0,0,0,0-.04.04-.04.09-.04,0,.03,0,.07-.01.09Zm-.28.2s0,0,.02,0c.02,0,.05.03.07.04,0,0-.01.01-.01.02,0,.02,0,.03,0,.04,0,0-.02.02-.02.04,0,.02,0,.03,0,.04,0,0-.02.02-.02.04,0,.02,0,.03,0,.04,0,0-.01.02-.02.04,0,.02,0,.03,0,.04,0,0-.01.02-.01.04,0,.02,0,.03,0,.04,0,0-.01.02-.01.04,0,.02,0,.03.01.04,0,.01-.01.03,0,.04,0,.02,0,.03.01.03,0,0,0,.01,0,.02,0,0,0,0,0,0,0,0-.01.02-.02.03-.01-.02-.03-.03-.05-.05,0-.08.01-.2.01-.24,0-.07,0-.13-.02-.19v-.04s0,0,0,0c0-.02,0-.04.03-.06.01,0,.02-.01.02-.02Zm-.1.92s.05,0,.07,0c.04.05.08.08.12.08,0,0,0,.01,0,.02,0,.01.01.02.02.03,0,.01,0,.03,0,.04,0,.01.01.02.02.03,0,0,0,.02,0,.04,0,.01.01.02.02.03,0,.01,0,.03,0,.04,0,0,0,0,0,0,0,0,0,.01-.02.02l-.21.1s-.02-.03-.03-.07c0-.02,0-.05-.02-.08-.02-.07-.04-.15-.02-.21,0-.02.01-.05.02-.08,0,0,.01.02.02.02Zm.26.27h.03s.01-.01.01-.01c0,0,0,.02-.01.02,0,0-.02.01-.03.02,0-.02,0-.03,0-.03Zm.03-.03h-.03s0,.01,0,.01c0,0,0,0,0,0,0,0,0,0,0,0,0,0-.01,0-.01-.02,0-.02,0-.03,0-.03h0l.06-.02h0s0,.04,0,.05h-.01Zm0-.07l-.06.02s0,0,0,0c0,0,0,0,0,0,0,0,0,0,0,0,0,0,0,0,0,0,0,0-.01,0-.01-.02,0-.02,0-.03,0-.03l.08-.03s0,.02,0,.03c0,0,0,.02,0,.03,0,0,0,0,0,0h0Zm0-.07l-.08.03s0,0,0,0c0,0,0,0,0,0h0s0,0,0,0c0,0,0,0-.01-.02,0,0,0,0,0-.01,0,0,0,0,0,0,.02,0,.04,0,.05,0,.01,0,.02,0,.03,0,0,0,0,0,0,.01Zm.07-.05s-.09.03-.15.03c-.03,0-.08-.03-.12-.07.03,0,.05-.01.06-.01,0,0,0,0,0-.01,0,0,.01.01.02.01,0,0,.01,0,.02,0,0,0,.02.02.03.02.04,0,.08,0,.13-.02.28-.1.52-.23.76-.43.14-.12.29-.34.35-.45l.05.02c-.08.15-.22.36-.36.47-.25.2-.49.34-.78.44Zm.67-.52c0-.06,0-.15.01-.2.1-.01.14-.02.22-.05.02,0,.04,0,.06.01-.07.09-.14.19-.22.26,0,0-.02.01-.02.02-.01-.01-.03-.03-.04-.04Zm-.05-.05c-.09-.06-.15-.13-.18-.23.05.04.12.06.2.07-.01.05-.02.11-.02.16Zm.54-.34h.02c.01.06.06.09.14.12,0,.01-.03.05-.06.05-.02,0-.05,0-.07-.01,0,0,0,0,0,0-.04,0-.08-.02-.12-.03.03-.04.06-.09.08-.13Zm-.34-.36s-.02.06-.04.07c0,0-.01.01-.01.02,0,.01-.02.04-.03.05l-.14-.06.03-.05s0-.01,0-.02c0-.02,0-.06.02-.08.02-.01.05-.01.1,0,.05.02.07.04.08.07Zm-.19-.06s0,.01,0,.02c0,.02-.02.03-.02.05,0,0,0,.01,0,.01l-.03.05-.24-.1s0,0,0,0c.03-.03.04-.07.05-.12,0-.03.02-.07.03-.11,0,.01.02.02.03.04.03.04.06.09.07.13,0,0,0,.01.02.02.02,0,.06.01.08.02,0,0,0,0,0,0Zm-.31.06l.76.32s-.05.09-.09.14c-.03,0-.05-.01-.08-.02,0,0,0,0-.01,0-.08.03-.12.03-.23.05,0,0,0,0,0,0-.11-.01-.19-.04-.23-.1-.02-.07-.04-.13-.04-.22,0-.01-.01-.02-.03-.02,0,0,0,0,0,0-.01,0-.03.01-.03.03,0,.05.02.08.02.12,0,.02,0,.04.01.06.03.19.1.33.26.42,0,0,0,0,0,0,.01.01.03.03.04.04-.22.17-.43.29-.69.38,0,0-.01,0-.02,0,0-.07-.02-.14-.02-.22,0,0,.01,0,.02,0,0,0,.02,0,.02,0,.03,0,.06,0,.08-.02.02-.02.03-.04.03-.07,0-.02,0-.04-.02-.05-.02-.02-.05-.03-.09-.02-.01,0-.02,0-.04,0,.01-.3.1-.61.36-.82Zm-.09.03l-.1-.09s0,0,0,0c0,0,0,0,0,0,.02,0,.04-.02.05-.03l.08.08s-.03.03-.04.04Zm-.77-.04s0,0,0,0c.01,0,.03,0,.05-.01,0,0,.02-.01.02-.02,0-.02,0-.07.02-.16.04-.11.21-.18.3-.19.08,0,.13.03.15.1.01.05.06.1.11.12.02,0,.03,0,.04,0,0,.01.01.04,0,.06,0,.01-.02.01-.02.01,0,0-.01,0-.02,0-.02.01-.03.03-.03.05,0,.02,0,.02-.02.02,0,0,0,0,0,0-.05,0-.14,0-.16.09,0,.01-.02.02-.03.03-.01,0-.03.02-.04.04,0,0,0,.01,0,.02-.02.04-.04.07-.08.07-.01,0-.03,0-.04,0,0,0,0-.03,0-.07.01-.04,0-.08-.02-.11-.03-.03-.07-.03-.11-.02-.03.01-.05.03-.06.03,0,0-.01,0-.01,0,0,0,0,0-.01,0,0,0,0,0,0-.01h-.03s.01-.04.01-.05Zm.04.1s.03,0,.04,0c.01,0,.03-.02.05-.03.02,0,.04,0,.06,0,.01.01.02.03,0,.06-.01.04-.02.08,0,.11.01.02.04.02.06.02,0,0-.02.01-.03.02-.03.02-.06.06-.06.12h0s0,.04,0,.04c0,.05.01.1.02.16-.16-.03-.19-.12-.26-.33,0-.02-.01-.04-.02-.06.02,0,.04,0,.06,0,.05,0,.06-.06.06-.11Zm-.14.11s.01.04.02.06c.03.11.06.19.1.25-.07-.07-.12-.18-.17-.32,0,0,.01,0,.01,0h0s.02,0,.04,0Zm-.08-.01c.05.16.11.29.2.36-.11-.06-.19-.19-.25-.38.01,0,.02,0,.04.01,0,0,.01,0,.02,0Zm-.09-.03s0,0,0,0c.1.31.25.46.46.46,0,.05-.01.23-.02.29,0,.02-.01.06-.02.09,0,.03-.02.05-.02.08h0c0,.06-.03.15-.03.18-.02.08,0,.17.02.24,0,.03.01.05.02.07.01.12.06.12.19.13.16.01.23.03.36.05h.08s.07.03.09.07c.03.06.14.32.16.36.02.02.07.08.12.15l-.27.16s-.03-.03-.04-.04h0c-.08-.18-.15-.33-.2-.37-.06-.04-.19-.07-.36-.03-.01,0-.03,0-.05,0-.06,0-.15,0-.25-.02-.04,0-.1,0-.16,0-.07,0-.16.02-.19,0h-.02s-.05-.03-.05-.07c0-.02,0-.05,0-.08,0-.07.02-.15-.01-.26-.02-.07-.04-.14-.06-.2-.03-.08-.06-.16-.08-.26-.03-.11-.03-.25-.01-.43l.17-.09s.01.03.02.05c.04.09.08.18.15.21,0,0,0,0,0,0,0,0,0,0,.01,0,0,0,0-.01,0-.02-.06-.03-.1-.11-.13-.2,0-.02-.02-.04-.03-.06,0,0,0-.01,0-.02,0-.01-.02-.02-.03,0l-.2.11s0,0,0,0c0,0,0,0,0,0-.04.04-.14.1-.22.15-.11.06-.15.09-.16.12l-.02.03c-.06.1-.21.33-.32.48-.02.04-.09.17-.09.28l-.22.24s-.01-.02-.02-.02c0,0,0-.02,0-.03l.09-.09s0,0,0,0c0,0,0,0,0,0l-.09.09s-.01,0-.02,0c0,0-.01,0-.02,0,0,0,0-.01,0-.02,0,0,0,0,0,0l.08-.08s0,0,0,0c0,0,0,0,0,0l-.08.09s0,0-.01,0c0,0-.02,0-.03-.02,0,0,0-.01,0-.02l.09-.08s0,0,0,0c0,0,0,0,0,0l-.09.09s0,0-.01,0c0,0-.01-.01-.01-.02.01-.02.11-.12.21-.17,0,0,.01,0,.01-.02.04-.11.09-.2.14-.28.02-.04.05-.07.06-.11.05-.1.1-.17.15-.23.04-.05.07-.1.1-.15.05-.1.64-.62.79-.7,0,0,0,0,.01,0,.02-.01.05-.03.09-.03Zm-1.48,1.55s-.04.03-.06.05c-.04-.02-.08-.04-.09-.07,0-.02.05-.06.06-.07.03,0,.07.04.09.08Zm-.02-.09c.08-.09.16-.17.23-.24-.04.07-.1.16-.14.27-.02.01-.03.03-.05.04-.01-.03-.03-.05-.05-.07Zm-.6-.07c-.01-.13-.03-.34-.01-.36.02-.02.1.03.16.06.06.03.1.05.14.05,0,0,0,0,0,0,0,0,0,0,.01,0,0,0,0,0,0,0,.34-.23.64-.4.94-.54-.04.04-.08.09-.09.11-.03.05-.06.09-.1.14,0,0,0,.01-.01.02-.23.08-.8.54-1.04.84.01-.05,0-.14,0-.32Zm1.65-1.16c-.1.01-.27.04-.57.11.05-.04.11-.1.17-.16.07-.07.15-.17.18-.16.14,0,.36,0,.53-.01-.06.04-.18.13-.31.23Zm-.64.12s-.09-.02-.14-.06c-.03-.03-.07-.05-.11-.07l.46-.07c-.08.08-.16.18-.21.19Zm-.45.14c0,.06,0,.14,0,.16-.01.01-.06-.01-.09-.03-.03-.02-.07-.04-.1-.05l.2-.09s0,0,0,.01Zm-.29.12s.11,0,.17.03c.04.02.08.04.11.03,0,0,0,0,0,0,0,0,0,0,0,0,.24-.13.56-.19.85-.24,0,0,0,0,.02,0-.05.04-.09.09-.13.12-.32.14-.63.32-.98.56,0-.04,0-.09-.02-.18-.03-.12-.06-.28-.02-.32Zm-.01.33c.02.07.04.17.03.19-.01.01-.09-.03-.13-.05-.05-.03-.1-.05-.14-.06l.23-.12s0,.03,0,.05Zm-.3.41s0,.03,0,.05c.01.13.03.32.01.34-.02.01-.1-.01-.16-.03-.07-.02-.14-.03-.19-.03l.33-.34Zm-.16.39c.09.03.15.04.18.03,0,0,0,0,0,0,0,0,0,0,0,0,0,0,0,0,0,0,0,0,0,0,0,0,0,0,0,0,0,0,.21-.28.76-.72,1.01-.84-.04.05-.07.1-.11.17,0,.02-.02.03-.03.05-.1.09-.2.19-.3.3-.01,0-.03-.02-.04-.02-.03,0-.06.03-.07.05-.02.02-.04.05-.03.07,0,.01.02.03.03.04-.08.1-.15.2-.21.3,0,0,0,0,0,0l-.12.06c-.11,0-.47-.12-.53-.2,0,0,0-.02,0-.02.02-.04.12,0,.2.02Zm.67-.14s.03.02.04.03c-.01.02-.04.04-.04.04-.01.02-.01.04,0,.06,0,.01.02.02.03.03,0,0,0,0,0,.02,0,.01.02.02.04.03,0,0,0,0,0,.01,0,.01.02.02.04.03,0,0,0,.02,0,.02,0,.01.02.01.03.02-.14,0-.32,0-.36,0,.05-.09.12-.19.19-.28Zm.21.3s.01,0,.01,0l.23-.26s.02,0,.02.02c0,0,0,0,0,0l-.24.27s-.02,0-.02,0c0,0-.01-.01,0-.02h0Zm.17-.08l.72.65s0,0,0,0c0,0,0,0,0,0,0,0,0,0,0,0l-.72-.65.03-.04.75.65.02.12h-.12s-.73-.68-.73-.68l.03-.04Zm1.05,2.99s.03-.1.05-.15c0,0,.01,0,.01,0,.01.01.02.03.02.03,0,.06-.01.09-.03.12-.03,0-.05,0-.08.01,0,0,.02,0,.03-.01Zm.58-.07s-.03-.02-.04-.03c-.05-.04-.09-.07-.12-.14,0,0,0,0,0,0l-.07-.05c-.06-.05-.12-.09-.16-.12.04-.03.09-.05.17-.03.07.06.26.11.45.09-.1.08-.18.15-.18.2-.03.02-.03.05-.04.08Zm-3.05-2.06c0-.32.06-.64.15-.95,0,0,0,0,0,.01.07.1.44.22.55.22,0,0,0,0,0,0l.12-.06c.06.01.29.01.39,0,0,.01,0,.03,0,.04.02.02.06.02.08,0l.05-.06.3.28c-.13.11-.23.23-.28.33-.11.03-.27.06-.52-.03-.1-.04-.24-.01-.34.06-.11.08-.18.2-.2.34-.03.26.16.42.23.49.07.06.04.17,0,.22-.04.07-.08.28,0,.35h0c.06.06.11.12.1.19-.01.05-.03.17.03.19.02,0,.05,0,.09-.05.05-.07.11-.11.16-.15.01,0,.02-.02.03-.02.02-.02.04-.05.05-.09.01-.06,0-.16-.03-.21-.01-.04-.01-.05-.01-.07,0-.01,0-.02,0-.04.12-.12.24-.24.11-.38-.11-.13-.23-.23-.32-.29-.05-.03-.06-.13-.02-.19.07-.12.2-.08.24-.06.11.04.31.03.4,0,.12.19.3.38.51.51,0,0,0,0,.01.01.01.01.02.02,0,.08-.04.13-.16.33-.2.38-.03.03-.04.08-.03.12,0,.03.02.05.04.05.02,0,.15.12.21.17.03.03.06.05.08.07.04.04.15.16.22.25-.03.07-.04.14-.03.19-.17.03-.27.1-.33.2l-.78-.16s-.06,0-.09.03c-.02.02-.03.06-.03.09,0,.03.03.05.06.06l.56.11c-.18.02-.36.04-.54.07-.65-.54-1.07-1.35-1.07-2.31Zm1.15,2.37c.22-.03.45-.05.67-.08h0c0,.11.02.19.13.21.06.02.13.02.19.03.04,0,.1,0,.1.01,0,.02-.06.05-.13.07-.09.03-.11.13-.13.19,0,0,0,.02,0,.02,0,0,0,0,0,.01-.31-.1-.59-.26-.84-.46Zm2.17.6c-.45.05-.88,0-1.27-.12.03,0,.05-.02.09-.04,0,0,.02-.01.02-.02.01-.01.02-.02.07-.03.02,0,.03,0,.05,0,.07,0,.15,0,.2-.05.01-.01.08-.08.09-.18,0-.04,0-.08-.03-.11l1.37.27s0,0,.01,0c.03,0,.07-.03.09-.04,0,0,0,0,.01-.01,0,0,0-.01,0-.02,0-.01-.04-.07-.07-.07l-1.61-.33c.23-.03.46-.06.7-.09,0,.04.01.08.03.1.03.03.07.05.11.04.03,0,.11,0,.19,0,.21.01.36.02.42,0,.1.03.29-.03.36-.06.01,0,.02-.02.02-.03,0-.01,0-.02-.02-.02,0,0-.02,0-.03,0-.08,0-.1-.02-.1-.02,0-.03.07-.09.13-.11,0,0,0,0,0,0,.45-.04.9-.08,1.35-.11-.58.57-1.34.97-2.17,1.06Zm2.54-1.57s-.04-.02-.05-.02c0,0,0-.01,0-.02,0-.03,0-.07-.01-.1.02-.03.06-.07.09-.11.04-.04.07-.08.09-.11.02-.03.03-.05.05-.08.02-.03.04-.07.06-.09.02-.02.07-.07.09-.06h.02s.02.01.03.02c0,0,0,0,.02,0,0,0,.02,0,.03-.01.02-.02.03-.05.02-.08,0-.02-.01-.04-.05-.05,0,0,0,0,0,0-.01,0-.03,0-.04,0,0,0-.02,0-.03,0,0-.01-.02-.03-.03-.04-.03-.02-.08-.02-.12,0-.06.03-.14.12-.23.26-.05.09-.17.21-.33.27,0-.06-.04-.11-.07-.13,0-.06-.05-.12-.12-.18-.05-.05-.11-.11-.11-.14,0,0,0,0,0-.01.04-.03.08,0,.16.06.07.05.14.11.24.11.12-.01.2-.1.27-.17.05-.05.1-.1.15-.11.04-.01.07,0,.14.03l.05.02c.08.03.16.02.19-.02,0,0,.01-.02.02-.04-.13.32-.29.62-.5.89,0-.03,0-.05-.02-.07Z"/><path class="cls-2" d="m268.39,135.34s-.04-.05-.06-.07c-.18.11-.5.24-.66.29-.01,0-.02,0-.03,0s-.01-.02-.01-.03c.01-.16.05-.39.1-.56-.04,0-.06.01-.09.01-.02.21-.09.53-.17.71.01.02.03.04.05.06.22-.14.59-.3.86-.41Z"/><path class="cls-2" d="m268,136.12s.07.03.1.04c.15-.19.34-.41.48-.55-.01-.03-.02-.05-.04-.08-.15.18-.36.4-.55.58Z"/><path class="cls-2" d="m267.09,134.96c-.02.76.6,1.42,1.37,1.46l.18-.2-.15-.13-.14.18s-.02.02-.03.02c-.14,0-.29-.03-.45-.12-.39-.21-.66-.63-.61-.95.02-.12.08-.21.18-.26.16-.09.41-.06.65.07.37.2.64.6.62.91l.15-.02s-.02-.08-.03-.12c-.22-.74-.99-1.18-1.73-.99,0,.06-.01.11-.01.17Z"/><path class="cls-1" d="m267.45,143.08s-.04.07-.05.11c.18.14.37.3.49.43.03-.02.06-.03.09-.05-.17-.14-.36-.32-.53-.49Z"/><path class="cls-1" d="m268.2,143.4s.05-.04.07-.07c-.09-.17-.19-.48-.22-.63,0-.01,0-.02,0-.03,0,0,.02-.01.03-.01.16,0,.39.01.55.04,0-.04,0-.06,0-.09-.21,0-.52-.04-.69-.09-.02.02-.04.04-.06.05.12.21.24.57.32.83Z"/><path class="cls-1" d="m268.71,142.05c-.76.06-1.48.75-1.6,1.53l.18.17.15-.16-.16-.12s-.01-.02-.01-.03c0-.14.07-.3.17-.46.25-.42.7-.74,1.01-.72.12,0,.2.06.25.16.07.16.02.4-.13.66-.24.4-.67.71-.97.72v.15s.08-.03.12-.04c.76-.3,1.28-1.13,1.17-1.85-.05,0-.11,0-.17,0Z"/><path class="cls-1" d="m260.55,143.27s-.07-.03-.1-.04c-.15.19-.34.41-.48.55.01.03.02.05.04.08.15-.18.36-.4.55-.58Z"/><path class="cls-1" d="m260.15,144.05s.04.05.06.07c.18-.11.5-.24.66-.29.01,0,.02,0,.03,0,0,0,.01.02.01.03-.01.16-.05.39-.1.56.04,0,.06-.01.09-.01.02-.21.09-.53.17-.71-.01-.02-.03-.04-.05-.06-.22.14-.59.3-.86.41Z"/><path class="cls-1" d="m261.45,144.43c.02-.77-.6-1.42-1.37-1.46l-.18.2.15.13.14-.18s.02-.01.03-.02c.14,0,.29.03.45.12.39.21.66.63.61.95-.02.12-.08.21-.18.26-.16.09-.41.06-.65-.07-.37-.2-.64-.6-.62-.91l-.15.02s.02.08.03.12c.22.74.99,1.18,1.73.99,0-.06.01-.11.01-.17Z"/><path class="cls-2" d="m261.09,136.31s.04-.07.05-.11c-.18-.14-.37-.3-.49-.43-.03.02-.06.03-.09.05.17.14.36.32.53.49Z"/><path class="cls-2" d="m260.35,135.99s-.05.04-.07.07c.09.17.19.48.22.63,0,.01,0,.02,0,.03,0,0-.02.01-.03.01-.16,0-.39-.01-.55-.04,0,.04,0,.06,0,.09.21,0,.52.04.69.09.02-.02.04-.04.06-.05-.12-.21-.24-.57-.32-.83Z"/><path class="cls-2" d="m259.83,137.34s.02,0,.03,0c.75-.08,1.45-.76,1.57-1.53l-.18-.17-.15.16.16.12s.01.02.01.03c0,.14-.07.3-.17.46-.25.42-.7.74-1.01.72-.12,0-.2-.06-.25-.16-.07-.16-.02-.4.13-.66.24-.4.67-.71.97-.72v-.15s-.08.03-.12.04c-.76.3-1.28,1.13-1.17,1.85.05,0,.11,0,.17,0Z"/><path d="m266.33,136.3l.3.18s-.02.19-.13.24l.22.17c-.02-.17.02-.42.02-.42l.09-.63-.57.38s-.2.14-.35.17l.22.09c.02-.1.2-.19.2-.19Zm.37-.25l-.04.36-.27-.16.31-.2Z"/><path d="m265.53,136.03c-.1.07-.25.04-.44,0,.04-.27.12-.58.21-.73l-.22-.03c.02.18-.1.56-.21.85.2.02.41.06.6.11l.06-.21Z"/><path d="m264.28,136.14l-.02-.21c-.07.09-.22.13-.42.17-.06-.25-.1-.56-.06-.73l-.22.06c.08.16.11.54.11.83.2-.05.42-.1.62-.12Z"/><path d="m267.81,139.55l-.02.19c.11-.04.36-.01.36-.01v.08s-.26.23-.26.23c-.03.03-.23.23-.24.36,0,.04.03.03.04,0,.09-.15.29-.3.46-.43.02.12.11.19.22.19.11,0,.23-.1.25-.17.03-.09.07-.44.07-.44-.22.04-.71.05-.88,0Zm.77.17c-.02.21-.09.29-.2.29-.1,0-.2-.05-.17-.28.1-.01.31-.02.37,0Z"/><path d="m267.4,141.01l-.13.24c.1-.03.25.04.36.1.04.1.19.35.18.6l.17-.31c-.08-.03-.16-.05-.22-.32.23-.11.39-.15.47-.12l.15-.27c-.18.12-.59.28-.66.26-.07-.03-.27-.08-.32-.18Z"/><path d="m268.46,138.44c-.22.09-.64.18-.72.16l.04.22c.06-.09.47-.2.71-.25,0,0,.05.21,0,.28v.04s.17-.04.17-.04c.01-.12-.06-.58-.13-.74l-.16.04v.05c.07.02.07.11.09.23Z"/><path d="m260.73,139.88l.02-.19c-.11.04-.36.01-.36.01v-.08s.26-.23.26-.23c.03-.03.23-.23.23-.36,0-.04-.03-.03-.04,0-.09.15-.28.3-.46.44-.02-.12-.12-.19-.22-.19-.11,0-.23.11-.25.17-.03.09-.06.45-.06.45.22-.04.71-.05.88,0Zm-.77-.17c.02-.21.09-.29.19-.29.1,0,.21.05.18.28-.1.01-.31.02-.37,0Z"/><path d="m261.39,137.86c.18-.1.27-.29.34-.46-.06-.01-.23-.14-.27-.24l-.16.19c.1-.01.25.16.25.22,0,.07-.14.2-.23.23-.09.03-.2.01-.31-.06-.11-.07-.14-.18-.14-.27,0-.16.24-.37.43-.4l-.13-.13c0,.1-.21.18-.33.31-.1.13-.17.43,0,.57.17.14.36.13.55.02Z"/><path d="m260.81,140.82c-.05-.27-.26-.4-.53-.32-.27.08-.4.32-.36.57.05.25.28.41.53.34.25-.07.4-.32.35-.59Zm-.79.23c-.03-.14.09-.33.31-.4.21-.06.39.02.42.19.03.16-.1.34-.32.4s-.39-.06-.41-.19Z"/><path d="m262.41,136.88c-.08-.05-.06-.25-.06-.25l.33-.21s.15.08.14.2l.28-.14c-.16-.04-.36-.17-.36-.17l-.51-.3.03.65s.01.23-.04.38l.2-.16Zm.21-.5l-.29.19v-.35s.29.17.29.17Z"/><path d="m267.13,137.33c.05-.13.49-.37.49-.37l-.16.86.03.04c.26-.19.61-.4.8-.39l-.1-.18c-.07.08-.34.25-.51.34l.19-.88-.03-.05c-.2.15-.64.46-.79.48l.09.16Z"/><path d="m260.98,142.18c-.1-.1-.13-.19-.13-.25-.02,0-.09.05-.15.1.05.03.11.11.19.21l-.25.19s-.17-.22-.17-.33c-.03.01-.09.06-.14.1.07.05.21.27.31.44.15-.17.65-.53.76-.56l-.1-.15c-.08.11-.31.26-.31.26Z"/><path d="m266.38,142.67c-.1.01-.18.1-.18.2s.08.17.18.16c.1-.01.18-.1.18-.2s-.08-.17-.18-.16Z"/><path d="m262.16,143.12c-.1.01-.18.1-.18.2s.08.17.18.16.18-.1.18-.2-.08-.17-.18-.16Z"/><path d="m264.72,143.48s-.06-.02-.1,0c0-.01.03-.05.02-.08-.01-.08-.08-.09-.12-.11-.04-.03-.08-.08-.16-.06-.03,0-.06.04-.07.05.01-.04-.01-.09-.03-.09-.02,0-.05.05-.03.09,0,0-.03-.04-.07-.04-.08,0-.11.06-.16.09-.04.03-.11.06-.12.14,0,.03.01.07.02.07-.03-.02-.09,0-.1.01,0,.02.03.06.07.05-.01,0-.05.03-.06.06-.04.08.01.12.03.17.02.05,0,.11.08.15.03.01.07,0,.08,0-.03.03-.04.08-.03.09.02.01.07-.02.08-.06,0,.01,0,.05.03.07.06.05.12.02.17.01.05,0,.11.02.17-.05.02-.03.03-.07.03-.08.01.04.06.06.08.04.02-.01,0-.07-.03-.09.01,0,.05,0,.08-.01.07-.05.06-.11.08-.16.02-.05.06-.11.03-.17-.01-.03-.05-.04-.06-.04.04,0,.08-.05.07-.07Zm-.38-.16c.07-.05.11,0,.15.03.04.02.11.04.09.12-.01.04-.04.06-.06.08,0-.03,0-.05-.04-.07-.02,0-.04,0-.05,0,.02-.02.03-.05.02-.06-.01,0-.04.01-.05.04,0,0,0-.03-.02-.04-.03-.02-.06-.02-.08,0,0-.03.01-.06.05-.09Zm.1.42s-.03.06-.05.08-.05.05-.08.03c-.03-.02-.02-.06-.04-.06s0,.04-.04.07c-.04.03-.06,0-.08-.01s-.06-.02-.05-.07c.01-.04.05-.04.05-.06,0-.01-.04.01-.07,0-.03-.02-.01-.06,0-.08,0-.02,0-.07.05-.07.04,0,.05.03.07.02s-.02-.03,0-.07c.02-.04.06-.03.08-.04.02,0,.06-.02.08.02.01.03-.02.07,0,.07.01,0,.03-.03.07-.04.04,0,.04.04.05.06,0,.02.03.05,0,.08-.03.03-.07,0-.07.02,0,.02.04.01.05.05Zm-.38-.35s.08-.1.15-.06c.03.02.04.05.05.08-.03,0-.06,0-.08.03-.01.01-.02.04-.02.05,0-.02-.04-.03-.05-.03-.01,0,0,.04.02.05,0,0-.03,0-.05,0-.03.02-.04.05-.04.08-.02-.01-.05-.03-.06-.06-.02-.08.05-.11.09-.14Zm-.04.54c-.08,0-.08-.07-.1-.11-.01-.04-.06-.1,0-.16.03-.03.06-.03.09-.03-.01.03-.03.05,0,.09,0,.02.03.02.04.02-.02,0-.05.03-.04.04,0,.01.04.01.06,0,0,0-.02.03-.01.05,0,.04.03.05.06.06-.02.02-.05.04-.08.05Zm.25.1s-.12.04-.15-.04c-.01-.04,0-.07,0-.09.02.02.04.04.08.03.02,0,.04-.02.04-.03,0,.03,0,.05.02.05s.03-.03.02-.06c0,0,.02.02.04.02.04,0,.06-.02.08-.04.01.02.02.05,0,.09-.03.08-.1.06-.15.07Zm.35-.29s-.01.12-.1.13c-.04,0-.07-.02-.09-.03.02-.02.05-.03.06-.07,0-.02,0-.04-.01-.05.02.01.05,0,.06,0,0-.01-.02-.03-.04-.03,0,0,.03-.01.04-.03.02-.04,0-.06,0-.09.03,0,.06-.01.09.01.06.04.02.11,0,.16Z"/><path d="m264.2,143.68s.03.07.07.06c.04,0,.07-.04.07-.08s-.03-.07-.07-.06c-.04,0-.07.04-.07.08Z"/><path class="cls-2" d="m266.72,141.47s-.04.04-.06.06c-.05.05-.1.1-.21.17,0,0,0,0,0,0,0,.01,0,.04.03.06.01.01.04.03.07.03.04,0,.21-.22.22-.26,0-.04,0-.04,0-.04-.01,0-.04-.01-.05-.01,0,0,0,0,0,0Z"/><path class="cls-2" d="m266.31,140.76c.06.05.13.1.21.1.09-.01.16-.08.23-.15.06-.06.11-.11.18-.13.06-.01.1,0,.17.03l.05.02c.07.02.12.01.13,0,0-.01.04-.05.03-.08,0,0-.02-.03-.05-.05-.15-.07-.28-.19-.35-.32-.02-.04-.03-.08-.04-.11,0-.02,0-.04-.01-.05-.02-.02-.04-.03-.06-.04-.03-.01-.08-.03-.12-.09,0-.01-.01-.02-.02-.03,0-.01-.02-.02-.03-.04-.02.01-.05.03-.07.03-.02,0-.04,0-.06,0-.04.03-.07.06-.09.08,0,.02.01.03.02.05,0,.01.02.03.02.05.01.03.03.04.04.05.01,0,.02.02.02.04,0,0,0,0,0,0,.04.06.05.13.01.16,0,0-.02.02-.04.02-.02,0-.04,0-.07-.02h0c-.07-.04-.16-.1-.22-.15,0,.01,0,.02,0,.03,0,0,0,0,0,.01,0,0,0,0,.03.05.03.03.07.06.1.08.1.09.17.15.11.21-.03.04-.09,0-.15-.03-.09-.05-.21-.13-.32-.05-.05.04-.09.1-.11.19-.03.11-.01.23.03.3,0,0,0,.02,0,.03s-.01.01-.02.01c-.01,0-.03,0-.05,0,.05.03.1.05.12.09.03.05.01.1-.01.13-.01.02-.03.03-.04.02-.07,0-.17.13-.21.23,0,0,0,.01-.01.01,0,0,0,0,0,0,0,0-.01,0-.01,0-.04-.1-.1-.08-.19-.06-.01,0-.02,0-.04,0,0,0-.01,0-.01,0,0,0,0,0,0-.01,0-.04,0-.08-.02-.11,0,0,0,0,0-.01,0,0,0,0,0,0-.04-.05-.11-.08-.22-.08,0,0-.01,0-.01,0,0,0,0-.01,0-.02,0,0,0,0,0,0,0-.01-.01-.02-.02-.04-.07.02-.13.04-.2.06,0,.01.02.03.03.04,0,0,0,.02,0,.02,0,0-.01.01-.02.01l-.39.03s-.08.02-.1.02c-.23.03-.46.18-.53.22,0,0,0,0-.01,0-.03,0-.07,0-.1,0-.11,0-.22.02-.32.05.04.05.08.09.09.12,0,0,.02.01.02.02.05-.05.12-.07.22-.05,0,0,0,0,.01,0,.06.06.3.12.51.07.01,0,.02,0,.03.01,0,.01,0,.02-.01.03-.22.16-.24.21-.24.22,0,0,0,.01,0,.02,0,0,0,.01-.02.02-.05.02-.05.08-.05.08,0,.04,0,.07.03.09.02.02.05.03.08.03.03,0,.1,0,.19,0,.13,0,.36.02.4,0,0,0,.02,0,.02,0,.05.02.15,0,.22-.02-.04,0-.07-.02-.07-.06,0-.05.06-.11.12-.14-.07-.01-.12-.02-.12-.09,0-.03.02-.05.03-.06-.04.01-.09.03-.12.04-.03.01-.05.02-.07.02,0,0,0,0-.01,0-.04,0-.14.01-.24.03-.08.01-.16.03-.22.04-.01,0-.02,0-.03-.02,0-.01,0-.03.02-.03.31-.11.4-.21.42-.27.01-.04,0-.08-.03-.13-.06-.08-.3-.09-.43-.09-.01,0-.03-.01-.02-.02,0-.01.01-.03.03-.03.13,0,.39,0,.47.1.05.06.06.12.04.17-.03.08-.11.15-.26.22,0,0,.01,0,.02,0,.11-.02.2-.04.25-.03.02,0,.04-.01.07-.02.09-.03.19-.07.25-.05.01,0,.02.01.02.02,0,.01,0,.02-.01.03,0,0-.01,0-.02.01-.03.01-.08.04-.08.07,0,.03,0,.03.08.04h.01s.36-.03.36-.03c0,0,0,0,0,0,.09,0,.19-.05.28-.08.05-.02.11-.04.16-.06.03-.01.11-.06.13-.08-.03-.1-.15-.1-.29-.1-.05,0-.11,0-.16,0-.01,0-.02-.01-.02-.03,0-.01.02-.02.03-.02.05,0,.1,0,.15,0,.15,0,.31-.02.35.14,0,0,0,0,0,0,0,.02.01.03.01.03,0,0,.02,0,.03-.01.05-.02.17-.1.2-.15,0,0,0,0,0,0,0,0,0,0,0,0,.14-.08.27-.18.4-.31.02-.03.06-.08.1-.12.04-.04.07-.08.09-.11.02-.02.03-.05.05-.08.02-.04.04-.08.07-.1.04-.04.1-.09.14-.08h.02s.01.01.02.01c0,0,0-.01,0-.02,0,0,0-.01-.02-.02-.02,0-.04,0-.05-.01,0,0-.02,0-.02,0,0,0-.01,0-.02,0-.08.04-.12.09-.16.15-.03.05-.07.09-.13.13,0,0,0,0,0,0,0,0,0,0-.01,0,0,0,0-.01,0-.02.05-.04.09-.08.12-.13.04-.06.08-.11.17-.15,0,0,0,0,0,0,0,0,0-.01-.02-.02-.02,0-.05-.01-.07,0-.04.02-.1.08-.21.24-.05.1-.2.25-.39.31,0,0-.02,0-.02,0,0,0,0-.01,0-.02,0-.05-.03-.12-.06-.13,0,0-.01-.02,0-.03.01-.03-.06-.1-.1-.14-.06-.06-.13-.13-.12-.18,0-.02.01-.04.03-.05.07-.06.14,0,.22.06Zm.5-.75s.03.03.03.05c0,.02,0,.04-.01.05,0,0,0,0,0,0,0,0-.01,0-.02,0,0,0,0,0,0,0-.02,0-.05-.01-.07-.03-.02-.03-.03-.07-.01-.09.02-.02.05-.02.09,0Zm-.24.37s.07-.04.11-.04c.04,0,.06.02.08.03.03.02.05.03.08.02,0,0,.01,0,.01,0,0,0,0,.01,0,.01-.05.01-.08,0-.1-.02-.02-.01-.04-.02-.07-.03-.04,0-.07,0-.1.03-.02.02-.03.04-.03.06,0,.05.05.08.09.08.02,0,.04,0,.06-.02.03-.01.08-.03.15-.03,0,0,.01,0,.01.01,0,0,0,.01-.01.01-.06,0-.1.01-.14.03-.02,0-.04.01-.06.02,0,0,0,0,0,0-.06,0-.11-.04-.11-.1,0-.03.01-.06.04-.08Z"/><path class="cls-2" d="m266.8,140.1s0,0,0,0c0,0,0-.02,0-.03,0-.01,0-.03-.02-.04-.01,0-.03-.02-.04-.02,0,0,0,0-.01,0,0,.01,0,.04.01.06.01.01.04.02.05.02Z"/><path class="cls-2" d="m266.53,139.84s.06,0,.08-.02c0,0,0-.02-.02-.02-.02.01-.04.03-.07.04Z"/><path class="cls-2" d="m266.32,140.13s-.1-.05-.13-.05c0,0,0,.02,0,.03.06.05.17.11.24.16h0s.05.02.07.01c.01-.01,0-.06-.02-.1-.02.01-.04.02-.06.02-.03,0-.07-.03-.1-.07Z"/><path class="cls-2" d="m266.38,141.68s.03,0,.05,0c0,0,.02,0,.02,0,.1-.06.15-.11.2-.16.02-.02.04-.04.06-.06,0,0,0,0,0,0,0-.01,0-.03,0-.04,0-.02,0-.04,0-.06-.11.11-.23.2-.35.28,0,.02.01.04.03.05Z"/><path class="cls-2" d="m262.93,142.49c.06.02.12.02.18.02.09,0,.15,0,.15.06,0,.07-.11.11-.17.12-.05.02-.08.1-.09.15,0,0,0,0,0,0,0,0,0,0,0,0,.01,0,.04,0,.08-.03,0,0,.01,0,.02-.01.02-.02.04-.03.1-.04.02,0,.04,0,.06,0,.06,0,.13,0,.16-.03.01,0,.06-.06.07-.14,0-.04-.02-.09-.05-.13l-.59-.11c0,.09.02.13.1.15Z"/><path class="cls-2" d="m262.87,142.17l.25.05s.06-.02.11-.02c.07,0,.13-.02.17-.07.03-.03.03-.08.04-.13-.07,0-.14-.05-.16-.13,0-.01-.02-.04-.04-.07-.02.06-.02.12-.01.17,0,0,0,.02,0,.02,0,0-.01.01-.02.01-.12.01-.26.06-.32.16Z"/><path class="cls-2" d="m265.6,141.2c-.06.06-.12.12-.16.17.03,0,.05-.01.07-.02.05,0,.09,0,.12.06.03-.07.1-.14.16-.18,0,0,0,0,0,0,.02-.01.04-.04.06-.04,0,0,.01-.01.02-.03,0-.02.01-.04,0-.07-.03-.05-.09-.08-.15-.11-.03-.02-.07-.04-.09-.06-.1-.08-.07-.19-.05-.26,0-.02,0-.04,0-.05,0-.11-.23-.19-.36-.23-.05-.02-.1-.03-.12-.05-.24-.03-.53-.07-.62-.06,0,0,0,0,0,0-.12.02-.29.07-.3.1,0,.01,0,.02,0,.03.02.01.05,0,.09,0,.05,0,.11-.01.14.03.03.07.02.14-.04.2.31-.09.7-.06.91-.04.06,0,.11,0,.13,0,0,0,.02,0,.01.02,0,0,0,.02-.02.02,0,0,0,0,0,0-.02,0-.07,0-.13,0-.19-.01-.52-.04-.8.02.08,0,.15,0,.17.04.04.06.03.11.02.18.23-.08.47-.1.65-.11.04,0,.09,0,.12,0,0,0,.02,0,.02.01,0,0,0,.02-.02.02h0s-.08,0-.12,0c-.15.01-.34.03-.52.08.05,0,.1,0,.12.03.03.04,0,.09-.01.12,0,0,0,.01,0,.02.19-.06.43-.12.57-.12,0,0,.02,0,.02.01,0,0,0,.02-.02.02,0,0,0,0,0,0-.13,0-.33.06-.51.11.04,0,.09,0,.11.01.04.03.07.06.07.09.08-.04.23-.11.37-.15,0,0,.02,0,.02.01,0,0,0,.02-.01.02-.13.04-.27.1-.35.14.07,0,.12.03.15.07,0,0,0,0,0,0,0,0,.03,0,.04.02.02.03.03.07.03.11.04-.05.1-.12.17-.18.03-.03.05-.05.08-.08,0,0,.02,0,.02,0,0,0,0,.02,0,.02-.02.02-.05.05-.08.08Z"/><path d="m266.64,140.56s0,0,0,0c.02,0,.04,0,.06-.02.03-.01.07-.03.14-.03,0,0,.01,0,.01-.01,0,0,0-.01-.01-.01-.07,0-.11.02-.15.03-.02,0-.04.01-.06.02-.04,0-.09-.03-.09-.08,0-.02.01-.04.03-.06.02-.02.06-.03.1-.03.03,0,.05.01.07.03.03.02.05.03.1.02,0,0,.01,0,0-.01,0,0,0,0-.01,0-.04,0-.06,0-.08-.02-.02-.01-.04-.03-.08-.03-.04,0-.08,0-.11.04-.02.02-.04.05-.04.08,0,.06.05.1.11.1Z"/><path d="m266.8,140.13s0,0,0,0c.01,0,.02,0,.02,0,0,0,0,0,0,0,0-.01.01-.03.01-.05,0-.02-.01-.04-.03-.05-.04-.03-.07-.03-.09,0-.02.02,0,.06.01.09.02.02.05.03.07.03Zm-.05-.11s.03,0,.04.02c.02.01.02.03.02.04,0,.01,0,.02,0,.03,0,0,0,0,0,0-.01,0-.04,0-.05-.02-.02-.02-.02-.05-.01-.06,0,0,0,0,.01,0Z"/><path class="cls-2" d="m264.37,138.66h-.03s0,.03,0,.04c0,0,.02-.01.03-.02v-.02Z"/><path class="cls-2" d="m264.31,137.54s0,0,0,0c-.01,0-.02,0-.03,0,0,0-.01,0-.02.02,0,.01,0,.02,0,.03,0,0,0,0,0,0,0,0,0,0,0,0,0,0,0,0,0,0l.16.03s.01-.03.02-.05l-.13-.03Z"/><polygon class="cls-2" points="264.33 138.08 264.34 138.08 264.34 138.08 264.33 138.08"/><path class="cls-2" d="m264.37,138.39s0,0,0-.01l-.06.02s0,0,.01,0c.02,0,.04,0,.05-.01Z"/><path class="cls-2" d="m264.24,138.17s0,0,0,0c0,0,0,0,0,0l.1-.02s0,0,0,0c-.04,0-.08,0-.11.02,0,0,0,0,0,0Z"/><path class="cls-2" d="m264.27,138.39s0,0-.01,0c0,0,0,0,0,0,0,0,0,0,0,0,0,0,0,0,0,0s0,0,0,0h0Z"/><path class="cls-2" d="m264.52,137.21s0,.05-.01.07l.03.02v-.07s-.02-.02-.02-.02Z"/><path class="cls-2" d="m264.25,138.19s0,.04,0,.06l.09-.02s0-.04,0-.05l-.1.02Z"/><path class="cls-2" d="m264.38,137.75s0-.04,0-.05l-.14-.02s-.02.01-.02.03c0,.01,0,.02,0,.03,0,0,0,0,0,0h0s0,0,0,0,0,0,0,0h.14Z"/><path class="cls-2" d="m264.22,138.05s0,0,0,0c.02,0,.04,0,.06-.02h-.06Z"/><path class="cls-2" d="m264.35,138.24l-.09.02s0,.04,0,.06l.1-.03s0-.04,0-.05Z"/><path class="cls-2" d="m264.22,137.89s0,0,0,0c0,0,0,0,0,0,0,0,0,0,0,0s0,0,0,0h.14s0-.04,0-.06h-.14s-.01.01-.01.03c0,.01,0,.02,0,.03Z"/><path class="cls-2" d="m264.22,137.96s0,0,0,0c0,0,0,0,0,0t0,0h.13s0-.05,0-.07h-.14s-.01.02-.01.04c0,.01,0,.02,0,.03Z"/><path class="cls-2" d="m264.35,137.96h-.13s-.01.03-.01.05c0,.01,0,.02,0,.02,0,0,0,0,0,0,0,0,0,0,0,0h0s.12-.02.12-.02c0-.02,0-.04,0-.05Z"/><path class="cls-2" d="m264.26,137.6s-.02.01-.02.03c0,.01,0,.02,0,.03,0,0,0,0,0,0,0,0,0,0,0,0,0,0,0,0,0,0l.15.02s.02-.03.02-.05l-.15-.03Z"/><path class="cls-2" d="m264.22,137.81s0,0,0,0c0,0,0,0,0,0s0,0,0,0,0,0,0,0h.14s0-.04,0-.05h-.14s-.01,0-.02.03c0,.01,0,.02,0,.03Z"/><path class="cls-2" d="m264.4,137.41s0,0,0,.01c0,0,0,.01-.01.02,0,0-.01.01-.02.01,0,0,0,0,0,0l.11.04s.01-.03.02-.05l-.1-.04Z"/><path class="cls-2" d="m264.35,137.47s0,0,0,0c0,.02,0,.03-.02.04,0,0,0,0-.01,0l.12.03s.01-.03.02-.05l-.11-.04Z"/><path class="cls-2" d="m264.54,137.31l-.03-.02v.03s-.01.02-.02.03l.04.02s0,0,0,0v-.05Z"/><path class="cls-2" d="m264.46,137.36s-.03,0-.05,0h0s0,0,0,0c0,.02,0,.02-.01.03l.1.04s.01-.03.02-.05l-.06-.03Z"/><path class="cls-2" d="m264.32,138.6h0s0,.02,0,.03c0,.01,0,.02.01.02,0,0,0,0,0,0,0,0,0,0,0,0,0,0,0,0,0,0h.03s0-.07,0-.07l-.06.02Z"/><path class="cls-2" d="m264.38,138.51l-.08.03s0,.02,0,.03c0,.01,0,.02.01.02,0,0,0,0,0,0,0,0,0,0,0,0,0,0,0,0,0,0,0,0,0,0,0,0l.06-.02v-.03s0-.02,0-.03Z"/><path class="cls-2" d="m264.36,138.31l-.1.03s0,.03,0,.03c0,0,0,0,0,0,0,0,0,0,0,0,0,0,.02.01.03.02l.09-.02s0-.04,0-.05Z"/><path class="cls-2" d="m264.29,138.49s0,0,0,0c0,0,0,0,0,.01,0,.01,0,.02.01.02,0,0,0,0,0,0h0s0,0,0,0c0,0,0,0,0,0l.08-.03s0,0,0-.01c-.01,0-.02,0-.03,0-.02,0-.04,0-.05,0Z"/><path class="cls-2" d="m264.52,137.19s0,0,0,0l.03.02v-.07s0,.04-.03.05Z"/><path class="cls-2" d="m264.97,137.09s-.05-.09-.07-.13c0-.01-.02-.03-.03-.04-.02.04-.03.08-.03.11-.01.05-.02.09-.05.12,0,0,0,0,0,0l.24.1.03-.05s0,0,0-.01c0-.01.01-.03.02-.05,0,0,0-.01,0-.02,0,0,0,0,0,0-.03,0-.06-.01-.08-.02,0,0-.01,0-.02-.02Z"/><path class="cls-2" d="m264.86,141.2s-.01-.01-.02-.02c-.01-.01-.02-.03-.03-.05l-.02-.03s-.04-.06-.09-.08c-.03-.02-.07-.03-.1-.05-.04-.02-.08-.05-.11-.05-.02,0-.18,0-.27.02-.01,0-.03,0-.05,0-.23.02-.39.03-.43,0-.05-.03-.07-.12.01-.24,0,0,0,0,0,0,.05-.03.25-.32.29-.52-.02,0-.03,0-.05,0-.06.1-.16.14-.26.15-.07.16-.23.35-.41.46.02.07.03.14,0,.25-.01.05,0,.1.03.14.02.03.05.04.07.04.14,0,.26-.02.38-.03.12-.01.25-.02.4-.03,0,0,0,0,0,0,.06.02.11-.02.17-.07,0,0,0,0,.01,0,.03,0,.06,0,.08.03.03.03.04.07.05.11l.32-.03Z"/><path class="cls-2" d="m265.86,137.35s0,.03,0,.03.02,0,.03,0c0-.02-.02-.02-.03-.03Z"/><path class="cls-2" d="m263.79,140.14s.1,0,.16,0c.05,0,.1,0,.15,0h0c.09-.01.52-.13.72-.19.04-.01.08-.03.12-.04-.02-.01-.03-.03-.06-.04-.09-.05-.18-.12-.21-.18h0c-.03-.09-.14-.32-.19-.35-.04-.03-.16-.07-.32-.03,0,0,0,0,0,0-.01,0-.03,0-.05,0-.06,0-.16,0-.26-.02-.03,0-.09,0-.15,0-.09.01-.17.02-.21,0h-.01s-.07-.04-.08-.11c-.03,0-.05.01-.08.02.17.09.17.43.17.66,0,.01,0,.03,0,.04.22-.01.3.13.32.23Z"/><path class="cls-2" d="m265.29,137.18s-.03.07-.05.09c0,0,0,0,0,.01,0,.01-.02.04-.03.05l.46.19s.03,0,.04,0c0,0,0,0,0,0,0-.05-.08-.08-.16-.11-.11-.04-.23-.09-.2-.22-.02,0-.03,0-.05-.01,0,0,0,0,0,0Z"/><path class="cls-2" d="m265.76,137.31s-.08,0-.12-.03c-.06-.03-.17-.06-.29-.09-.02.1.09.15.19.19.09.03.17.06.17.13,0,0,0,0,0,0,.03,0,.05-.02.09-.01.02,0,.05,0,.06,0,0,0,.03-.03.03-.05,0-.01,0-.03,0-.04-.02,0-.05,0-.06-.01-.02-.02,0-.04,0-.07,0,0-.01-.01-.02-.02-.01,0-.03,0-.05,0Z"/><path class="cls-2" d="m265.52,138.61c-.03-.2-.18-.39-.34-.54-.23.18-.46.31-.73.4,0,0-.02,0-.03,0,0,.03,0,.05,0,.08.03.14-.06.2-.11.22l-.14.07s.02,0,.04,0c.16.01.23.03.37.05h.08s.1.03.12.1c.03.07.14.32.15.35.05.06.27.34.31.4,0,.01.01.03.02.04.05-.02.1-.04.12-.05,0,0,0,0,0,0,.05-.01.1-.02.15-.04-.09,0-.15-.01-.2-.03-.04-.01-.07-.02-.12-.03-.01,0-.02-.01-.02-.03,0-.01.02-.02.03-.02.05,0,.09.02.13.03.07.03.14.05.37.01.09-.04.17-.07.21-.09.09-.05.21-.04.26-.03.02,0,.04,0,.05,0,.04,0,.08,0,.14.02.03.01.26.13.31.25.05.08.07.09.08.09,0,0,0,0,.02,0,.03,0,.1-.03.14.02,0,0,0,0,0,0,.02.07.04.14.04.24l.28-.02s-.04-.08-.08-.12c-.04-.03-.07-.07-.12-.11-.1-.09-.23-.22-.45-.41-.07-.08-.24-.2-.36-.2-.13,0-.34.03-.35.03,0,0,0,0-.01,0-.07,0-.16,0-.26-.02-.1-.02-.22-.04-.32-.03-.01,0-.03-.01-.02-.02,0-.01.01-.03.03-.03.1,0,.22.01.33.03.01,0,.03,0,.04,0,.02-.12.02-.25,0-.36-.04-.09-.08-.14-.15-.19-.01,0-.03-.02-.04-.02-.09-.05-.19-.11-.35-.1-.01,0-.03,0-.02-.02,0-.01.01-.03.03-.03.17-.01.27.04.36.1Z"/><path class="cls-2" d="m263.95,140.19c-.06,0-.11.01-.16,0,0,.03-.02.07-.03.1.1-.01.17-.05.21-.11,0,0-.02,0-.02,0Z"/><path class="cls-2" d="m262.7,141.14s-.02.05-.02.07c0,0,0,.02.01.02.03,0,.09.06.23.18.03.03.06.05.08.07.07.06.29.32.31.39.02.05.06.11.12.1,0,0,0,0,.01,0,.03,0,.06,0,.08.02.02.02.03.05.03.07,0,.05,0,.08-.02.1l.4-.04s0,0,0,0c-.05-.04-.1-.08-.13-.15l-.06-.04c-.11-.08-.2-.14-.23-.19-.04-.09-.36-.36-.42-.41,0,0,0,0,0,0-.09-.14-.05-.25,0-.32.04-.05.11-.13.15-.18.02-.03.04-.05.05-.06,0,0,0,0,0,0,0,0,0,0,0,0,.25-.15.45-.44.44-.59,0,0,0,0,0,0,0-.08-.07-.22-.28-.2-.01,0-.03,0-.02-.02,0,0,0-.01.01-.02,0-.02,0-.03,0-.05,0-.23,0-.58-.17-.66-.17.07-.33.14-.45.22l.37.32s0,0,0,.01l.02.15s0,.01,0,.02c0,0,0,0-.01,0,0,0,0,0,0,0h-.15s0,0-.01-.01l-.39-.36c-.13.11-.22.23-.28.33,0,0,0,.01-.02.01-.07.02-.25.08-.56-.02-.09-.03-.2,0-.29.05-.1.07-.16.17-.17.3-.03.23.15.39.21.45.1.09.05.22.01.28-.03.05-.06.23-.01.28h0c.06.07.13.14.11.23-.02.09,0,.13,0,.14,0,0,0,0,.03-.03.06-.08.12-.12.17-.16.01,0,.02-.02.03-.02.01,0,.02-.03.03-.06.01-.06,0-.14-.02-.17,0,0,0,0,0,0-.01-.05-.01-.07-.01-.09,0-.01,0-.02,0-.04,0,0,0-.02,0-.03.15-.14.21-.22.12-.32-.11-.13-.22-.23-.31-.29-.07-.05-.08-.18-.04-.25.07-.12.21-.13.31-.09.12.05.34.02.37,0,0,0,.01,0,.02,0,0,0,.01,0,.02.01.11.19.3.38.51.52,0,0,0,0,0,0,0,0,0,0,0,.01.02.02.04.05.02.13-.04.13-.16.35-.21.4Z"/><path class="cls-2" d="m265.07,137.88c0-.05,0-.12.02-.16-.09,0-.15-.03-.2-.07.04.1.1.17.18.23Z"/><path class="cls-2" d="m267.05,139.21l.29.05s0-.16-.05-.21c-.07-.1-.15-.17-.24-.21-.11-.06-.51-.26-.55-.28-.07-.04-.23-.01-.31.02-.08.03-.17.1-.27.17-.06.04-.12.09-.18.13.02.12.03.24,0,.37.06,0,.1.01.14,0,0-.02,0-.05.01-.07.1-.1.22-.31.24-.34,0,0,0,0,0,0,.03-.03.08-.03.12-.04,0,0,.02,0,.02,0,.03,0,.06-.04.1-.04.05,0,.41.12.45.17.02.04.06.04.08.03.04-.01.09-.02.13,0,.06.04.06.05.03.12-.03.06-.04.11-.02.14Z"/><path class="cls-2" d="m265.66,137.7s.05.02.07.01c.02,0,.06-.04.06-.05-.08-.02-.13-.06-.14-.11h-.02s-.05.07-.08.12c.04,0,.08.02.12.03,0,0,0,0,0,0Z"/><path class="cls-2" d="m264.46,138.09s0,0,0,0c0,0,0,0-.02,0,0,0,0,0,0,0-.01,0-.03,0-.04,0,0,0,0,0,0,.01.02,0,.03,0,.05,0,0,0,.01,0,.01,0Z"/><path class="cls-2" d="m264.44,138s.08,0,.09.02c.01.01.02.03.02.05,0,.03-.01.05-.03.07-.02.02-.05.03-.08.02,0,0-.01,0-.02,0,0,0-.01,0-.02,0,0,.08.01.15.02.22,0,0,.01,0,.02,0,.25-.09.47-.21.69-.38-.01-.01-.03-.03-.04-.04,0,0,0,0,0,0-.15-.09-.23-.23-.26-.42,0-.02,0-.04-.01-.06,0-.04-.02-.07-.02-.12,0-.01.01-.03.03-.03,0,0,0,0,0,0,.01,0,.03,0,.03.02,0,.09.02.15.04.22.04.07.12.09.23.1,0,0,0,0,0,0,.11-.02.15-.02.23-.05,0,0,0,0,.01,0,.03,0,.05.01.08.02.03-.05.07-.11.09-.14l-.76-.32c-.26.22-.35.52-.36.82.01,0,.02,0,.04,0Z"/><path class="cls-2" d="m265.59,137.53l-.05-.02c-.06.11-.2.33-.35.45-.24.2-.48.33-.76.43-.04.02-.09.03-.13.02-.01,0-.02-.02-.03-.02,0,0-.01,0-.02,0,0,0-.01,0-.02-.01,0,0,0,0,0,.01,0,0-.03,0-.06.01.04.05.09.07.12.07.06,0,.11-.01.15-.03.29-.1.54-.24.78-.44.14-.12.29-.32.36-.47Z"/><path class="cls-2" d="m264.44,138.14s.04,0,.06-.02c.02-.01.02-.03.03-.05,0-.02,0-.03-.01-.04-.01-.01-.04-.02-.08-.02-.01,0-.02,0-.03,0-.07,0-.13.03-.2.06-.02,0-.04.03-.05.07,0,0,0,.01,0,.02.03,0,.06,0,.07,0,0,0,0,0,0-.01.05-.04.13-.02.19-.01,0,0,.02,0,.02,0Zm-.23,0s0,0-.01,0c0,0,0,0,0-.01.02-.05.17-.08.26-.07.02,0,.03.01.03.02,0,0,0,.02,0,.03,0,0-.01.01-.02.01,0,0,0,0-.01,0-.08-.02-.17-.03-.23.02Z"/><path class="cls-2" d="m265.09,137.11s-.02.06-.02.08c0,.01,0,.02,0,.02l-.03.05.14.06s.02-.04.03-.05c0,0,0,0,.01-.02.02-.02.05-.05.04-.07,0-.02-.03-.05-.08-.07-.04-.02-.08-.02-.1,0Z"/><path d="m264.45,138.11s.02,0,.02-.01c0,0,.01-.02,0-.03,0,0,0-.02-.03-.02-.08,0-.24.02-.26.07,0,0,0,0,0,.01,0,0,0,0,.01,0,.07-.05.15-.04.23-.02,0,0,0,0,.01,0Zm-.12-.03s0,0,.01,0c0,0,0,0,0,0,0,0,0,0-.01,0Zm.07,0s.03,0,.04,0c0,0,0,0,0,0,0,0,.01,0,.02,0,0,0,0,0,0,0,0,0,0,0-.01,0-.02,0-.03,0-.05,0,0,0,0,0,0-.01Z"/><path class="cls-2" d="m262.95,137.36s-.11.09-.18.16c-.06.07-.12.12-.17.16.3-.07.48-.1.57-.11.13-.11.24-.2.31-.23-.17.02-.4.02-.53.01Z"/><path class="cls-2" d="m261.82,138.27c.02.09.03.15.02.18.35-.24.67-.42.98-.56.04-.04.09-.08.13-.12,0,0,0,0-.02,0-.29.05-.61.11-.85.24,0,0,0,0,0,0,0,0,0,0,0,0-.03.01-.07,0-.11-.03-.06-.03-.13-.07-.17-.03-.05.04,0,.2.02.32Z"/><path class="cls-2" d="m262.17,139.24s-.02,0-.03-.02c0,0,0-.02,0-.02-.02,0-.03-.02-.04-.03,0,0,0,0,0-.01-.02,0-.03-.02-.04-.03,0,0,0-.01,0-.02-.01,0-.03-.02-.03-.03-.01-.02-.01-.04,0-.06,0,0,.03-.03.04-.04-.02,0-.03-.01-.04-.03-.07.09-.14.19-.19.28.05,0,.22,0,.36,0Z"/><path class="cls-2" d="m262.94,137.75s.04,0,.06-.01c.05-.04.09-.08.13-.12-.11.01-.29.05-.58.11h-.02s0,0,0,0c0,0,0,0,0,0-.05,0-.1-.03-.15-.06-.07-.05-.14-.11-.23-.07-.04.04-.03.15-.02.24,0,.07,0,.12,0,.15.24-.13.55-.19.83-.24Z"/><path class="cls-2" d="m262.89,138.19l-.02.03c-.06.1-.21.34-.32.49-.02.04-.08.15-.08.25,0,0,0,0,0,0,.21-.29.45-.59.74-.75,0-.07,0-.15,0-.23-.05.04-.12.08-.18.12-.06.03-.13.08-.14.1Z"/><path class="cls-2" d="m262.22,138.84c.04-.1.09-.19.14-.27-.08.07-.16.15-.23.24.02.02.04.04.05.07.02-.01.03-.03.05-.04Z"/><path class="cls-2" d="m261.66,139.29l.12-.06s0,0,0,0c.05-.1.13-.2.21-.3-.01-.01-.03-.02-.03-.04,0-.02.02-.05.03-.07.02-.02.05-.05.07-.05.01,0,.03.01.04.02.1-.11.2-.21.3-.3,0-.02.02-.04.03-.05.04-.08.08-.12.11-.17-.25.11-.8.56-1.01.84,0,0,0,0,0,0,0,0,0,0,0,0,0,0,0,0,0,0,0,0,0,0,0,0,0,0,0,0,0,0-.03.02-.09,0-.18-.03-.08-.03-.19-.06-.2-.02,0,0,0,.01,0,.02.06.09.41.21.53.2Z"/><path class="cls-2" d="m262.57,138.23s0-.01.01-.02c.04-.05.07-.09.1-.14.01-.02.05-.06.09-.11-.3.14-.6.31-.94.54,0,0,0,0,0,0,0,0-.01,0-.01,0,0,0,0,0,0,0-.03,0-.08-.01-.14-.05-.06-.03-.13-.08-.16-.06-.02.02,0,.22.01.36.02.18.02.27,0,.32.24-.3.81-.75,1.04-.84Z"/><path class="cls-2" d="m264.93,142.67s-.03-.04-.04-.04c0,0,0,0,0,0l-2.85-.59s-.01,0-.02,0c-.01,0-.02,0-.03.01-.01.01-.02.03-.01.05,0,.01.01.02.03.03l2.86.55s.03,0,.05-.02Z"/><polygon class="cls-2" points="263.19 139.9 263.17 139.78 262.42 139.13 262.38 139.17 263.11 139.82 263.11 139.83 263.1 139.83 263.1 139.83 262.38 139.18 262.34 139.22 263.07 139.89 263.19 139.9"/><path class="cls-2" d="m262.23,139.28l.24-.27s0,0,0,0c0,0-.01-.01-.02-.02l-.23.26s0,0-.01,0h0s0,.02,0,.02c0,0,.02.01.02,0Z"/><path class="cls-2" d="m261.99,138.88s.05.05.09.07c.02-.02.04-.03.06-.05-.02-.05-.06-.08-.09-.08-.01,0-.06.05-.06.07Z"/><path class="cls-2" d="m263.81,137.39s.01.04.02.06c.07.21.1.31.26.33,0-.06,0-.11-.02-.16v-.04h0c0-.06.03-.09.06-.12.01,0,.02-.01.03-.02-.03,0-.05,0-.06-.02-.02-.03-.01-.08,0-.11,0-.02,0-.04,0-.06-.01-.01-.03-.02-.06,0-.03.01-.04.02-.05.03-.01,0-.03,0-.04,0,0,.05,0,.1-.06.11-.02,0-.04,0-.06,0Z"/><path class="cls-2" d="m263.92,137.24s.01,0,.01,0c0,0,0,0,.01,0,.01,0,.03-.02.06-.03.04-.02.08-.01.11.02.03.03.03.07.02.11-.01.03-.01.06,0,.07,0,0,.02.01.04,0,.05,0,.06-.03.08-.07,0,0,0-.01,0-.02.01-.02.03-.03.04-.04.01,0,.02-.02.03-.03.02-.1.11-.09.16-.09,0,0,0,0,0,0,.01,0,.01,0,.02-.02,0-.02,0-.04.03-.05,0,0,.01,0,.02,0,0,0,.02,0,.02-.01.01-.02,0-.04,0-.06-.01,0-.03,0-.04,0-.04-.02-.09-.06-.11-.12-.02-.07-.08-.11-.15-.1-.09,0-.27.08-.3.19-.01.08-.02.14-.02.16,0,.01,0,.02-.02.02-.02,0-.04.01-.05.01,0,0,0,0,0,0,0,.01,0,.03-.01.04h.03s0,.02,0,.02Z"/><path class="cls-2" d="m263.75,137.39s0,0-.01,0c.05.14.1.25.17.32-.04-.06-.07-.14-.1-.25,0-.02-.01-.04-.02-.06-.01,0-.03,0-.04,0h0Z"/><path class="cls-2" d="m263.51,137.38c-.15.08-.74.6-.79.7-.03.06-.06.1-.1.15-.05.06-.1.13-.15.23-.02.03-.04.07-.06.11-.05.08-.1.17-.14.28,0,0,0,.01-.01.02-.09.05-.19.15-.21.17,0,0,0,.02.01.02,0,0,0,0,.01,0l.09-.09s0,0,0,0c0,0,0,0,0,0l-.09.08s0,.01,0,.02c0,0,.02.02.03.02,0,0,0,0,.01,0l.08-.09s0,0,0,0c0,0,0,0,0,0l-.08.08s0,0,0,0c0,0,0,.01,0,.02,0,0,.01,0,.02,0,0,0,.01,0,.02,0l.09-.09s0,0,0,0c0,0,0,0,0,0l-.09.09s0,.02,0,.03c0,0,0,.01.02.02l.22-.24c0-.11.07-.24.09-.28.11-.15.26-.38.32-.48l.02-.03s.06-.05.16-.12c.08-.05.18-.11.22-.15,0,0,0,0,0,0,0,0,0,0,0,0l.2-.11s.03,0,.03,0c0,0,0,.01,0,.02,0,.02.02.04.03.06.04.09.08.18.13.2,0,0,0,.01,0,.02,0,0,0,0-.01,0,0,0,0,0,0,0-.07-.03-.1-.12-.15-.21,0-.02-.01-.03-.02-.05l-.17.09c-.02.18-.01.32.01.43.02.1.05.19.08.26.02.07.05.13.06.2.03.11.02.19.01.26,0,.03,0,.06,0,.08,0,.04,0,.04.05.06h.02s.12.01.19,0c.07,0,.13-.01.16,0,.1.02.19.02.25.02.02,0,.04,0,.05,0,.17-.04.3,0,.36.03.05.03.13.19.2.36h0s.02.04.04.05l.27-.16c-.05-.06-.1-.12-.12-.15-.02-.04-.13-.3-.16-.36-.02-.05-.05-.05-.09-.06h-.08c-.13-.04-.2-.05-.36-.07-.13-.01-.18-.01-.19-.13,0-.02,0-.05-.02-.07-.02-.07-.04-.16-.02-.24,0-.03.03-.12.03-.17h0s.01-.06.02-.09c.01-.03.02-.07.02-.09,0-.06.02-.24.02-.29-.21,0-.36-.15-.46-.46,0,0,0,0,0,0-.04,0-.07.01-.09.03,0,0,0,0-.01,0Zm-.11,1.06s0-.01,0-.02c0,0,.01,0,.02,0,.05.03.12.05.18.04,0,0,.01,0,.01.01s0,.01-.01.01c-.06,0-.14-.01-.2-.05Zm.76.75c.13,0,.27,0,.4.05,0,0,0,0,0,.02,0,0,0,0-.01,0,0,0,0,0,0,0-.13-.05-.27-.05-.4-.05-.08,0-.16,0-.23-.01-.06-.01-.11-.03-.16-.05-.08-.03-.17-.06-.29-.06,0,0-.01,0-.01-.01,0,0,0-.01.01-.01,0,0,0,0,0,0,.13,0,.22.02.3.06.05.02.1.04.16.05.07.01.14.01.23.01Zm-.43-1.08c.07.03.12.01.21,0h.02s.01,0,.01,0c0,0,0,.01-.01.02h-.02s-.07.03-.11.03c-.04,0-.07,0-.12-.02,0,0,0-.01,0-.02,0,0,.01-.01.02,0Zm-.05.35c.13,0,.22.05.24.11,0,0,0,.01,0,.02,0,0,0,0,0,0,0,0-.01,0-.01,0-.01-.05-.1-.08-.21-.09,0,0-.01,0-.01-.01s0-.01.01-.01Zm-.04.24c.09.08.27.14.4.13,0,0,.01,0,.01.01,0,0,0,.01-.01.01,0,0,0,0,0,0-.14,0-.32-.05-.42-.14,0,0,0-.01,0-.02,0,0,.01,0,.02,0Z"/><path class="cls-2" d="m263.66,137.36c.07.19.15.32.25.38-.09-.07-.15-.2-.2-.36,0,0,0,0-.02,0-.01,0-.02,0-.04-.01Z"/><path class="cls-2" d="m263.89,137.12s.02,0,.02,0c0-.03,0-.08.02-.15.05-.14.25-.22.35-.23.1,0,.17.04.2.13,0,.04.05.07.08.09.01,0,.02,0,.02,0,.02-.07.08-.1.13-.11,0,0-.02-.01-.03-.02-.02-.02-.05-.03-.08-.06-.04-.06-.19-.13-.34-.11,0,0,0,0,0,0-.15.02-.28.18-.34.25-.07.08-.21.13-.25.13-.02,0-.04-.01-.05-.02-.01,0-.03-.01-.04-.01l-.16.02s-.04.01-.05.02c-.02.01-.05.03-.09.03-.04,0-.19.02-.23.04,0,0,0,.01,0,.03,0,.02.03.04.04.04h.02c.07,0,.14,0,.18.02.04.02.18.01.24-.02.09-.04.16-.02.24,0,.03,0,.06.02.09.02,0,0,0-.02,0-.02v-.02s0,0,0,0c0-.03.03-.03.05-.04Z"/><path class="cls-2" d="m264.38,137.25s-.03.04-.05.05c-.01,0-.02.01-.02.02,0,0,0,0,0,.01-.01.03-.04.08-.11.1,0,0,0,0,0,0,0,0,0,0,.01,0,.03.01.06.03.08.05,0,0,0,0,0,0,0,0,0-.02,0-.03,0-.02.01-.04.02-.05,0,0,.01-.01.02,0,0,0,0,0,0,0-.02,0-.03,0-.05-.01,0,0,0,0,0,0,0,0,0,0,0,0,.01,0,.03.01.05.01,0,0,0-.01,0-.02,0-.01,0-.04.02-.06.01-.01.03-.02.04-.01h.01s.01,0,.02,0v-.02s.01-.06.02-.09c-.05,0-.08,0-.09.04,0,0,0,0,0,0Z"/><path class="cls-2" d="m264.82,139.75s.07.05.1.06c.05.03.08.05.1.07,0,0,0,0,0,0l.06-.03h0s-.04.02-.04.02c-.02.01-.04,0-.04-.01,0-.02,0-.03.01-.04l.03-.02-.05-.09s-.02,0-.02-.01c0,0,0-.02.04-.04.03-.02.05-.02.06-.02,0,0,0,.02,0,.02l.05.09.03-.02s.02,0,.03,0c.01,0,.02.02.02.03,0,.01,0,.02-.02.03l-.04.02h0s.07-.04.07-.04c-.02-.03-.07-.11-.13-.18l-.26.16Z"/><path class="cls-2" d="m265.48,140.26s.07.04.08.04c.14,0,.2,0,.22-.01,0,0,.02,0,.02-.02,0-.02,0-.04,0-.05-.03,0-.14-.01-.2-.02-.07,0-.22-.13-.27-.19-.04-.05-.07-.11-.09-.16,0-.02-.02-.04-.03-.06l-.07.04.06.12c.03.06.04.08.04.14,0,0,0,0,0,.01,0,0,0,0,0,0,0,0,0,0,0,0-.05-.03-.06-.05-.09-.12l-.06-.11-.06.03c.05.06.07.19.07.25,0,.04,0,.05,0,.05,0,0,0,0,.04,0,0,0,.01,0,.02,0,.07,0,.24,0,.27.02.01,0,.03.02.06.03Z"/><path class="cls-2" d="m264.8,139.74l.26-.16s-.02-.02-.03-.04l-.27.16s.02.02.03.03Z"/><path class="cls-2" d="m265.11,139.81s0,0,0,0c0,0,0,0,0,0l.05-.03s0,0,0,0c0,0,0-.01,0-.01,0,0,0,0,0,0l-.04.02s-.01,0-.02,0l-.06-.11s0,0,0,0c0,0-.01,0-.03.01-.01,0-.02.01-.02.02,0,0,0,0,0,0l.06.11s0,0,0,0c0,0,0,0,0,0l-.04.02s0,0,0,.01c0,0,0,0,.01,0l.05-.03s0,0,0,0c0,0,0,0,0,0,0,0,0,0,0,0v.02s.03-.02.03-.02v-.02Z"/><path class="cls-2" d="m265.16,139.97c.03.05.04.07.07.1,0-.04-.01-.06-.04-.11l-.06-.12-.03.02.06.11Z"/><path class="cls-2" d="m264.18,138.24s0,0,0,0c0,0,0,0,0,0h-.07s0,.02,0,.02c0,0,0,0,0,0,0,0,0,0,0,.01h.07s0-.01,0,0c0,0,0,0,0,0h-.07s0,.03,0,.03c0,0,0,0,0,0,0,0,0,0,0,.01h.08s0-.01,0-.01c0,0,0,0,0,0s0,0,0,0h-.08s0,.01,0,.01c0,0,0,0,0,0,.03,0,.07,0,.1-.01,0-.05,0-.1,0-.13-.04,0-.1.01-.11.02,0,0,0,.01,0,.02h.07s0-.01,0-.01Z"/><path d="m263.9,138.58s0,0,.01,0c0,0,0,0,0,0,0,0,.01,0,0-.02-.02-.06-.1-.1-.24-.11,0,0-.01,0-.01.01s0,.01.01.01c.12,0,.2.04.21.09Z"/><path d="m263.61,138.48s0-.01-.01-.01c-.06,0-.13-.01-.18-.04,0,0-.01,0-.02,0,0,0,0,.01,0,.02.05.03.13.05.2.05,0,0,.01,0,.01-.01Z"/><path d="m263.84,138.15s.07-.01.11-.02h.02s.01-.02.01-.02c0,0,0-.01-.01,0h-.02c-.08.03-.13.04-.21.01,0,0-.01,0-.02,0,0,0,0,.01,0,.02.04.02.08.02.12.02Z"/><path d="m264.05,138.86s0,0,0,0c0,0,.01,0,.01-.01,0,0,0-.01-.01-.01-.13,0-.31-.05-.4-.13,0,0-.01,0-.02,0,0,0,0,.01,0,.02.1.08.28.14.42.14Z"/><path d="m263.77,139.13c-.09-.03-.17-.06-.3-.06,0,0,0,0,0,0,0,0-.01,0-.01.01,0,0,0,.01.01.01.13,0,.21.02.29.06.05.02.1.04.16.05.07.01.15.01.23.01.12,0,.27,0,.4.05,0,0,0,0,0,0,0,0,0,0,.01,0,0,0,0-.01,0-.02-.13-.05-.28-.05-.4-.05-.08,0-.16,0-.23-.01-.06-.01-.11-.03-.16-.05Z"/><path class="cls-2" d="m328.12,97.88c-13.42,0-29.29,9.91-38.89,26.38-2.59-5.95-11.83-12.43-22.8-12.43-8.84,0-33.67,11.05-33.67,46.73,0,46.05,46.59,55.51,56.01,69.82.65.99,2.73,1.73,3.53-.62,7.51-22.18,65.79-47.24,65.79-92.37,0-25.31-16.53-37.51-29.95-37.51Zm14.33,37.36c-1.14,33.35-41.38,60.41-51.57,78.49-.71,1.26-1.28,2.48-1.67,3.65-5.39-10.89-44.12-26.63-43.74-60.94.32-28.51,15.16-37.43,23.23-37.43,11.28,0,15.94,8.61,16.71,12.43.63,3.16,3.67,5.77,5.47,3.03.37-.57.7-1.35.93-2.42,1.37-6.25,14.65-25.31,30.96-25.31,14.94,0,20.12,15.41,19.67,28.52Z"/></g></g></g></svg>