<svg xmlns="http://www.w3.org/2000/svg" id="LOGO_LAYER" viewBox="232.76 97.88 125.33 131.44"><defs><style>.cls-1{fill:#f9f9f9;}.cls-2{fill:#039;}.cls-3{fill:#060;}.cls-4{fill:#fff;}.cls-5{fill:#ff0;}.cls-6{fill:red;}</style></defs><g id="LOGO_GROUP"><g id="SELECT_FLAG_HERE"><g id="BLACK_FLAG"><path class="cls-6" d="m296.63,163.44v3.03s.09-.02.14-.03c1.8-.45,4.07-1.2,5.79-1.91,0-.03,0-.07,0-.1,0-.02,0-.03,0-.05-1.66-.48-3.71-.74-5.12-.88-.26-.02-.54-.04-.8-.06Z"/><path class="cls-6" d="m322.79,106.72c-16.31,0-29.59,19.06-30.96,25.31-1.37,6.25-5.64,3.2-6.4-.61-.17-.87-.56-2-1.18-3.21v17.46l.59-.06v-.18s0-.03.02-.04c.01-.01.03-.02.04-.02l.45-.05s.06.02.06.05v.32c6.51-.31,12.21,2.47,15.73,7.14.24.1.46.19.61.29,0,0,.01,0,.01.01l.48.72s0,.02,0,.03c0,0,0,0,0,0,0,0,0,0,0,0,0,.01,0,.03,0,.04,0,0-.01,0-.02,0-.03.03-.09.07-.14.1l.35.58c.15.06.26.12.31.18l.34.56s0,.03,0,.04c0,0,0,0,0,.01,0,0,0,0,0,0,0,0,0,.01,0,.02,0,0-.02,0-.02.01-.04.04-.11.09-.21.16.43.87.82,1.77,1.12,2.72.04.12.06.25.1.37.14.49.28.97.38,1.48.12.56.2,1.13.26,1.7,0,.09.03.17.04.25.03.27.03.56.05.83.11.08.22.16.29.25,0,0,.01.02.01.04v.03s0,0,0,0v.5s0,0,0,0h0s0,0,0,0c0,0,0,.02,0,.03,0,0-.02.02-.03.03,0,0,0,0,0,0,0,0,0,0,0,0-.05.06-.12.12-.2.18v.77c.08.06.16.12.22.18,0,0,.01.02.01.04v.03s0,0,0,0v.5s0,0,0,0h0s0,0,0,0c0,0,0,.02,0,.03,0,0-.02.02-.03.03,0,0,0,0,0,0h0c-.07.08-.16.16-.28.25-.07.84-.17,1.68-.34,2.5-.07.37-.18.73-.27,1.09-.07.29-.13.58-.22.87-.33,1.1-.75,2.16-1.24,3.2.14.28.18.53.09.72,0,0,0,0,0,0l-.26.42s-.02.03-.03.06l-.03.06s0,.01-.01.02c0,0-.03,0-.04.01,0,0,0,0-.01,0,0,0,0,0,0,0-.05.03-.1.06-.2.07-.02,0-.05,0-.08,0l-1.18,1.95s.02.04.02.05c.03.13.01.24-.04.33l-.25.43s0,.01-.01.02l-.11.09h-.01s0,0,0,0c0,0,0,0,0,0-.01,0-.02.01-.03.01,0,0,0,0,0,0-.07.05-.15.09-.25.1-.05,0-.12,0-.18,0-3.55,4.63-8.78,7.97-14.66,8.93v.35s0,.03-.02.04c-.01.01-.03.02-.04.02l-.45.05s-.06-.02-.06-.05v-.18l-.59.06v24.51c2.33,2.09,4.1,4,4.98,5.77,6.05-17.98,52.01-46.46,53.24-82.14.45-13.11-4.73-28.52-19.67-28.52Z"/><path class="cls-6" d="m302.29,167.47c.03-.15.05-.31.07-.46-1.46.57-3.38,1.19-5.5,1.75,1.7,1.07,3.14,2.07,4.18,2.94.54-1.33.97-2.76,1.25-4.24Z"/><path class="cls-6" d="m295.84,179.27c.37-.35.73-.72,1.08-1.1-.91.31-1.73.57-2.27.71-2.36.73-5.76,1.44-8.88,1.86-.12.03-.25.07-.37.09v3.65c3.85-.72,7.41-2.49,10.43-5.22Z"/><path class="cls-6" d="m296.63,151.88c.13.01.25.03.38.05-.12-.11-.25-.2-.38-.3v.26Z"/><path class="cls-6" d="m292.33,177.13c.3-.07.6-.14.89-.22.28-.07.57-.14.86-.21.23-.06.43-.12.65-.18-.44-.16-.89-.32-1.37-.51-.12.15-.24.3-.37.45-.21.23-.43.45-.66.66Z"/><path class="cls-6" d="m297.54,161.15c1.94.18,3.54.45,4.79.77-.16-.97-.36-1.85-.59-2.67-.08-.27-.15-.54-.25-.8-.24-.65-.51-1.28-.83-1.88-1.07.42-2.45.89-4.03,1.36v3.15c.31.02.62.04.92.07Z"/><path class="cls-6" d="m296.63,155.57c1.12-.33,2.06-.66,2.83-.98-.02-.03-.05-.06-.07-.09-.82-.13-1.75-.24-2.76-.33v1.4Z"/><path class="cls-6" d="m294.69,150.26c-.76-.44-1.55-.83-2.36-1.16-.09-.04-.19-.07-.28-.11-.37-.14-.75-.27-1.14-.38-1.75-.51-3.6-.72-5.51-.64v4.03s10.34-1.07,10.34-1.07c-.34-.24-.69-.46-1.05-.67Z"/><path class="cls-3" d="m272.69,174.3c-.37-.91-.63-1.88-.75-2.89-2.36-.1-4.34-.37-5.82-.67.29,1.92.88,3.72,1.78,5.42.81-.4,1.62-.73,2.03-.9.88-.35,1.8-.67,2.75-.96Z"/><path class="cls-3" d="m273.82,176.37c-1.13.33-2.22.7-3.24,1.1-.45.17-.96.4-1.46.64.04.05.08.1.11.15,2.38.28,4.67.46,6.91.53-.22-.17-.45-.34-.66-.53-.64-.57-1.19-1.21-1.67-1.89Z"/><path class="cls-3" d="m270.76,166.33c-1.66.5-3.43,1.16-4.82,1.83,0,.04,0,.08,0,.12,0,.02,0,.04,0,.05,2.1.43,4.67.64,5.91.72v-3.03c-.37.1-.73.2-1.09.31Z"/><path class="cls-3" d="m283.09,148.21c-.74.12-1.48.28-2.2.49-.37.11-.74.23-1.1.37-.08.03-.15.05-.23.08-1.49.57-2.94,1.32-4.29,2.21-.36.24-.71.48-1.05.74-.04.03-.08.05-.11.08-.45.35-.89.73-1.32,1.12l10.31-1.07v-4.03Z"/><path class="cls-3" d="m271.47,180.76c.79.69,1.63,1.29,2.52,1.81,1.41.76,3.22,1.5,5.26,1.91,1.24.22,2.53.3,3.84.25v-3.65c-.18,0-.35-.01-.53-.02-4.36.28-8.15.1-11.08-.3Z"/><path class="cls-3" d="m271.84,156.74c-.15.04-.29.09-.43.13.14.04.29.09.43.13v-.27Z"/><path class="cls-3" d="m271.84,154.51v-.26c-.13.13-.26.25-.38.39.13-.04.25-.08.38-.13Z"/><path class="cls-3" d="m266.87,162.56c-.3,1-.54,2.03-.71,3.1.97-.44,2.13-.9,3.4-1.32-1.09-.67-1.99-1.26-2.7-1.78Z"/><path class="cls-3" d="m283.66,187.15v.18s0,.03-.02.04c-.01.01-.03.02-.04.02l-.45.05s-.06-.02-.06-.05v-.35c-5.24.26-9.97-1.47-13.45-4.59-.47-.42-.91-.87-1.33-1.34-.07-.08-.14-.17-.21-.25-.26-.31-.53-.61-.78-.93-.16-.05-.32-.09-.47-.14-.01,0-.02-.01-.03-.02l-.24-.39s0,0,0,0h0s0-.03,0-.04c0-.06.04-.12.09-.2l-.5-.76c-.07-.01-.14-.03-.2-.04-.01,0-.02-.01-.03-.02,0,0,0,0,0,0l-.24-.4s0-.02,0-.03c0-.1.06-.2.14-.3-1.19-2.22-1.94-4.74-2.15-7.47-.11-.04-.2-.08-.27-.11-.02,0-.03-.03-.03-.05h0s0-.01,0-.01v-.56s0-.01,0-.02c.03-.09.09-.18.17-.28v-.78c-.05-.02-.1-.04-.14-.06-.02,0-.03-.03-.03-.05h0s0-.01,0-.01v-.56s0-.01,0-.02c.04-.12.14-.26.28-.4.14-2.21.63-4.36,1.41-6.4-.05-.09-.09-.17-.11-.25-.04-.17-.02-.32.05-.45l.24-.44s.04-.04.07-.03h0s.11-.05.18-.07l1.02-2c-.07-.17-.1-.33-.05-.47,0,0,0,0,0,0l.03-.07.25-.45s0,0,0,0l.02-.03s0-.01.02-.02c.14-.12.37-.19.63-.23.29-.44.59-.89.92-1.31,3.56-4.68,8.83-8.06,14.76-9.01v-.31s0,0,0,0c0-.03.03-.06.06-.07,0,0,0,0,0,0l.45-.05s.06.02.06.05v.18l.59-.06v-17.46c-2.07-4.09-6.82-9.22-15.53-9.22-8.08,0-22.92,8.92-23.23,37.43-.32,28.72,26.77,44.43,38.76,55.17v-24.51l-.59.06Z"/><path class="cls-5" d="m293.77,175.53c.72.27,1.39.5,2.02.71,1.12-.32,2.07-.61,2.88-.88-.85-.66-1.98-1.44-3.37-2.33-.42.87-.93,1.71-1.53,2.5Z"/><path class="cls-5" d="m271.84,163.66v-2.12s-.05-.03-.08-.04c-1.61-.56-2.98-.97-4.06-1.21-.05.11-.1.22-.15.33-.18.43-.35.85-.5,1.29.86.67,1.99,1.42,3.28,2.2.11-.03.22-.07.33-.1.38-.11.78-.22,1.17-.33Z"/><path class="cls-5" d="m295.58,176.29c-.6-.2-1.23-.42-1.89-.67-.08.1-.17.2-.25.3.52.2,1.02.38,1.49.55.22-.06.44-.12.65-.18Z"/><path class="cls-5" d="m302.4,174.43s0,0-.01,0l-.2.33c.07,0,.13-.02.16-.05l.03-.05s.02-.08.02-.19v-.05Z"/><path class="cls-5" d="m266.8,156.92c-.06.03-.12.07-.17.12-.03.03-.05.06-.05.07,0,0,0,0-.01,0-.03.09-.02.18,0,.29l.23-.46s0-.02,0-.03Z"/><path class="cls-5" d="m300.47,177.66h0s.07-.1.03-.33c-.02,0-.04,0-.06.01-.1.13-.18.27-.28.4.14,0,.24-.03.31-.07,0,0,0,0,0-.01Z"/><path class="cls-5" d="m267.02,162.03c-.04.13-.07.28-.12.41.72.54,1.66,1.16,2.81,1.86.15-.05.3-.1.45-.14-1.31-.8-2.36-1.5-3.15-2.12Z"/><path class="cls-5" d="m265.3,160.09c-.1.04-.18.08-.23.15,0,0,0,0,0,0-.02.08-.03.16,0,.26,0,.04.04.08.05.12.06-.16.13-.32.19-.47,0-.02,0-.03-.01-.05Z"/><path class="cls-5" d="m300.4,156.06c-.19-.33-.4-.63-.61-.94-.84.32-1.89.68-3.17,1.06v1.15c1.55-.44,2.81-.88,3.77-1.27Z"/><path class="cls-5" d="m300.6,156.47c-.05-.1-.1-.21-.15-.31-.96.39-2.23.82-3.83,1.28v.37c1.6-.47,2.94-.94,3.98-1.34Z"/><path class="cls-5" d="m302.01,153.94s.06-.04.08-.05c-.05-.05-.13-.09-.19-.14l.12.19Z"/><path class="cls-5" d="m296.63,155.69v.36c1.25-.37,2.28-.72,3.1-1.03-.07-.11-.13-.22-.21-.32-.77.32-1.73.66-2.89,1Z"/><path class="cls-5" d="m302.78,155.5c.06-.03.1-.06.14-.09-.07-.04-.15-.07-.24-.11.03.06.07.13.1.2Z"/><path class="cls-5" d="m296.76,168.2c1.77-.44,3.98-1.17,5.69-1.87.04-.38.05-.77.06-1.15-1.48.59-3.47,1.24-5.67,1.82-.07.02-.15.03-.22.05v.29c0,.3-.02.6-.04.9.06-.01.12-.03.18-.04Z"/><path class="cls-5" d="m266.02,170.11c2.11.43,4.66.63,5.86.7-.02-.27-.04-.54-.04-.81h0s0-.37,0-.37c-2.4-.11-4.41-.39-5.88-.69.01.37.02.74.05,1.1,0,.02,0,.04.01.07Z"/><path class="cls-5" d="m304.85,163.87s.06-.06.09-.09c-.03-.03-.06-.06-.09-.08v.17Z"/><path class="cls-5" d="m296.83,168.65c2.12-.57,4.07-1.2,5.54-1.78.02-.14.05-.28.06-.41-1.71.7-3.9,1.42-5.66,1.85-.07.02-.14.03-.2.05,0,.07,0,.15-.01.22.05.03.1.06.15.1.04,0,.08-.02.11-.03Z"/><path class="cls-5" d="m263.49,168.13s.03.01.04.02v-.09s-.03.05-.04.07Z"/><path class="cls-5" d="m263.49,169.9s.09.04.15.06c0-.09,0-.19-.01-.28-.06.08-.11.15-.14.22Z"/><path class="cls-5" d="m271.84,169.17c-1.22-.08-3.8-.28-5.91-.71,0,.12.01.24.02.36,1.42.29,3.4.59,5.89.7v-.35Z"/><path class="cls-5" d="m296.63,166.59v.35c.07-.02.14-.03.2-.05,2.19-.58,4.2-1.24,5.69-1.83,0-.13.02-.27.02-.4-1.73.71-3.97,1.45-5.76,1.9-.05.01-.1.02-.15.04Z"/><path class="cls-5" d="m271.89,170.93c-1.18-.07-3.73-.27-5.85-.69.02.13.04.25.06.37,1.42.29,3.38.57,5.82.67-.01-.12-.02-.23-.03-.35Z"/><path class="cls-5" d="m304.77,165.7c.07-.05.13-.1.17-.15-.05-.05-.1-.1-.16-.14,0,.1,0,.2-.01.3Z"/><path class="cls-5" d="m294.16,177.27c-.4.1-.78.19-1.15.28-.53.13-1.05.26-1.59.39-.85.7-1.77,1.3-2.74,1.77,2.27-.43,4.28-.94,5.8-1.37,1.29-.39,2.35-.74,3.21-1.05.37-.44.71-.88,1.04-1.34-1.31.43-2.85.89-4.56,1.31Z"/><path class="cls-5" d="m279.63,180.59c-.91-.28-1.78-.68-2.6-1.19-2.89-.03-5.33-.22-7.29-.46.21.26.43.52.65.78.11.11.22.22.33.33,2.73.41,5.7.59,8.9.54Z"/><path class="cls-5" d="m266.05,178.23s.02,0,.02,0l-.02-.02s0,.01,0,.02Z"/><path class="cls-5" d="m269.65,178.81c1.93.24,4.34.44,7.2.47-.19-.12-.37-.24-.55-.37-2.26-.06-4.56-.24-6.96-.52.1.14.21.28.31.42Z"/><path class="cls-5" d="m266.94,179.69c.08.03.16.05.24.07-.05-.07-.11-.14-.16-.22-.03.05-.07.1-.09.14Z"/><path class="cls-5" d="m298.78,175.44c-1.21.4-2.75.87-4.68,1.38-.29.07-.58.14-.86.21-.35.09-.7.17-1.06.26-.19.18-.38.34-.57.5.47-.11.92-.22,1.38-.34.37-.09.75-.19,1.16-.28,1.76-.43,3.35-.9,4.68-1.35.05-.07.1-.14.15-.21-.06-.05-.14-.11-.2-.16Z"/><path class="cls-5" d="m281.59,181c-.53-.06-1.06-.17-1.57-.3-3.29.08-6.35-.08-9.15-.5.15.14.28.29.43.43,3.24.44,6.96.53,10.29.37Z"/><path class="cls-5" d="m286.74,180.49c2.83-.43,5.78-1.06,7.9-1.72.58-.15,1.48-.44,2.47-.78.02-.02.04-.04.06-.06.14-.15.25-.31.39-.46-.84.29-1.84.62-3.05.99-1.61.46-3.78,1-6.22,1.45-.5.23-1.02.43-1.54.6Z"/><path class="cls-5" d="m298.36,150.73c-3.52-3.14-8.09-4.69-12.96-4.47v1.14c4.15-.18,8.05,1.01,11.2,3.44h.02s0,.02,0,.02c.32.24.64.48.94.75.17.15.31.31.47.47.75.12,1.43.26,2.02.41-.52-.62-1.07-1.21-1.69-1.76Z"/><path class="cls-5" d="m268.52,178.43c-.4.22-.76.45-1.04.66.75,1.05,1.62,2.03,2.6,2.92,3.53,3.15,8.11,4.7,13,4.47v-1.17c-4.58.2-8.87-1.26-12.17-4.21-.9-.81-1.7-1.7-2.39-2.66Z"/><path class="cls-5" d="m283.09,147.64v-1.14c-4.89.79-9.47,3.3-13,7.2-.62.68-1.18,1.4-1.7,2.14.59-.29,1.28-.57,2.06-.86.16-.19.31-.39.47-.57.3-.33.61-.63.93-.94v-.07h.07c3.15-3.08,7.04-5.08,11.17-5.77Z"/><path class="cls-5" d="m267.16,160.17c-.46-.08-.84-.13-1.16-.14-.93,2.13-1.52,4.37-1.73,6.66.34-.23.76-.47,1.25-.71.25-1.99.8-3.94,1.64-5.8Z"/><path class="cls-5" d="m304.18,162.58c-.23-2.74-1.02-5.3-2.33-7.57-.46-.13-1.02-.26-1.65-.37,1.49,2.19,2.44,4.73,2.77,7.47.46.15.87.3,1.21.47Z"/><path class="cls-5" d="m302.34,172.97c1.14-2.53,1.79-5.21,1.89-7.94-.32-.18-.69-.34-1.11-.48-.03,2.59-.58,5.15-1.6,7.57.33.3.61.59.82.85Z"/><path class="cls-5" d="m265.36,168.45c-.45.24-.83.47-1.14.7.1,2.87.8,5.57,2.06,7.97.29-.22.65-.44,1.04-.65-1.26-2.4-1.95-5.12-1.96-8.01Z"/><path class="cls-5" d="m298.36,179.04c.67-.74,1.26-1.51,1.82-2.31-.18-.22-.44-.48-.79-.78-.56.81-1.16,1.6-1.83,2.34-3.3,3.65-7.59,6.01-12.16,6.77v1.17c4.88-.8,9.44-3.31,12.96-7.19Z"/><path class="cls-5" d="m298.45,150.63c.66.59,1.25,1.24,1.81,1.91.23.06.44.13.64.2-3.5-4.54-9.11-7.24-15.49-6.93v.33c4.91-.23,9.51,1.33,13.05,4.49Z"/><path class="cls-5" d="m270,182.1c-.99-.89-1.86-1.87-2.62-2.93-.11.09-.19.17-.26.25,3.47,4.89,9.3,7.83,15.97,7.5v-.33c-4.92.24-9.54-1.32-13.09-4.49Z"/><path class="cls-5" d="m267.67,156.21c.16-.09.32-.18.5-.27.56-.8,1.16-1.58,1.83-2.32,3.55-3.92,8.16-6.45,13.09-7.24v-.33c-6.39,1.03-12,4.9-15.52,10.17.04,0,.07-.01.1-.01Z"/><path class="cls-5" d="m265.87,160.02c-.14,0-.27,0-.38.03-.93,2.2-1.52,4.55-1.69,6.98.1-.08.22-.17.34-.26.19-2.31.78-4.58,1.72-6.74Z"/><path class="cls-5" d="m302.02,155.07c1.29,2.28,2.06,4.85,2.28,7.59.12.06.24.13.34.19-.19-2.79-.94-5.36-2.15-7.62-.14-.05-.3-.11-.47-.16Z"/><path class="cls-5" d="m263.78,169.51c.14,2.91.89,5.59,2.13,7.93.08-.08.16-.17.27-.25-1.26-2.4-1.97-5.09-2.08-7.96-.12.09-.23.19-.32.28Z"/><path class="cls-5" d="m304.34,165.09c-.11,2.74-.77,5.44-1.93,7.97.08.11.16.21.22.31,1.17-2.52,1.88-5.25,2.03-8.07-.1-.07-.2-.14-.32-.21Z"/><path class="cls-5" d="m300.44,177.13c-.03-.09-.09-.2-.18-.31-.56.79-1.15,1.56-1.81,2.29-3.54,3.91-8.14,6.43-13.04,7.24v.33c6.12-.99,11.51-4.6,15.04-9.54,0,0,0,0,0-.01Z"/><path class="cls-5" d="m297.48,151.7c-.27-.25-.57-.46-.86-.69v.45c.21.17.42.32.62.49.19.03.39.05.58.08-.12-.11-.22-.23-.34-.34Z"/><path class="cls-5" d="m283.09,147.76c-4.06.68-7.89,2.63-11,5.62l.49-.05c3-2.78,6.64-4.59,10.5-5.24v-.33Z"/><path class="cls-5" d="m271,154.49c-.12.14-.23.28-.35.42.19-.07.38-.13.57-.2,0,0,0,0,0-.01.19-.21.41-.41.61-.61v-.45c-.28.28-.57.55-.84.85Z"/><path class="cls-5" d="m267.59,160.25c-.11-.02-.21-.04-.32-.06-.83,1.83-1.38,3.75-1.62,5.71.11-.06.24-.11.36-.17.26-1.88.79-3.72,1.59-5.48Z"/><path class="cls-5" d="m265.81,168.29s0-.05,0-.07c-.11.06-.23.11-.33.17,0,2.89.7,5.61,1.96,8.01.1-.05.2-.11.31-.16-1.25-2.38-1.93-5.08-1.93-7.95Z"/><path class="cls-5" d="m302.49,161.96c.13.04.24.07.36.11-.34-2.74-1.3-5.27-2.81-7.46-.15-.03-.3-.05-.47-.08,1.56,2.16,2.55,4.69,2.92,7.43Z"/><path class="cls-5" d="m302.67,164.41c0,2.53-.52,5.04-1.5,7.41.09.07.17.15.25.22,1.01-2.4,1.56-4.95,1.58-7.52-.11-.04-.21-.07-.33-.1,0,0,0,0,0,0Z"/><path class="cls-5" d="m285.4,147.52v.33c3.87-.16,7.53.89,10.53,3.06l.49-.05c-3.11-2.36-6.95-3.52-11.02-3.34Z"/><path class="cls-5" d="m268.95,178.2c-.11.05-.21.11-.31.17.69.95,1.48,1.83,2.37,2.62,3.28,2.93,7.54,4.38,12.09,4.19v-.33c-4.46.19-8.63-1.24-11.85-4.11-.86-.77-1.62-1.62-2.29-2.53Z"/><path class="cls-5" d="m297.48,178.21c.67-.74,1.27-1.53,1.83-2.34-.08-.07-.15-.13-.24-.21-.55.81-1.15,1.59-1.82,2.34-3.22,3.55-7.39,5.85-11.84,6.6v.33c4.54-.76,8.8-3.1,12.08-6.73Z"/><path class="cls-5" d="m284.21,181.02c-.19.02-.37.02-.56.03v5.98s1.18-.12,1.18-.12v-5.98c-.21.03-.41.07-.62.1Z"/><polygon class="cls-5" points="284.83 152.06 284.83 145.73 283.66 145.85 283.66 152.18 284.83 152.06"/><path class="cls-5" d="m284.95,180.9v6.23s.33-.03.33-.03v-6.25c-.11.02-.22.03-.33.05Z"/><polygon class="cls-5" points="283.54 145.63 283.2 145.66 283.2 152.23 283.54 152.19 283.54 145.63"/><polygon class="cls-5" points="285.28 152.01 285.28 145.44 284.95 145.48 284.95 152.05 285.28 152.01"/><path class="cls-5" d="m283.2,181.07v6.25l.33-.03v-6.23c-.11,0-.22.02-.33.02Z"/><path d="m283.66,145.56s-.03-.06-.06-.05l-.45.05s0,0,0,0c-.03,0-.06.03-.06.07,0,0,0,0,0,0v.31c-5.93.95-11.21,4.32-14.76,9.01-.32.42-.62.86-.92,1.31-.26.04-.49.11-.63.23,0,0-.01.01-.02.02l-.02.03s0,0,0,0l-.25.45-.03.07s0,0,0,0c-.05.14-.02.3.05.47l-1.02,2c-.07.02-.13.04-.18.07h0s-.06,0-.07.03l-.24.44c-.08.13-.09.28-.05.45.02.08.06.16.11.25-.78,2.04-1.27,4.19-1.41,6.4-.14.14-.24.28-.28.4,0,0,0,.01,0,.02v.56s0,0,0,0h0s.01.05.03.06c.04.02.09.04.14.06v.78c-.08.1-.15.19-.17.28,0,0,0,.01,0,.02v.56s0,0,0,0h0s.01.05.03.06c.07.03.16.07.27.11.21,2.73.96,5.25,2.15,7.47-.08.11-.13.21-.14.3,0,.01,0,.02,0,.03l.24.4s0,0,0,0c0,.01.02.02.03.02.06.01.14.03.2.04l.5.76c-.05.07-.08.14-.09.2,0,.01,0,.03,0,.04h0s0,0,0,0l.24.39s.02.02.03.02c.15.05.31.1.47.14.25.32.51.63.78.93.07.08.14.17.21.25.42.47.86.92,1.33,1.34,3.48,3.13,8.21,4.86,13.45,4.59v.35s.03.06.06.05l.45-.05s.03,0,.04-.02c.01-.01.02-.03.02-.04v-.18l.59-.06.59-.06v.18s.03.06.06.05l.45-.05s.03,0,.04-.02c.01-.01.02-.03.02-.04v-.35c5.88-.95,11.12-4.29,14.66-8.93.06,0,.13,0,.18,0,.1-.01.18-.05.25-.1,0,0,0,0,0,0,.01,0,.02,0,.03-.01,0,0,0,0,0,0h0s.01,0,.01,0l.11-.09s0-.01.01-.02l.25-.43c.06-.09.07-.21.04-.33,0-.02-.02-.04-.02-.05l1.18-1.95s.06,0,.08,0c.09,0,.15-.04.2-.07,0,0,0,0,0,0,0,0,0,0,.01,0,0,0,.03,0,.04-.01,0,0,.01-.01.01-.02l.03-.06s.02-.04.03-.06l.26-.42s0,0,0,0c.09-.19.05-.44-.09-.72.49-1.04.91-2.1,1.24-3.2.09-.29.14-.58.22-.87.09-.36.2-.72.27-1.09.17-.83.27-1.66.34-2.5.12-.09.22-.17.28-.25h0s0,0,0,0c0,0,.02-.02.03-.03,0,0,0-.02,0-.03,0,0,0,0,0,0h0s0,0,0,0v-.5s0,0,0,0v-.03s0-.03-.01-.04c-.06-.06-.14-.12-.22-.18v-.07s0-.7,0-.7c.08-.06.15-.12.2-.18,0,0,0,0,0,0,0,0,0,0,0,0,0,0,.02-.02.03-.03,0,0,0-.02,0-.03,0,0,0,0,0,0h0s0,0,0,0v-.5s0,0,0,0v-.03s0-.03-.01-.04c-.08-.08-.19-.16-.29-.25-.02-.28-.02-.56-.05-.83,0-.09-.03-.17-.04-.25-.07-.57-.15-1.14-.26-1.7-.1-.5-.24-.99-.38-1.48-.04-.12-.06-.25-.1-.37-.3-.95-.68-1.85-1.12-2.72.11-.06.18-.12.21-.16,0,0,.02,0,.02-.01,0,0,0-.01,0-.02,0,0,0,0,0,0,0,0,0,0,0-.01,0-.01.01-.03,0-.04l-.34-.56c-.06-.06-.17-.12-.31-.18l-.35-.58s.11-.07.14-.1c0,0,.01,0,.02,0,.01,0,0-.02,0-.04,0,0,0,0,0,0,0,0,0,0,0,0,0-.01.01-.02,0-.03l-.48-.72s0-.01-.01-.01c-.15-.1-.37-.19-.61-.29-3.52-4.67-9.22-7.45-15.73-7.14v-.32s-.03-.06-.06-.05l-.45.05s-.03,0-.04.02c-.01.01-.02.03-.02.04v.18l-.59.06-.59.06v-.18Zm-.45.11l.33-.03v6.57s-.33.03-.33.03v-6.56Zm13.42,5.8v-.45c.29.22.58.44.86.69.12.11.22.23.34.34-.19-.03-.38-.05-.58-.08-.2-.18-.41-.33-.62-.49Zm.38.46c-.13-.02-.25-.03-.38-.05v-.26c.12.1.25.2.38.3Zm.56-.32c-.3-.27-.62-.51-.94-.75v-.02h-.02c-3.15-2.42-7.05-3.62-11.2-3.44v-1.14c4.88-.23,9.45,1.32,12.96,4.47.61.55,1.16,1.14,1.69,1.76-.58-.15-1.27-.29-2.02-.41-.16-.15-.3-.32-.47-.47Zm5.28,10.46c-.12-.04-.23-.08-.36-.11-.37-2.74-1.36-5.27-2.92-7.43.16.03.31.05.47.08,1.51,2.19,2.47,4.72,2.81,7.46Zm-2.64-7.43c.63.12,1.18.24,1.65.37,1.31,2.27,2.1,4.83,2.33,7.57-.33-.17-.74-.33-1.21-.47-.33-2.74-1.28-5.28-2.77-7.47Zm4.53,10.04c-1.12-.81-3.57-1.42-7.19-1.76-.3-.03-.61-.05-.91-.07v-1.17c.27.02.54.04.81.06,2.17.21,5.87.72,7.3,1.86v1.09Zm-8.1-6.75c1.58-.47,2.96-.95,4.03-1.36.32.61.59,1.24.83,1.88.1.26.16.53.25.8.23.81.43,1.7.59,2.67-1.25-.33-2.85-.59-4.79-.77-.3-.03-.61-.05-.92-.07v-3.15Zm3.17-2.82c.21.31.42.62.61.94-.96.39-2.22.82-3.77,1.27v-1.15c1.28-.37,2.32-.73,3.17-1.06Zm-3.17.94v-.36c1.17-.34,2.12-.68,2.89-1,.07.1.14.22.21.32-.83.32-1.85.67-3.1,1.03Zm3.83.11c.06.1.1.21.15.31-1.04.4-2.38.87-3.98,1.34v-.37c1.6-.46,2.87-.9,3.83-1.28Zm-1-1.57c-.77.32-1.71.65-2.83.98v-1.4c1.01.09,1.94.2,2.76.33.02.03.05.06.07.09Zm-2.83,12.75v-.29c.07-.02.15-.03.22-.05,2.2-.59,4.18-1.23,5.67-1.82-.02.38-.03.77-.06,1.15-1.71.7-3.92,1.43-5.69,1.87-.06.01-.12.03-.18.04.02-.3.04-.6.04-.9Zm6.49-2.79c.42.14.79.3,1.11.48-.1,2.72-.75,5.41-1.89,7.94-.21-.26-.49-.54-.82-.85,1.02-2.42,1.58-4.98,1.6-7.57Zm-1.69,7.48c-.08-.07-.17-.14-.25-.22.98-2.37,1.5-4.88,1.5-7.41,0,0,0,0,0,0,.11.03.22.07.33.1-.02,2.57-.57,5.12-1.58,7.52Zm-4.85-3.67c.07-.02.14-.03.2-.05,1.75-.44,3.94-1.16,5.66-1.85-.02.14-.04.28-.06.41-1.47.58-3.43,1.21-5.54,1.78-.04,0-.08.02-.11.03-.05-.03-.1-.06-.15-.1,0-.07,0-.15.01-.22Zm5.78-1.35c-.02.15-.04.31-.07.46-.28,1.48-.71,2.91-1.25,4.24-1.04-.87-2.48-1.87-4.18-2.94,2.11-.56,4.03-1.18,5.5-1.75Zm.17-1.96c-1.49.59-3.5,1.25-5.69,1.83-.07.02-.14.03-.2.05v-.35s.1-.02.15-.04c1.79-.45,4.04-1.19,5.76-1.9,0,.13-.02.27-.02.4Zm.03-.63s0,.07,0,.1c-1.72.71-3.98,1.46-5.79,1.91-.04.01-.09.02-.14.03v-3.03c.27.02.54.04.8.06,1.41.13,3.46.4,5.12.88,0,.02,0,.03,0,.05Zm-6.13-13.57l-.49.05c-3-2.17-6.66-3.22-10.53-3.06v-.33c4.08-.18,7.91.98,11.02,3.34Zm-11.02-2.89c1.91-.08,3.76.13,5.51.64.38.12.76.24,1.14.38.09.04.19.07.28.11.82.33,1.61.71,2.36,1.16.36.21.71.43,1.05.67l-10.34,1.07v-4.03Zm11.09,3.02v16.42c-.01,3.24-1.29,6.43-3.6,8.97-2.32,2.56-5.4,4.16-8.67,4.5-3.22.34-6.28-.63-8.63-2.72-2.32-2.07-3.6-5-3.6-8.24v-.07s0-16.32,0-16.32l24.51-2.55Zm-2.01,27.35c-1.51.43-3.53.94-5.8,1.37.97-.48,1.89-1.07,2.74-1.77.54-.13,1.06-.25,1.59-.39.37-.09.75-.19,1.15-.28,1.71-.42,3.25-.87,4.56-1.31-.33.46-.67.9-1.04,1.34-.87.3-1.92.65-3.21,1.05Zm3.07-.88c-.13.15-.25.31-.39.46-.02.02-.04.04-.06.06-.99.34-1.89.63-2.47.78-2.12.66-5.07,1.29-7.9,1.72.52-.16,1.04-.37,1.54-.6,2.43-.44,4.61-.99,6.22-1.45,1.21-.37,2.22-.7,3.05-.99Zm-3.4-.3c-.4.1-.78.19-1.16.28-.46.12-.92.23-1.38.34.19-.16.39-.33.57-.5.35-.08.71-.17,1.06-.26.28-.07.57-.14.86-.21,1.93-.5,3.47-.97,4.68-1.38.07.05.14.11.2.16-.05.07-.1.14-.15.21-1.33.45-2.92.92-4.68,1.35Zm.58-.63c-.22.06-.42.12-.65.18-.29.07-.58.14-.86.21-.3.07-.59.15-.89.22.22-.22.45-.43.66-.66.13-.14.25-.3.37-.45.48.18.93.35,1.37.51Zm-1.29-.61c.08-.1.17-.2.25-.3.66.25,1.29.47,1.89.67-.2.06-.43.12-.65.18-.48-.17-.97-.35-1.49-.55Zm2.35.32c-.63-.21-1.3-.44-2.02-.71.61-.79,1.11-1.63,1.53-2.5,1.39.88,2.52,1.67,3.37,2.33-.81.27-1.76.56-2.88.88Zm-24.49,4.38c-.15-.14-.28-.29-.43-.43,2.8.41,5.86.57,9.15.5.51.14,1.04.24,1.57.3-3.33.15-7.05.07-10.29-.37Zm5-1.71c.18.13.37.25.55.37-2.86-.04-5.27-.23-7.2-.47-.11-.14-.21-.28-.31-.42,2.4.28,4.71.45,6.96.52Zm-7.06-.65c-.04-.05-.08-.1-.11-.15.5-.25,1.01-.47,1.46-.64,1.03-.4,2.11-.77,3.24-1.1.48.69,1.03,1.32,1.67,1.89.21.19.44.36.66.53-2.24-.07-4.53-.24-6.91-.53Zm1.31-.9c-1.26.48-3.29,1.48-3.68,2.22l-.17-.27c.1-.38,1.34-1.34,3.78-2.28,1.04-.41,2.07-.76,3.09-1.06.06.1.13.21.2.31-1.12.33-2.19.69-3.21,1.09Zm-.81,1.58c1.96.24,4.4.43,7.29.46.81.51,1.68.91,2.6,1.19-3.2.06-6.17-.12-8.9-.54-.11-.11-.23-.22-.33-.33-.22-.26-.44-.52-.65-.78Zm-5.53-9.8c.31-.23.7-.46,1.14-.7.02,2.89.7,5.61,1.96,8.01-.39.21-.76.43-1.04.65-1.26-2.4-1.97-5.1-2.06-7.97Zm1.96,8.04c-.1.08-.19.17-.27.25-1.24-2.35-1.99-5.03-2.13-7.93.09-.09.2-.18.32-.28.11,2.87.82,5.56,2.08,7.96Zm-.7-8.8c.11-.06.22-.11.33-.17,0,.02,0,.05,0,.07,0,2.87.68,5.57,1.93,7.95-.1.05-.21.11-.31.16-1.26-2.4-1.95-5.12-1.96-8.01Zm.02-8.33c.11-.02.23-.03.38-.03-.94,2.16-1.53,4.43-1.72,6.74-.13.09-.24.18-.34.26.17-2.42.75-4.77,1.69-6.98Zm.5-.03c.32.01.7.06,1.16.14-.84,1.86-1.39,3.81-1.64,5.8-.49.25-.91.49-1.25.71.2-2.28.79-4.52,1.73-6.66Zm1.27.16c.11.02.21.04.32.06-.8,1.76-1.33,3.6-1.59,5.48-.12.06-.24.11-.36.17.25-1.96.8-3.88,1.62-5.71Zm-.41,2.37c.7.52,1.6,1.12,2.7,1.78-1.27.42-2.44.87-3.4,1.32.17-1.07.41-2.11.71-3.1Zm.03-.12c.04-.14.07-.28.12-.41.79.62,1.84,1.33,3.15,2.12-.15.05-.3.1-.45.14-1.15-.7-2.09-1.32-2.81-1.86Zm.16-.54c.15-.44.33-.87.5-1.29.05-.11.1-.22.15-.33,1.07.24,2.45.65,4.06,1.21.03.01.05.03.08.04v2.12c-.4.11-.79.22-1.17.33-.11.03-.22.07-.33.1-1.29-.78-2.42-1.53-3.28-2.2Zm4.78-8.48v.07c-.31.31-.63.61-.93.94-.17.19-.31.38-.47.57-.78.28-1.47.57-2.06.86.53-.73,1.08-1.45,1.7-2.14,3.53-3.89,8.11-6.41,13-7.2v1.14c-4.14.69-8.02,2.69-11.17,5.76h-.07Zm0,1.1c-.13.04-.26.08-.38.13.12-.13.26-.26.38-.39v.26Zm-.61.19s0,0,0,.01c-.2.07-.39.13-.57.2.12-.14.23-.29.35-.42.27-.3.56-.57.84-.85v.45c-.2.21-.41.4-.61.61Zm.61-.07v.35c-1.31.41-2.46.85-3.37,1.26-.21-.02-.39-.02-.56-.02.97-.52,2.31-1.06,3.93-1.58Zm0,.47v1.06c-.5.15-.98.29-1.44.45-.64-.16-1.21-.27-1.72-.34.87-.38,1.94-.78,3.16-1.17Zm0,1.18v.35c-.22.07-.43.13-.64.2-.2-.06-.4-.11-.59-.16.4-.13.81-.26,1.23-.38Zm0,.47v.27c-.14-.04-.29-.09-.43-.13.14-.04.29-.09.43-.13Zm-5.89,12.07c0-.12-.02-.24-.02-.36,2.11.43,4.68.64,5.91.71v.35c-2.49-.11-4.47-.41-5.89-.7Zm5.89.82v.37s0,0,0,0c0,.27.03.54.04.81-1.2-.08-3.76-.28-5.86-.7,0-.02,0-.04-.01-.07-.04-.36-.04-.73-.05-1.1,1.47.3,3.48.59,5.88.69Zm-5.8.6c2.12.42,4.67.62,5.85.69,0,.12.01.24.03.35-2.44-.11-4.4-.39-5.82-.67-.02-.12-.04-.25-.06-.37Zm6.54-16.91l-.49.05c3.11-2.99,6.93-4.95,11-5.62v.33c-3.86.65-7.51,2.46-10.5,5.24Zm1.52-1.14s.07-.05.11-.08c.34-.26.7-.5,1.05-.74,1.35-.89,2.8-1.64,4.29-2.21.08-.03.15-.05.23-.08.37-.14.73-.26,1.1-.37.72-.21,1.46-.37,2.2-.49v4.03l-10.31,1.07c.43-.39.87-.77,1.32-1.12Zm-8.17,16.14s0-.04,0-.05c0-.04,0-.08,0-.12,1.39-.67,3.16-1.33,4.82-1.83.35-.11.72-.21,1.09-.31v3.03c-1.24-.08-3.82-.28-5.91-.72Zm.19,2.41c1.48.29,3.46.56,5.82.67.12,1.01.38,1.98.75,2.89-.95.3-1.87.61-2.75.96-.41.16-1.23.5-2.03.9-.91-1.7-1.49-3.5-1.78-5.42Zm16.96-24.69v.33c-4.92.79-9.54,3.32-13.09,7.24-.67.74-1.27,1.52-1.83,2.32-.18.09-.34.18-.5.27-.04,0-.07.01-.1.01,3.51-5.27,9.12-9.15,15.52-10.17Zm-16.22,10.51c.57-.47,2.27-.26,4.98.58v.36c-2.03-.63-3.54-.92-4.42-.84h-.05c-.16.02-.43.05-.65.18l.15-.28Zm-.29.56s0,0,.01,0c0-.01.02-.04.05-.07.05-.05.11-.09.17-.12,0,0,0,.02,0,.03l-.23.46c-.03-.1-.03-.2,0-.29Zm.42-.27c.14-.04.29-.06.38-.07h.05c.88-.08,2.39.21,4.42.85v3.24c-2.98-1.03-5.23-1.55-6.2-1.38l1.35-2.64Zm-1.66,2.87c.61-.44,3.09.09,6.51,1.28v.39c-2.95-1.03-5.2-1.58-6.26-1.47-.16.02-.3.05-.4.1l.15-.3Zm-.26.78c-.02-.1-.02-.18,0-.26,0,0,0,0,0,0,.05-.06.13-.11.23-.15,0,.02,0,.03.01.05-.07.16-.13.31-.19.47-.02-.04-.04-.08-.05-.12Zm-1.59,7.11c.26-.74,3.02-2.24,7.21-3.5.37-.11.76-.22,1.15-.33v.36c-.37.1-.73.2-1.08.31-2.56.75-6.45,2.26-7.28,3.48v-.32Zm.02.53s.03-.05.04-.07v.09s-.03-.01-.04-.02Zm.16-.25c.85-1.05,4.16-2.45,7.13-3.32.35-.1.7-.2,1.06-.3v1.16c-.4.11-.79.22-1.18.33-3.38,1.03-6.12,2.29-7.01,3.18v-1.05Zm-.18,1.48c.33-.94,3.96-2.5,7.21-3.49.37-.11.76-.22,1.15-.33v.36c-.37.1-.75.21-1.11.32-2.36.72-6.39,2.21-7.26,3.48v-.33Zm.02.53c.03-.07.08-.15.14-.22,0,.09,0,.19.01.28-.06-.02-.11-.04-.15-.06Zm2.3,7.95c.08-.53,1.71-1.5,4.18-2.48.88-.35,1.8-.67,2.76-.96.04.11.09.21.14.31-.98.3-1.92.63-2.82.98-.39.16-3.68,1.48-4.09,2.43l-.17-.28Zm.26.38s0-.01,0-.02l.02.02s-.02,0-.02,0Zm.07-.15c.4-.63,2.24-1.59,3.96-2.27.91-.36,1.86-.69,2.84-.99.17.36.36.71.57,1.06-1.01.31-2.03.65-3.06,1.05-1.98.77-3.26,1.58-3.69,2.1l-.63-.96Zm.82,1.61s.05-.09.09-.14c.05.07.11.14.16.22-.08-.02-.17-.05-.24-.07Zm16.14,7.23c-6.67.33-12.5-2.61-15.97-7.5.07-.08.16-.17.26-.25.75,1.06,1.63,2.05,2.62,2.93,3.55,3.17,8.16,4.73,13.09,4.49v.33Zm0-.45c-4.89.24-9.47-1.31-13-4.47-.99-.88-1.85-1.86-2.6-2.92.28-.22.64-.44,1.04-.66.69.96,1.49,1.85,2.39,2.66,3.3,2.95,7.59,4.41,12.17,4.21v1.17Zm0-1.29c-4.55.2-8.8-1.25-12.09-4.19-.89-.8-1.68-1.68-2.37-2.62.1-.06.21-.11.31-.17.66.91,1.43,1.76,2.29,2.53,3.22,2.88,7.39,4.3,11.85,4.11v.33Zm0-.45c-1.31.06-2.6-.02-3.84-.25-2.04-.41-3.85-1.15-5.26-1.91-.89-.51-1.73-1.12-2.52-1.81,2.94.4,6.73.58,11.08.3.18,0,.35.02.53.02v3.65Zm.12,2.59v-6.25c.11,0,.22-.01.33-.02v6.23s-.33.03-.33.03Zm.45-.29v-5.98c.19-.01.37-.01.56-.03.21-.02.41-.06.62-.1v5.98s-1.18.12-1.18.12Zm1.3.1v-6.23c.11-.02.22-.03.33-.05v6.25s-.33.03-.33.03Zm.82-6.39c3.11-.42,6.51-1.13,8.88-1.86.54-.14,1.36-.4,2.27-.71-.35.38-.71.75-1.08,1.1-3.02,2.73-6.58,4.5-10.43,5.22v-3.65c.13-.03.25-.06.37-.09Zm11.47-2.74c.67-.74,1.27-1.53,1.82-2.34.09.07.16.14.24.21-.56.81-1.15,1.6-1.83,2.34-3.28,3.62-7.53,5.97-12.08,6.73v-.33c4.46-.75,8.63-3.05,11.84-6.6Zm-11.84,7.06c4.58-.76,8.86-3.12,12.16-6.77.67-.74,1.27-1.53,1.83-2.34.35.3.61.56.79.78-.56.79-1.15,1.57-1.82,2.31-3.52,3.88-8.08,6.39-12.96,7.19v-1.17Zm0,1.62v-.33c4.91-.8,9.51-3.33,13.04-7.24.66-.73,1.25-1.5,1.81-2.29.09.12.15.23.18.31,0,0,0,0,0,.01-3.52,4.94-8.92,8.54-15.04,9.54Zm14.76-8.93c.1-.13.18-.27.28-.4.02,0,.04,0,.06-.01.05.22-.02.32-.03.33h0s0,0,0,.01c-.07.04-.17.07-.31.07Zm.67-.6l-.19.32c0-.1-.02-.23-.09-.39-.21-.68-2.07-2.19-5.2-4.18.05-.11.1-.21.15-.32,3.04,1.9,5.18,3.52,5.36,4.33.02.1.01.18-.03.24Zm.06-.45c-.4-.88-2.44-2.42-5.34-4.23.44-1.03.74-2.1.91-3.18,3.09,1.93,5.63,3.82,5.91,4.92v.06s-1.48,2.44-1.48,2.44Zm1.5-2.04l-.03.05s-.09.04-.16.05l.2-.33s0,0,.01,0v.05c0,.1,0,.14-.02.19Zm.3-.48l-.16.26v-.05c.02-1.12-2.72-3.18-6.04-5.25.02-.14.05-.28.06-.43,4.12,2.57,6.53,4.64,6.14,5.47Zm-.05-.8c-.06-.1-.13-.2-.22-.31,1.15-2.54,1.81-5.24,1.93-7.97.12.07.22.14.32.21-.15,2.82-.86,5.55-2.03,8.07Zm2.13-7.68c0-.1,0-.2.01-.3.06.05.11.1.16.14-.04.05-.1.1-.17.15Zm.2-.67v.36c-1.32-1.25-5.25-1.8-7.51-2.01-.27-.02-.55-.04-.83-.06v-.35c.3.02.6.04.89.07,3.98.38,6.55,1.07,7.45,2Zm-.12-1.16v-.17s.06.05.09.08c-.03.03-.05.06-.09.09Zm.12-.6v.36c-1.32-1.25-5.25-1.8-7.51-2.01-.27-.02-.55-.04-.83-.06v-.35c.3.02.6.04.89.07,3.98.38,6.55,1.07,7.45,2Zm-.32-.42c-.1-.07-.22-.13-.34-.19-.22-2.74-.99-5.31-2.28-7.59.17.05.33.11.47.16,1.21,2.26,1.96,4.83,2.15,7.62Zm-1.87-7.35c-.03-.07-.07-.13-.1-.2.08.04.16.07.24.11-.03.02-.08.05-.14.09Zm-.14-.62l.22.36c-1.07-.49-3.3-.92-6.23-1.19v-.34c2.93.27,5.63.79,6.01,1.17Zm-.41-.34c-1-.35-3.2-.74-5.6-.95v-1.1c1.92.2,3.98.57,5.02,1.12l.58.94Zm-.22-.6l-.12-.19c.07.05.14.09.19.14-.02.01-.05.04-.08.05Zm-.35-.73l.26.39c-1-.62-3.23-1.03-5.29-1.24v-.36c2.31.27,4.27.73,5.03,1.22Zm-.76-.48c-.19-.07-.41-.13-.64-.2-.56-.67-1.15-1.32-1.81-1.91-3.54-3.16-8.14-4.72-13.05-4.49v-.33c6.39-.31,11.99,2.39,15.49,6.93Zm-15.61-7.3v6.57s-.33.03-.33.03v-6.57s.33-.03.33-.03Zm-.45.28v6.33s-1.18.12-1.18.12v-6.33s1.18-.12,1.18-.12Z"/><path class="cls-5" d="m296.63,161.67v1.17c.31.02.62.04.91.07,3.62.34,6.07.95,7.19,1.76v-1.09c-1.42-1.14-5.13-1.65-7.3-1.86-.26-.02-.54-.04-.81-.06Z"/><path class="cls-5" d="m271.84,165.42v-1.16c-.36.1-.72.2-1.06.3-2.96.87-6.27,2.28-7.13,3.32v1.05c.89-.89,3.63-2.15,7.01-3.18.38-.11.78-.22,1.18-.33Z"/><path class="cls-5" d="m296.63,161.21v.35c.28.02.56.04.83.06,2.26.22,6.19.76,7.51,2.01v-.36c-.9-.93-3.47-1.62-7.45-2-.29-.03-.59-.04-.89-.07Z"/><path class="cls-5" d="m270.73,166.21c.36-.11.74-.21,1.11-.32v-.36c-.39.11-.78.22-1.15.33-3.26.99-6.88,2.55-7.21,3.49v.33c.87-1.27,4.9-2.76,7.26-3.48Z"/><path class="cls-5" d="m296.63,162.97v.35c.28.02.56.04.83.06,2.26.22,6.19.76,7.51,2.01v-.36c-.9-.93-3.47-1.62-7.45-2-.29-.03-.59-.05-.89-.07Z"/><path class="cls-5" d="m270.76,164.45c.35-.11.72-.21,1.08-.31v-.36c-.39.11-.78.22-1.15.33-4.19,1.26-6.95,2.76-7.21,3.5v.32c.83-1.22,4.72-2.72,7.28-3.48Z"/><path class="cls-5" d="m296.63,152.48v1.1c2.4.22,4.61.6,5.6.95l-.58-.94c-1.05-.55-3.1-.92-5.02-1.12Z"/><path class="cls-5" d="m271.84,156.15v-1.06c-1.22.38-2.29.78-3.16,1.17.5.06,1.07.17,1.72.34.46-.15.94-.3,1.44-.45Z"/><path class="cls-5" d="m271.84,156.62v-.35c-.43.12-.84.25-1.23.38.19.05.39.1.59.16.21-.07.43-.13.64-.2Z"/><path class="cls-5" d="m268.47,156.23c.91-.41,2.06-.85,3.37-1.26v-.35c-1.62.52-2.96,1.06-3.93,1.58.18,0,.36,0,.56.02Z"/><path class="cls-5" d="m296.63,152.36c2.06.21,4.3.62,5.29,1.24l-.26-.39c-.76-.48-2.72-.95-5.03-1.22v.36Z"/><path class="cls-5" d="m296.63,154.05c2.93.27,5.16.7,6.23,1.19l-.22-.36c-.38-.38-3.08-.9-6.01-1.17v.34Z"/><path class="cls-5" d="m270.44,176.93c1.03-.4,2.05-.75,3.06-1.05-.21-.34-.4-.69-.57-1.06-.99.3-1.94.63-2.84.99-1.72.68-3.56,1.63-3.96,2.27l.63.96c.43-.53,1.71-1.34,3.69-2.1Z"/><path class="cls-5" d="m270.47,177.03c-2.43.94-3.68,1.9-3.78,2.28l.17.27c.39-.73,2.43-1.74,3.68-2.22,1.02-.4,2.09-.76,3.21-1.09-.07-.1-.13-.2-.2-.31-1.02.31-2.05.66-3.09,1.06Z"/><path class="cls-5" d="m270.05,175.7c.9-.36,1.84-.68,2.82-.98-.05-.1-.09-.21-.14-.31-.96.3-1.88.62-2.76.96-2.47.98-4.11,1.95-4.18,2.48l.17.28c.41-.94,3.7-2.27,4.09-2.43Z"/><path class="cls-5" d="m302.37,174.2c-.28-1.09-2.82-2.99-5.91-4.92-.17,1.09-.47,2.16-.91,3.18,2.9,1.81,4.94,3.36,5.34,4.23l1.47-2.44v-.06Z"/><path class="cls-5" d="m271.84,160.87v-3.24c-2.04-.63-3.55-.93-4.42-.85h-.05c-.1.02-.24.04-.38.08l-1.35,2.64c.97-.17,3.23.35,6.2,1.38Z"/><path class="cls-5" d="m265.58,159.92c1.06-.11,3.31.43,6.26,1.47v-.39c-3.42-1.19-5.91-1.73-6.52-1.28l-.15.3c.11-.05.24-.08.4-.1Z"/><path class="cls-5" d="m296.55,168.71c-.02.14-.04.28-.06.43,3.32,2.07,6.06,4.13,6.04,5.25v.05s.16-.26.16-.26c.39-.83-2.02-2.9-6.14-5.47Z"/><path class="cls-5" d="m267.37,156.66h.05c.88-.09,2.39.21,4.42.84v-.36c-2.71-.84-4.42-1.05-4.98-.58l-.15.28c.22-.13.49-.16.65-.18Z"/><path class="cls-5" d="m295.5,172.58c-.05.11-.1.22-.15.32,3.13,1.99,4.98,3.5,5.2,4.18.07.16.09.29.09.39l.19-.32c.04-.07.05-.14.03-.24-.18-.8-2.31-2.42-5.36-4.33Z"/><path class="cls-1" d="m271.98,169.85v.07c0,3.24,1.28,6.17,3.6,8.24,2.35,2.09,5.41,3.06,8.63,2.72,3.27-.34,6.35-1.94,8.67-4.5,2.31-2.55,3.59-5.73,3.6-8.97v-.05s0-16.37,0-16.37l-24.51,2.55v16.32Zm.35-15.93l23.73-2.49v16c0,3.15-1.24,6.24-3.48,8.72-2.25,2.47-5.22,4.02-8.39,4.35-3.15.33-6.13-.59-8.38-2.6-2.26-2.01-3.5-4.84-3.5-7.97h.05s0-.02,0-.02h0s-.05,0-.05,0v-15.98Z"/><path class="cls-1" d="m279.29,174.14c1.35,1.2,3.09,1.76,4.91,1.57,1.87-.2,3.63-1.11,4.95-2.57,1.13-1.24,1.82-2.72,2.01-4.27.03-.27.05-.59.05-.88v-1.07s0-10.1,0-10.1l-14,1.45v11.16c0,1.83.76,3.55,2.07,4.72Zm7.74-9.82l3.11-.32v2.24c0,.46-.18.9-.46,1.23-.28.33-.67.56-1.1.61-.43.04-.82-.1-1.1-.38-.28-.27-.46-.67-.46-1.13h0s0,0,0,0v-2.24Zm-4.31-4.95l3.11-.32v2.24c0,.46-.18.9-.46,1.23-.28.33-.67.56-1.1.61-.43.04-.82-.1-1.1-.38-.28-.27-.46-.67-.46-1.13h0s0,0,0,0v-2.24Zm0,5.4l3.11-.32v2.24c0,.46-.18.9-.46,1.23-.28.33-.67.56-1.1.61-.43.04-.82-.1-1.1-.38-.28-.27-.46-.67-.46-1.13h0s0,0,0,0v-2.24Zm0,5.35l3.11-.32v2.24c0,.46-.18.9-.46,1.23-.28.33-.67.56-1.1.61-.43.04-.82-.1-1.1-.38-.28-.27-.46-.67-.46-1.13h0s0,0,0,0v-2.24Zm-4.32-4.9l3.11-.32v2.24c0,.46-.18.9-.46,1.23-.28.33-.67.56-1.1.61-.43.04-.82-.1-1.1-.38-.28-.27-.46-.67-.46-1.13h0s0,0,0,0v-2.24Z"/><path class="cls-6" d="m272.43,169.91c0,3.11,1.23,5.91,3.47,7.9,2.24,1.99,5.19,2.91,8.31,2.58,3.13-.33,6.09-1.86,8.31-4.31,2.21-2.44,3.44-5.49,3.45-8.6v-.04s0-15.89,0-15.89l-23.52,2.47v15.88s-.07,0-.07,0h0s0,0,0,0h0s.05,0,.05,0h0Zm19.49-13.95l.14-1.2c-.09,0-.17-.07-.17-.18,0-.05.02-.09.04-.13-.07-.02-.13-.07-.13-.16,0-.11.08-.21.18-.22h.11s.02-.64.02-.64c-.09,0-.16-.05-.16-.14v-.47s.36-.04.36-.04v.19h.08v-.19l.36-.04v.19h.08v-.19l.32-.03.04.02v.44c0,.08-.07.16-.16.17l.02.62h.13s.05-1.3.05-1.3h-.02c-.09.01-.17-.05-.17-.14v-.47s.36-.04.36-.04v.18h.08v-.19l.36-.04v.19h.08v-.19l.32-.03.04.02v.44c0,.09-.08.17-.17.18h-.01s.06,1.27.06,1.27h.13s.02-.64.02-.64c-.09,0-.16-.05-.16-.14v-.47s.36-.04.36-.04v.19h.08v-.19l.36-.04v.19h.08v-.19l.32-.03.04.02v.44c0,.08-.07.16-.16.17l.02.62h.1c.1-.02.18.06.18.17,0,.08-.05.15-.12.18.03.03.05.07.05.12,0,.11-.08.2-.17.21l.13,1.17h.01c.1-.01.19.08.19.19s-.08.22-.19.23l-3.52.37c-.1.01-.19-.08-.19-.19s.08-.22.18-.23Zm0,9.61l.14-1.2c-.09,0-.17-.07-.17-.18,0-.05.02-.09.04-.13-.07-.02-.13-.07-.13-.16,0-.11.08-.21.18-.22h.11s.02-.64.02-.64c-.09,0-.16-.05-.16-.14v-.47s.36-.04.36-.04v.19h.08v-.19l.36-.04v.19h.08v-.19l.32-.03.04.02v.44c0,.08-.07.16-.16.17l.02.62h.13s.05-1.3.05-1.3h-.02c-.09.01-.17-.05-.17-.14v-.47s.36-.04.36-.04v.18h.08v-.19l.36-.04v.19h.08v-.19l.32-.03.04.02v.44c0,.09-.08.17-.17.18h-.01s.06,1.27.06,1.27h.13s.02-.64.02-.64c-.09,0-.16-.05-.16-.14v-.47s.36-.04.36-.04v.19h.08v-.19l.36-.04v.19h.08v-.19l.32-.03.04.02v.44c0,.08-.07.16-.16.17l.02.62h.1c.1-.02.18.06.18.17,0,.08-.05.15-.12.18.03.03.05.07.05.12,0,.11-.08.2-.17.21l.13,1.17h.01c.1-.01.19.08.19.19s-.08.22-.19.23l-3.52.37c-.1.01-.19-.08-.19-.19s.08-.22.18-.23Zm-.46,6.51l.13-.14.25.23-.13.14.06.05.13-.14.23.21v.04s-.31.33-.31.33c-.03.03-.07.05-.11.06-.04,0-.08,0-.11-.03l-.43.5.09.08.95-.96h-.02s-.05-.09-.05-.13c0-.04.02-.08.05-.12l.33-.37.26.23-.13.14.06.05.13-.14.26.23-.13.14.06.05.13-.14.23.21.02.03-.32.35s-.07.05-.11.06c-.04,0-.09,0-.12-.04h0s-.87,1.02-.87,1.02l.09.08.46-.47c-.06-.06-.06-.15,0-.22l.33-.37.25.23-.13.14.06.05.13-.14.25.23-.13.14.06.05.13-.14.23.2v.04l-.31.34s-.07.05-.11.06c-.04,0-.08,0-.11-.03l-.43.5.07.07c.07.06.06.18-.01.27-.04.05-.09.07-.14.08-.02,0-.04-.01-.06-.02,0,.04-.02.09-.05.12-.04.05-.1.07-.15.08-.04,0-.08,0-.11-.03l-.75,1h0c.07.07.06.2-.02.29-.05.05-.1.08-.16.08-.05,0-.09,0-.12-.04l-2.48-2.24c-.07-.07-.06-.19.02-.29.04-.04.09-.07.14-.08.05-.01.1,0,.14.03l.94-.83s-.04-.06-.04-.1c0-.05.02-.11.06-.15.03-.04.07-.06.12-.07-.03-.07-.03-.15.03-.21.04-.04.09-.07.14-.08,0,0,0,0,0,0,.05,0,.09,0,.12.04l.08.07.46-.47c-.06-.06-.06-.15,0-.22l.33-.37.25.23-.13.14.06.05Zm-8.97-15.14h.01s.12-1.2.12-1.2c-.09,0-.16-.07-.16-.18,0-.05.02-.09.05-.13-.07-.02-.12-.07-.12-.16,0-.11.08-.21.18-.22h.1s.02-.64.02-.64c-.08,0-.16-.06-.16-.14v-.44s.04-.03.04-.03h.02s.3-.03.3-.03v.18h.08v-.19l.36-.04v.18h.08v-.19l.36-.04v.47c0,.09-.07.16-.16.17l.02.62h.13s.06-1.3.06-1.3h-.01c-.09.01-.17-.05-.17-.14v-.44s.04-.03.04-.03h.02s.31-.03.31-.03v.18h.08v-.19l.36-.04v.18h.08v-.19l.36-.04v.47c0,.09-.07.17-.17.18h-.02s.05,1.27.05,1.27h.13s.02-.64.02-.64c-.08,0-.16-.06-.16-.14v-.44s.04-.03.04-.03h.02s.3-.03.3-.03v.18h.08v-.19l.36-.04v.18h.08v-.19l.36-.04v.47c0,.09-.07.16-.16.17l.02.62h.11c.1-.02.18.06.18.17,0,.09-.06.15-.13.19.02.03.04.07.04.12,0,.1-.07.19-.17.21l.14,1.17c.1,0,.18.08.18.19s-.08.22-.19.23l-3.52.37c-.1.01-.19-.08-.19-.19s.08-.22.19-.23Zm-5.33,1.22l14.12-1.46.03.03v.02s0,10.15,0,10.15v1.07c0,.29-.03.62-.06.89-.19,1.57-.89,3.07-2.04,4.34-1.35,1.48-3.13,2.41-5.03,2.61-1.85.19-3.62-.37-4.98-1.59-1.33-1.19-2.1-2.93-2.1-4.79v-11.27s.05,0,.05,0Zm-.26,15.26l.25-.28.33.3c.06.06.06.15,0,.22l.46.37.08-.09s.08-.06.12-.06c0,0,0,0,0,0,.05,0,.11.01.14.05.06.05.06.14.03.21.04,0,.08.01.12.04.04.04.06.09.06.14,0,.04-.02.08-.04.11l.94.64s.09-.06.14-.06c.05,0,.1.02.14.05.08.07.09.2.02.28l-2.48,2.76s-.08.06-.12.06c-.06,0-.11-.01-.16-.05-.08-.07-.09-.2-.02-.28h0s-.75-.85-.75-.85c-.03.03-.07.05-.11.06-.05,0-.1-.01-.15-.05-.03-.03-.05-.07-.05-.11-.02.01-.04.03-.06.03-.05,0-.1,0-.14-.05-.08-.07-.08-.19-.01-.27l.07-.08-.43-.41s-.07.05-.11.06c-.04,0-.08,0-.11-.03l-.33-.29.04-.04.04.03-.04-.03.21-.23.13.11.06-.06-.13-.12.25-.28.13.12.06-.06-.13-.12.25-.28.33.3c.06.06.06.15,0,.22l.46.37.09-.1-.87-.85h0s-.08.07-.12.07c-.04,0-.08,0-.11-.03l-.33-.29.04-.04.04.03-.04-.03.22-.24.13.11.06-.06-.13-.12.26-.29.13.12.06-.06-.13-.12.26-.29.33.3s.05.06.05.11c0,.04-.02.09-.05.12l-.02.02.95.76.09-.1-.43-.41s-.07.05-.11.06c-.04,0-.08,0-.11-.03l-.31-.27v-.04l.23-.25.13.11.06-.06-.13-.12.25-.28.13.12.06-.06-.13-.12Zm-3.9-15.48h.01s.13-1.2.13-1.2c-.09,0-.17-.07-.17-.18,0-.05.02-.09.05-.13-.07-.02-.12-.07-.12-.16,0-.11.08-.21.18-.22h.1s.02-.64.02-.64c-.08,0-.16-.06-.16-.14v-.44s.04-.03.04-.03h.02s.3-.03.3-.03v.18h.08v-.19l.36-.04v.18h.08v-.19l.36-.04v.47c0,.09-.07.16-.16.17l.02.62h.13s.06-1.3.06-1.3h-.01c-.09.01-.17-.05-.17-.14v-.44s.04-.03.04-.03h.02s.31-.03.31-.03v.18h.08v-.19l.36-.04v.18h.08v-.19l.36-.04v.47c0,.09-.07.17-.17.18h-.02s.05,1.27.05,1.27h.13s.02-.64.02-.64c-.08,0-.16-.06-.16-.14v-.44s.04-.03.04-.03h.02s.3-.03.3-.03v.18h.08v-.19l.36-.04v.18h.08v-.19l.36-.04v.47c0,.09-.07.16-.16.17l.02.62h.11c.1-.02.18.06.18.17,0,.09-.06.15-.13.19.02.03.04.07.04.12,0,.1-.07.19-.17.21l.14,1.17c.1,0,.18.08.18.19s-.08.22-.19.23l-3.52.37c-.1.01-.19-.08-.19-.19s.08-.22.19-.23Zm0,9.61h.01s.13-1.2.13-1.2c-.09,0-.17-.07-.17-.18,0-.05.02-.09.05-.13-.07-.02-.12-.07-.12-.16,0-.11.08-.21.18-.22h.1s.02-.64.02-.64c-.08,0-.16-.06-.16-.14v-.44s.04-.03.04-.03h.02s.3-.03.3-.03v.18h.08v-.19l.36-.04v.18h.08v-.19l.36-.04v.47c0,.09-.07.16-.16.17l.02.62h.13s.06-1.3.06-1.3h-.01c-.09.01-.17-.05-.17-.14v-.44s.04-.03.04-.03h.02s.31-.03.31-.03v.18h.08v-.19l.36-.04v.18h.08v-.19l.36-.04v.47c0,.09-.07.17-.17.18h-.02s.05,1.27.05,1.27h.13s.02-.64.02-.64c-.08,0-.16-.06-.16-.14v-.44s.04-.03.04-.03h.02s.3-.03.3-.03v.18h.08v-.19l.36-.04v.18h.08v-.19l.36-.04v.47c0,.09-.07.16-.16.17l.02.62h.11c.1-.02.18.06.18.17,0,.09-.06.15-.13.19.02.03.04.07.04.12,0,.1-.07.19-.17.21l.14,1.17c.1,0,.18.08.18.19s-.08.22-.19.23l-3.52.37c-.1.01-.19-.08-.19-.19s.08-.22.19-.23Z"/><path d="m272.43,169.9v-15.88s23.54-2.47,23.54-2.47v15.94c-.01,3.11-1.24,6.16-3.45,8.6-2.23,2.45-5.18,3.98-8.31,4.31-3.12.33-6.07-.59-8.31-2.58-2.24-1.99-3.47-4.8-3.47-7.9h0s-.05,0-.05,0h-.05c0,3.14,1.24,5.98,3.5,7.98,2.26,2.01,5.24,2.93,8.38,2.6,3.16-.33,6.14-1.88,8.39-4.35,2.24-2.47,3.48-5.57,3.48-8.72v-16s-23.74,2.49-23.74,2.49v15.98s.04,0,.04,0h.05Z"/><path d="m279.21,174.22c1.37,1.22,3.14,1.78,4.98,1.59,1.9-.2,3.68-1.13,5.03-2.61,1.15-1.26,1.85-2.76,2.04-4.34.03-.27.05-.59.05-.89v-1.07s0-10.15,0-10.15v-.02s-.03-.03-.03-.03l-14.12,1.46h-.05s0,11.27,0,11.27c0,1.86.76,3.6,2.1,4.79Zm12-17.4v10.1s0,1.07,0,1.07c0,.29-.02.61-.05.88-.18,1.55-.88,3.03-2.01,4.27-1.33,1.46-3.09,2.37-4.95,2.57-1.82.19-3.56-.36-4.91-1.57-1.31-1.17-2.07-2.89-2.07-4.72v-11.16s13.99-1.45,13.99-1.45Z"/><path class="cls-5" d="m274.57,156.99s.14-.13.19-.13h0s.5.18.53.83l.27-.03c-.05-.94-.79-1.08-.8-1.08,0,0-.75.23-.78,1.25l.26-.03c.02-.42.19-.68.34-.82Z"/><path class="cls-5" d="m274.33,156.74c.07-.06.13-.1.2-.14l-1.29.14-.13,1.19.75-.08c.02-.58.26-.92.46-1.1Z"/><path class="cls-5" d="m274.97,156.55c.08.04.17.07.27.15.19.15.41.44.43.95l.75-.08-.14-1.16-1.31.14Z"/><path class="cls-5" d="m273,158.26l3.52-.37s.08-.06.08-.12-.04-.11-.08-.1l-3.52.37s-.08.06-.08.12.04.11.08.1Z"/><path d="m273,158.37l3.52-.37c.1-.01.19-.12.19-.23s-.08-.2-.18-.19l-.14-1.17c.09-.02.17-.11.17-.21,0-.05-.02-.09-.04-.12.07-.03.13-.1.13-.19,0-.11-.08-.19-.18-.18h-.11s-.02-.61-.02-.61c.09-.01.16-.09.16-.17v-.47s-.36.04-.36.04v.19h-.08s0-.18,0-.18l-.36.04v.19h-.08s0-.17,0-.17l-.3.03h-.02s-.04.03-.04.03v.44c0,.08.07.14.16.14l-.02.63h-.13s-.05-1.26-.05-1.26h.02c.09-.01.17-.09.17-.18v-.47s-.36.04-.36.04v.18h-.08s0-.18,0-.18l-.36.04v.19h-.08s0-.17,0-.17l-.31.03h-.02s-.04.03-.04.03v.44c0,.09.08.15.17.14h.01s-.06,1.28-.06,1.28h-.13s-.02-.61-.02-.61c.09-.01.16-.09.16-.17v-.47s-.36.04-.36.04v.19h-.08s0-.18,0-.18l-.36.04v.19h-.08s0-.17,0-.17l-.3.03h-.02s-.04.03-.04.03v.44c0,.08.07.14.16.14l-.02.63h-.1c-.1.02-.18.12-.18.23,0,.08.05.14.12.16-.03.04-.05.08-.05.13,0,.11.08.18.17.18l-.13,1.2h-.01c-.1.01-.19.12-.19.24s.08.21.19.19Zm3.41-.79l-.75.08c-.02-.51-.25-.8-.43-.95-.09-.08-.18-.12-.27-.15l1.31-.14.14,1.16Zm-.91-2.39l.7-.07.02.62-.75.08.02-.62Zm-.16-.15v-.36s.14-.01.14-.01v.18l.29-.03v-.19l.15-.02v.18l.29-.03v-.19l.15-.02v.37s-.03.06-.06.06l-.9.09s-.06-.02-.06-.05Zm-.93-.36l.68-.07.05,1.23-.78.08.05-1.24Zm-.11-.12s-.07-.02-.07-.05v-.36s.15-.02.15-.02v.18l.29-.03v-.18l.16-.02v.18l.29-.03v-.18l.16-.02v.37s-.03.06-.06.06l-.92.1Zm-1,.87l.7-.07.02.62-.75.08.02-.62Zm-.16-.15v-.36s.14-.01.14-.01v.18l.29-.03v-.19l.15-.02v.18l.29-.03v-.19l.15-.02v.37s-.03.06-.06.06l-.9.09s-.06-.02-.06-.05Zm-.15,1c0-.05.04-.1.08-.1l3.37-.35s.08.04.08.09-.04.1-.08.1l-3.37.35s-.08-.04-.08-.09Zm.08.29c0-.05.03-.1.07-.1l3.23-.34s.07.04.07.09-.03.1-.07.1l-3.23.34s-.07-.04-.07-.09Zm.17.18l1.29-.14c-.06.04-.13.08-.2.14-.2.19-.45.53-.46,1.1l-.75.08.13-1.19Zm1.51-.15s.75.14.8,1.08l-.27.03c-.03-.65-.49-.84-.53-.83h0s-.19.12-.19.13c-.15.14-.32.4-.34.82l-.26.03c.03-1.02.78-1.25.78-1.25Zm-.48,1.26h0s0,0,0,0h0Zm.05-.06c.02-.53.34-.77.42-.82.09.03.41.2.44.73l-.86.09Zm-1.33.25l3.52-.37s.08.04.08.1-.04.11-.08.12l-3.52.37s-.08-.04-.08-.1.04-.11.08-.12Z"/><path class="cls-5" d="m274.75,156.98c-.08.05-.4.28-.42.82l.86-.09c-.02-.53-.35-.69-.44-.73Z"/><rect class="cls-5" x="274.28" y="157.85" width="0" height="0"/><path class="cls-5" d="m273.08,156.35l3.37-.35s.08-.05.08-.1-.04-.09-.08-.09l-3.37.35s-.08.05-.08.1.04.09.08.09Z"/><path class="cls-5" d="m276.37,156.3s.07-.05.07-.1-.03-.09-.07-.09l-3.23.34s-.07.05-.07.1.03.09.07.09l3.23-.34Z"/><path class="cls-5" d="m275.29,154.39v-.37s-.16.02-.16.02v.18l-.29.03v-.18l-.16.02v.18l-.29.03v-.18l-.15.02v.36s.03.05.07.05l.92-.1s.06-.02.06-.06Z"/><path class="cls-5" d="m275.1,154.61l-.68.07-.05,1.24.78-.08-.05-1.23Zm-.25.72l-.18.02v-.32h0c0-.13.18-.15.18-.02v.32Z"/><path class="cls-5" d="m274.01,155.34l-.7.07-.02.62.75-.08-.02-.62Zm-.27.49l-.17.02v-.25h0c0-.13.17-.15.17-.02v.25Z"/><path class="cls-5" d="m276.21,155.11l-.7.07-.02.62.75-.08-.02-.62Zm-.26.49l-.17.02v-.25h0c0-.13.17-.15.17-.02v.25Z"/><path class="cls-5" d="m274.11,155.23s.06-.02.06-.06v-.37s-.15.02-.15.02v.19l-.29.03v-.18l-.15.02v.19l-.29.03v-.18h-.15s0,.38,0,.38c0,.03.03.05.06.05l.9-.09Z"/><path class="cls-5" d="m276.31,155s.06-.02.06-.06v-.37s-.15.02-.15.02v.19l-.29.03v-.18l-.15.02v.19l-.29.03v-.18h-.15s0,.38,0,.38c0,.03.03.05.06.05l.9-.09Z"/><path d="m274.67,155.02h0v.32l.18-.02v-.32c0-.13-.19-.11-.18.02Z"/><path d="m273.57,155.6h0v.25l.17-.02v-.25c0-.13-.17-.11-.17.02Z"/><path d="m275.78,155.37h0v.25l.17-.02v-.25c0-.13-.17-.11-.17.02Z"/><path class="cls-5" d="m274.57,166.61s.14-.13.19-.13h0s.5.18.53.83l.27-.03c-.05-.94-.79-1.08-.8-1.08,0,0-.75.23-.78,1.25l.26-.03c.02-.42.19-.68.34-.82Z"/><path class="cls-5" d="m274.33,166.35c.07-.06.13-.1.2-.14l-1.29.14-.13,1.19.75-.08c.02-.58.26-.92.46-1.1Z"/><path class="cls-5" d="m274.97,166.17c.08.04.17.07.27.15.19.15.41.44.43.95l.75-.08-.14-1.16-1.31.14Z"/><path class="cls-5" d="m273,167.88l3.52-.37s.08-.06.08-.12-.04-.11-.08-.1l-3.52.37s-.08.06-.08.12.04.11.08.1Z"/><path d="m273,167.98l3.52-.37c.1-.01.19-.12.19-.23s-.08-.2-.18-.19l-.14-1.17c.09-.02.17-.11.17-.21,0-.05-.02-.09-.04-.12.07-.03.13-.1.13-.19,0-.11-.08-.19-.18-.18h-.11s-.02-.61-.02-.61c.09-.01.16-.09.16-.17v-.47s-.36.04-.36.04v.19h-.08s0-.18,0-.18l-.36.04v.19h-.08s0-.17,0-.17l-.3.03h-.02s-.04.03-.04.03v.44c0,.08.07.14.16.14l-.02.63h-.13s-.05-1.26-.05-1.26h.02c.09-.01.17-.09.17-.18v-.47s-.36.04-.36.04v.18h-.08s0-.18,0-.18l-.36.04v.19h-.08s0-.17,0-.17l-.31.03h-.02s-.04.03-.04.03v.44c0,.09.08.15.17.14h.01s-.06,1.28-.06,1.28h-.13s-.02-.61-.02-.61c.09-.01.16-.09.16-.17v-.47s-.36.04-.36.04v.19h-.08s0-.18,0-.18l-.36.04v.19h-.08s0-.17,0-.17l-.3.03h-.02s-.04.03-.04.03v.44c0,.08.07.14.16.14l-.02.63h-.1c-.1.02-.18.12-.18.23,0,.08.05.14.12.16-.03.04-.05.08-.05.13,0,.11.08.18.17.18l-.13,1.2h-.01c-.1.01-.19.12-.19.24s.08.21.19.19Zm3.41-.79l-.75.08c-.02-.51-.25-.8-.43-.95-.09-.08-.18-.12-.27-.15l1.31-.14.14,1.16Zm-.91-2.39l.7-.07.02.62-.75.08.02-.62Zm-.16-.15v-.36s.14-.01.14-.01v.18l.29-.03v-.19l.15-.02v.18l.29-.03v-.19l.15-.02v.37s-.03.06-.06.06l-.9.09s-.06-.02-.06-.05Zm-.93-.36l.68-.07.05,1.23-.78.08.05-1.24Zm-.11-.12s-.07-.02-.07-.05v-.36s.15-.02.15-.02v.18l.29-.03v-.18l.16-.02v.18l.29-.03v-.18l.16-.02v.37s-.03.06-.06.06l-.92.1Zm-1,.87l.7-.07.02.62-.75.08.02-.62Zm-.16-.15v-.36s.14-.01.14-.01v.18l.29-.03v-.19l.15-.02v.18l.29-.03v-.19l.15-.02v.37s-.03.06-.06.06l-.9.09s-.06-.02-.06-.05Zm-.15,1c0-.05.04-.1.08-.1l3.37-.35s.08.04.08.09-.04.1-.08.1l-3.37.35s-.08-.04-.08-.09Zm.08.29c0-.05.03-.1.07-.1l3.23-.34s.07.04.07.09-.03.1-.07.1l-3.23.34s-.07-.04-.07-.09Zm.17.18l1.29-.14c-.06.04-.13.08-.2.14-.2.19-.45.53-.46,1.1l-.75.08.13-1.19Zm1.51-.15s.75.14.8,1.08l-.27.03c-.03-.65-.49-.84-.53-.83h0s-.19.12-.19.13c-.15.14-.32.4-.34.82l-.26.03c.03-1.02.78-1.25.78-1.25Zm-.42,1.21c.02-.53.34-.77.42-.82.09.03.41.2.44.73l-.86.09Zm-1.33.25l3.52-.37s.08.04.08.1-.04.11-.08.12l-3.52.37s-.08-.04-.08-.1.04-.11.08-.12Z"/><path class="cls-5" d="m274.75,166.59c-.08.05-.4.28-.42.82l.86-.09c-.02-.53-.35-.69-.44-.73Z"/><path class="cls-5" d="m273.08,165.97l3.37-.35s.08-.05.08-.1-.04-.09-.08-.09l-3.37.35s-.08.05-.08.1.04.09.08.09Z"/><path class="cls-5" d="m276.37,165.92s.07-.05.07-.1-.03-.09-.07-.09l-3.23.34s-.07.05-.07.1.03.09.07.09l3.23-.34Z"/><path class="cls-5" d="m275.29,164.01v-.37s-.16.02-.16.02v.18l-.29.03v-.18l-.16.02v.18l-.29.03v-.18l-.15.02v.36s.03.05.07.05l.92-.1s.06-.02.06-.06Z"/><path class="cls-5" d="m275.1,164.22l-.68.07-.05,1.24.78-.08-.05-1.23Zm-.25.72l-.18.02v-.32h0c0-.13.18-.15.18-.02v.32Z"/><path class="cls-5" d="m274.01,164.96l-.7.07-.02.62.75-.08-.02-.62Zm-.27.49l-.17.02v-.25h0c0-.13.17-.15.17-.02v.25Z"/><path class="cls-5" d="m276.21,164.73l-.7.07-.02.62.75-.08-.02-.62Zm-.26.49l-.17.02v-.25h0c0-.13.17-.15.17-.02v.25Z"/><path class="cls-5" d="m274.11,164.84s.06-.02.06-.06v-.37s-.15.02-.15.02v.19l-.29.03v-.18l-.15.02v.19l-.29.03v-.18h-.15s0,.38,0,.38c0,.03.03.05.06.05l.9-.09Z"/><path class="cls-5" d="m276.31,164.61s.06-.02.06-.06v-.37s-.15.02-.15.02v.19l-.29.03v-.18l-.15.02v.19l-.29.03v-.18h-.15s0,.38,0,.38c0,.03.03.05.06.05l.9-.09Z"/><path d="m274.67,164.64h0v.32l.18-.02v-.32c0-.13-.19-.11-.18.02Z"/><path d="m273.57,165.22h0v.25l.17-.02v-.25c0-.13-.17-.11-.17.02Z"/><path d="m275.78,164.99h0v.25l.17-.02v-.25c0-.13-.17-.11-.17.02Z"/><path class="cls-5" d="m277.48,176.13c0-.09.03-.22.06-.24h.01s.5-.26.99.14l.19-.21c-.71-.56-1.38-.11-1.39-.11,0,0-.42.68.28,1.35l.18-.2c-.27-.26-.33-.54-.32-.73Z"/><path class="cls-5" d="m277.53,177.15c-.4-.38-.45-.77-.42-1.03,0-.09.03-.16.05-.23l-.91,1.01.74.84.53-.59Z"/><path class="cls-5" d="m277.48,175.53c.08-.03.18-.07.3-.08.02,0,.04,0,.06,0,.25-.03.6.01.96.3l.53-.59-.93-.63-.92,1.02Z"/><path class="cls-5" d="m277.02,178.03s.11.04.14,0l2.48-2.76s.02-.1-.02-.13c-.02-.02-.05-.03-.08-.03-.02,0-.05,0-.06.02l-2.48,2.76s-.02.1.02.13Z"/><path class="cls-5" d="m278.46,176.11c-.39-.31-.76-.18-.86-.14-.03.09-.11.46.25.82l.6-.67Z"/><path class="cls-5" d="m275.74,176.78s.09.03.12,0l2.38-2.64s.02-.09-.01-.12c-.02-.02-.05-.03-.07-.02,0,0,0,0,0,0-.01,0-.03,0-.05.02l-2.38,2.64s-.02.09.01.12Z"/><path class="cls-5" d="m278.26,174.26l-2.27,2.53s-.02.08.02.12c.04.03.09.03.12,0l2.27-2.53s.02-.03.02-.05c0-.03-.01-.05-.03-.07-.02-.02-.05-.03-.07-.02-.02,0-.03,0-.04.02Z"/><path class="cls-5" d="m276.21,173.99s0-.03-.02-.04l-.26-.23-.11.12.13.12-.2.23-.13-.12-.11.12.13.12-.2.23-.13-.11-.11.12.26.23s.06.01.09-.02l.65-.72s.02-.03.02-.05Z"/><path class="cls-5" d="m277.11,174.96l-.91-.74-.48.53.84.82.56-.61Zm-.72.03l-.23-.2h0c-.1-.08.03-.23.13-.14l.23.2-.13.14Z"/><path class="cls-5" d="m276.32,175.84l-.45-.37-.5.55.42.41.53-.59Zm-.61.11c-.09-.08.03-.22.12-.13l.17.16-.12.13-.17-.16h0Z"/><path class="cls-5" d="m276.92,174.3l.42.41.53-.59-.45-.37-.5.55Zm.52.08l-.17-.16h0c-.09-.08.03-.22.12-.13l.17.16-.12.13Z"/><path class="cls-5" d="m275.87,175.24l-.26-.23-.11.12.13.12-.2.22-.13-.12-.11.12.13.12-.2.22-.13-.11-.1.11.26.23s.06.01.09-.01l.63-.7s.03-.06,0-.08Z"/><path class="cls-5" d="m276.74,173.75l.13.12-.2.22-.13-.11-.1.11.26.23s.06.01.09-.01l.63-.7s.03-.06,0-.08l-.26-.23-.11.12.13.12-.2.22-.13-.12-.11.12Z"/><path d="m276.85,173.48l-.25.28.13.12-.06.06-.13-.11-.23.25v.04l.31.27s.07.04.11.03c.04,0,.08-.03.11-.06l.43.41-.09.1-.95-.76.02-.02s.05-.08.05-.12c0-.04-.02-.08-.05-.11l-.33-.3-.26.29.13.12-.06.06-.13-.12-.26.29.13.12-.06.06-.13-.11-.22.24.04.03-.04-.03-.04.04.33.29s.07.04.11.03c.04,0,.09-.03.12-.06h0s.87.84.87.84l-.09.1-.46-.37c.06-.07.06-.17,0-.22l-.33-.3-.25.28.13.12-.06.06-.13-.12-.25.28.13.12-.06.06-.13-.11-.21.23.04.03-.04-.03-.04.04.33.29s.07.04.11.03c.04,0,.08-.03.11-.06l.43.41-.07.08c-.07.08-.06.2.01.27.04.04.09.05.14.05.02,0,.04-.02.06-.03,0,.04.02.08.05.11.04.04.1.05.15.05.04,0,.08-.02.11-.06l.75.85h0c-.07.09-.06.22.02.29.05.04.1.06.16.05.05,0,.09-.03.12-.06l2.48-2.76c.07-.08.06-.21-.02-.28-.04-.03-.09-.05-.14-.05-.05,0-.1.02-.14.06l-.94-.64s.04-.07.04-.11c0-.05-.02-.1-.06-.14-.03-.03-.08-.04-.12-.04.03-.07.03-.15-.03-.21-.04-.03-.09-.05-.14-.05,0,0,0,0,0,0-.05,0-.09.03-.12.06l-.08.09-.46-.37c.06-.07.06-.17,0-.22l-.33-.3-.25.28.13.12-.06.06-.13-.12Zm-1.4,1.29l-.26-.23.11-.12.13.11.2-.23-.13-.12.11-.12.13.12.2-.23-.13-.12.11-.12.26.23s.02.02.02.04c0,.02,0,.03-.02.05l-.65.72s-.07.03-.09.02Zm.26-.02l.48-.53.91.74-.56.61-.84-.82Zm-.48,1.27s-.06.03-.09.01l-.26-.23.1-.11.13.11.2-.22-.13-.12.11-.12.13.12.2-.22-.13-.12.11-.12.26.23s.02.06,0,.08l-.63.7Zm.14,0l.5-.55.45.37-.53.59-.42-.41Zm.89.87l.91-1.01c-.02.07-.05.14-.05.23-.03.27.03.66.42,1.03l-.53.59-.74-.84Zm1.07-1.18s.68-.45,1.39.11l-.19.21c-.49-.4-.97-.16-.99-.15h-.01s-.05.16-.06.25c0,.19.05.47.32.73l-.18.2c-.69-.66-.28-1.35-.28-1.35Zm.27.25c.09-.04.47-.17.86.14l-.6.67c-.36-.36-.28-.73-.25-.82Zm1.87-.83s.04-.03.06-.02c.03,0,.06.01.08.03.04.04.05.1.02.13l-2.48,2.76s-.09.03-.14,0c-.04-.04-.05-.1-.02-.13l2.48-2.76Zm-.15.01l-.53.59c-.36-.28-.71-.32-.96-.3-.02,0-.04,0-.06,0-.12.02-.22.05-.3.08l.92-1.02.93.63Zm-.96-.89s.03.04.03.07c0,.01,0,.03-.02.05l-2.27,2.53s-.08.03-.12,0c-.04-.03-.04-.09-.02-.12l2.27-2.53s.03-.02.04-.02c.02,0,.05,0,.07.02Zm-.27-.25s.04-.02.05-.02c0,0,0,0,0,0,.03,0,.05,0,.07.02.04.03.04.09.01.12l-2.38,2.64s-.09.03-.12,0c-.04-.03-.04-.09-.01-.12l2.38-2.64Zm-.23.1l-.53.59-.42-.41.5-.55.45.37Zm-.69-.59l-.13-.12.11-.12.26.23s.02.06,0,.08l-.63.7s-.06.03-.09.01l-.26-.23.1-.11.13.11.2-.22-.13-.12.11-.12.13.12.2-.22Z"/><path d="m276.16,174.79h0s.23.2.23.2l.13-.14-.23-.2c-.09-.08-.22.06-.13.14Z"/><path d="m276,175.97l-.17-.16c-.09-.08-.21.06-.12.13h0s.17.16.17.16l.12-.13Z"/><path d="m277.26,174.22h0l.17.16.12-.13-.17-.16c-.09-.08-.21.06-.12.13Z"/><path class="cls-5" d="m284.06,155.99s.14-.13.19-.13h0s.5.18.52.83l.27-.03c-.05-.94-.79-1.08-.8-1.08,0,0-.75.23-.78,1.25l.26-.03c.02-.42.19-.68.34-.82Z"/><path class="cls-5" d="m283.82,155.74c.07-.06.13-.1.2-.14l-1.29.14-.13,1.19.75-.08c.02-.58.26-.92.46-1.1Z"/><path class="cls-5" d="m284.45,155.56c.08.04.17.07.27.15.19.15.41.44.43.95l.75-.08-.14-1.16-1.31.14Z"/><path class="cls-5" d="m282.49,157.27l3.52-.37s.08-.06.08-.12-.04-.11-.08-.1l-3.52.37s-.08.06-.08.12.04.11.08.1Z"/><path d="m282.49,157.37l3.52-.37c.1-.01.19-.12.19-.23s-.08-.2-.18-.19l-.14-1.17c.09-.02.17-.11.17-.21,0-.05-.02-.08-.04-.12.07-.03.13-.1.13-.19,0-.11-.08-.19-.18-.18h-.11s-.02-.61-.02-.61c.09-.01.16-.09.16-.17v-.47s-.36.04-.36.04v.19h-.08s0-.18,0-.18l-.36.04v.19h-.08s0-.17,0-.17l-.3.03h-.02s-.04.03-.04.03v.44c0,.08.07.14.16.14l-.02.63h-.13s-.05-1.26-.05-1.26h.02c.09-.01.17-.09.17-.18v-.47s-.36.04-.36.04v.18h-.08s0-.18,0-.18l-.36.04v.19h-.08s0-.17,0-.17l-.31.03h-.02s-.04.03-.04.03v.44c0,.09.08.15.17.14h.01s-.06,1.28-.06,1.28h-.13s-.02-.61-.02-.61c.09-.01.16-.09.16-.17v-.47s-.36.04-.36.04v.19h-.08s0-.18,0-.18l-.36.04v.19h-.08s0-.17,0-.17l-.3.03h-.02s-.04.03-.04.03v.44c0,.08.07.14.16.14l-.02.63h-.1c-.1.02-.18.12-.18.23,0,.08.05.14.12.16-.03.04-.05.08-.05.13,0,.1.07.18.16.18l-.12,1.2h-.01c-.1.01-.19.12-.19.24s.08.21.19.19Zm3.41-.79l-.75.08c-.02-.51-.25-.8-.43-.95-.09-.08-.18-.12-.27-.15l1.31-.14.14,1.16Zm-.91-2.39l.7-.07.02.62-.75.08.02-.62Zm-.16-.15v-.36s.14-.01.14-.01v.18l.29-.03v-.19l.15-.02v.18l.29-.03v-.19l.15-.02v.37s-.03.06-.06.06l-.9.09s-.06-.02-.06-.05Zm-.93-.36l.68-.07.05,1.23-.78.08.05-1.24Zm-.11-.12s-.07-.02-.07-.05v-.36s.15-.02.15-.02v.18l.29-.03v-.18l.16-.02v.18l.29-.03v-.18l.16-.02v.37s-.03.06-.06.06l-.92.1Zm-1,.87l.7-.07.02.62-.75.08.02-.62Zm-.16-.15v-.36s.14-.01.14-.01v.18l.29-.03v-.19l.15-.02v.18l.29-.03v-.19l.15-.02v.37s-.03.06-.06.06l-.9.09s-.06-.02-.06-.05Zm-.15,1c0-.05.04-.1.08-.1l3.37-.35s.08.04.08.09-.04.1-.08.1l-3.37.35s-.08-.04-.08-.09Zm.08.29c0-.05.03-.1.07-.1l3.23-.34s.07.04.07.09-.03.1-.07.1l-3.23.34s-.07-.04-.07-.09Zm.17.18l1.29-.14c-.06.04-.13.08-.2.14-.2.19-.45.53-.46,1.1l-.75.08.13-1.19Zm1.51-.15s.75.14.8,1.08l-.27.03c-.03-.65-.49-.84-.52-.83h0s-.19.12-.19.13c-.15.14-.32.4-.34.82l-.26.03c.03-1.02.78-1.25.78-1.25Zm-.48,1.26h0s0,0,0,0h0Zm.05-.06c.02-.53.34-.77.42-.82.09.03.41.2.44.73l-.86.09Zm-1.33.25l3.52-.37s.08.04.08.1-.04.11-.08.12l-3.52.37s-.08-.04-.08-.1.04-.11.08-.12Z"/><path class="cls-5" d="m284.24,155.98c-.08.05-.4.28-.42.82l.86-.09c-.02-.53-.35-.69-.44-.73Z"/><rect class="cls-5" x="283.77" y="156.85" width="0" height="0"/><path class="cls-5" d="m282.57,155.36l3.37-.35s.08-.05.08-.1-.04-.09-.08-.09l-3.37.35s-.08.05-.08.1.04.09.08.09Z"/><path class="cls-5" d="m285.86,155.3s.07-.05.07-.1-.03-.09-.07-.09l-3.23.34s-.07.05-.07.1.03.09.07.09l3.23-.34Z"/><path class="cls-5" d="m284.78,153.39v-.37s-.16.02-.16.02v.18l-.29.03v-.18l-.16.02v.18l-.29.03v-.18l-.15.02v.36s.03.05.07.05l.92-.1s.06-.02.06-.06Z"/><path class="cls-5" d="m284.59,153.61l-.68.07-.05,1.24.78-.08-.05-1.23Zm-.25.72l-.18.02v-.32h0c0-.13.18-.15.18-.02v.32Z"/><path class="cls-5" d="m283.5,154.35l-.7.07-.02.62.75-.08-.02-.62Zm-.27.49l-.17.02v-.25h0c0-.13.17-.15.17-.02v.25Z"/><path class="cls-5" d="m285.7,154.11l-.7.07-.02.62.75-.08-.02-.62Zm-.26.49l-.17.02v-.25h0c0-.13.17-.15.17-.02v.25Z"/><path class="cls-5" d="m283.6,154.23s.06-.02.06-.06v-.37s-.15.02-.15.02v.19l-.29.03v-.18l-.15.02v.19l-.29.03v-.18h-.15s0,.38,0,.38c0,.03.03.05.06.05l.9-.09Z"/><path class="cls-5" d="m285.8,154s.06-.02.06-.06v-.37s-.15.02-.15.02v.19l-.29.03v-.18l-.15.02v.19l-.29.03v-.18h-.15s0,.38,0,.38c0,.03.03.05.06.05l.9-.09Z"/><path d="m284.16,154.03h0v.32l.18-.02v-.32c0-.13-.19-.11-.18.02Z"/><path d="m283.06,154.61h0v.25l.17-.02v-.25c0-.13-.17-.11-.17.02Z"/><path d="m285.26,154.37h0v.25l.17-.02v-.25c0-.13-.17-.11-.17.02Z"/><path class="cls-5" d="m293.68,154.6s-.74.3-.79,1.25l.27-.03c.03-.66.49-.94.53-.94.04-.01.18.09.18.09.15.11.32.33.34.75l.26-.03c-.03-1.01-.78-1.08-.79-1.08Z"/><path class="cls-5" d="m293.21,154.82c.09-.1.18-.15.27-.21l-1.31.14-.14,1.19.75-.08c.02-.52.25-.85.43-1.04Z"/><path class="cls-5" d="m293.91,154.56c.06.03.13.05.2.1.2.14.45.44.46,1.01l.75-.08-.13-1.16-1.29.14Z"/><path class="cls-5" d="m291.92,156.28l3.52-.37s.08-.06.08-.12-.04-.11-.08-.1l-3.52.37s-.08.06-.08.12.04.11.08.1Z"/><path d="m291.92,156.38l3.52-.37c.1-.01.19-.12.19-.23s-.08-.21-.19-.2h-.01s-.13-1.17-.13-1.17c.09-.01.17-.11.17-.21,0-.05-.02-.09-.05-.12.07-.04.12-.1.12-.18,0-.11-.08-.19-.18-.18h-.1s-.02-.61-.02-.61c.09-.02.16-.09.16-.17v-.44s-.04-.02-.04-.02l-.32.03v.18h-.08s0-.18,0-.18l-.36.04v.18h-.08s0-.18,0-.18l-.36.04v.47c0,.09.07.15.16.14l-.02.63h-.13s-.06-1.26-.06-1.26h.01c.09-.01.17-.09.17-.18v-.44s-.04-.02-.04-.02l-.32.03v.18h-.08s0-.18,0-.18l-.36.04v.18h-.08s0-.18,0-.18l-.36.04v.47c0,.09.07.15.17.14h.02s-.05,1.28-.05,1.28h-.13s-.02-.61-.02-.61c.08-.02.16-.09.16-.17v-.44s-.04-.02-.04-.02l-.32.03v.18h-.08s0-.18,0-.18l-.36.04v.18h-.08s0-.18,0-.18l-.36.04v.47c0,.09.07.15.16.14l-.02.63h-.11c-.1.02-.18.12-.18.23,0,.09.06.14.13.16-.02.04-.04.08-.04.13,0,.1.07.18.17.18l-.14,1.2c-.1.01-.18.12-.18.23s.08.21.19.19Zm1.33-.57c.02-.55.37-.78.43-.82.08.03.4.2.42.73l-.86.09Zm.96-.09c-.02-.41-.19-.64-.34-.75,0,0-.14-.1-.18-.09-.04,0-.51.29-.53.94l-.27.03c.05-.95.79-1.25.79-1.25,0,0,.76.08.79,1.08l-.26.03Zm1.12-.12l-.75.08c-.02-.57-.26-.86-.46-1.01-.07-.05-.13-.07-.2-.1l1.29-.14.13,1.16Zm-.89-2.39l.7-.07.02.62-.75.08.02-.62Zm-.16-.14v-.37s.15-.02.15-.02v.19l.29-.03v-.18l.15-.02v.19l.29-.03v-.18l.15-.02v.36s-.03.06-.06.06l-.9.09s-.06-.01-.06-.05Zm-.93-.36l.68-.07.05,1.23-.78.09.05-1.24Zm-.13-.13s-.06-.01-.06-.05v-.37s.16-.02.16-.02v.18l.29-.03v-.18l.16-.02v.18l.29-.03v-.18l.15-.02v.36s-.03.06-.07.06l-.92.1Zm-.99.86l.7-.07.02.62-.75.08.02-.62Zm-.16-.14v-.37s.15-.02.15-.02v.19l.29-.03v-.18l.15-.02v.19l.29-.03v-.18l.15-.02v.36s-.03.06-.06.06l-.9.09s-.06-.01-.06-.05Zm-.16,1c0-.05.04-.1.08-.1l3.37-.35s.08.04.08.09-.04.1-.08.1l-3.37.35s-.08-.04-.08-.09Zm.08.29c0-.05.03-.1.07-.1l3.23-.34s.07.04.07.09-.03.1-.07.1l-3.23.34s-.07-.04-.07-.09Zm.17.18l1.31-.14c-.08.05-.17.11-.27.21-.19.19-.41.53-.43,1.04l-.75.08.14-1.19Zm-.24,1.31l3.52-.37s.08.04.08.1-.04.11-.08.12l-3.52.37s-.08-.04-.08-.1.04-.11.08-.12Z"/><path class="cls-5" d="m293.69,154.99c-.07.04-.41.27-.43.82l.86-.09c-.02-.53-.35-.7-.42-.73Z"/><path class="cls-5" d="m291.99,154.37l3.37-.35s.08-.05.08-.1-.04-.09-.08-.09l-3.37.35s-.08.05-.08.1.04.09.08.09Z"/><path class="cls-5" d="m295.29,154.31s.07-.05.07-.1-.03-.09-.07-.09l-3.23.34s-.07.05-.07.1.03.09.07.09l3.23-.34Z"/><path class="cls-5" d="m294.2,152.4v-.36s-.15.02-.15.02v.18l-.29.03v-.18l-.16.02v.18l-.29.03v-.18l-.16.02v.37s.03.05.06.05l.92-.1s.07-.03.07-.06Z"/><path class="cls-5" d="m294.02,152.62l-.68.07-.05,1.24.78-.09-.05-1.23Zm-.25.4v.32l-.18.02v-.32c0-.13.19-.15.18-.02h0Z"/><path class="cls-5" d="m295.14,153.12l-.7.07-.02.62.75-.08-.02-.62Zm-.26.24v.25l-.17.02v-.25c0-.13.17-.14.17-.02h0Z"/><path class="cls-5" d="m292.94,153.35l-.7.07-.02.62.75-.08-.02-.62Zm-.27.24v.25l-.17.02v-.25c0-.13.17-.14.17-.02h0Z"/><path class="cls-5" d="m295.23,153.01s.06-.03.06-.06v-.36s-.14.02-.14.02v.18l-.29.03v-.19l-.15.02v.18l-.29.03v-.19l-.15.02v.37s.03.05.06.05l.9-.09Z"/><path class="cls-5" d="m293.03,153.24s.06-.03.06-.06v-.36s-.14.02-.14.02v.18l-.29.03v-.19l-.15.02v.18l-.29.03v-.19l-.15.02v.37s.03.05.06.05l.9-.09Z"/><path d="m293.59,153.04v.32l.18-.02v-.32h0c0-.13-.18-.11-.18.02Z"/><path d="m294.7,153.38v.25l.17-.02v-.25h0c0-.13-.17-.11-.17.02Z"/><path d="m292.49,153.61v.25l.17-.02v-.25h0c0-.13-.17-.11-.17.02Z"/><path class="cls-5" d="m293.68,164.21s-.74.3-.79,1.25l.27-.03c.03-.66.49-.94.53-.94.04-.01.18.09.18.09.15.11.32.33.34.75l.26-.03c-.03-1.01-.78-1.08-.79-1.08Z"/><path class="cls-5" d="m293.91,164.18c.06.03.13.05.2.1.2.14.45.44.46,1.01l.75-.08-.13-1.16-1.29.14Z"/><path class="cls-5" d="m293.21,164.43c.09-.1.18-.16.27-.21l-1.31.14-.14,1.19.75-.08c.02-.52.25-.85.43-1.04Z"/><path class="cls-5" d="m291.92,165.89l3.52-.37s.08-.06.08-.12-.04-.11-.08-.1l-3.52.37s-.08.06-.08.12.04.11.08.1Z"/><path d="m291.92,165.99l3.52-.37c.1-.01.19-.12.19-.23s-.08-.21-.19-.2h-.01s-.13-1.17-.13-1.17c.09-.01.17-.11.17-.21,0-.05-.02-.09-.05-.12.07-.04.12-.1.12-.18,0-.11-.08-.19-.18-.18h-.1s-.02-.61-.02-.61c.09-.02.16-.09.16-.17v-.44s-.04-.02-.04-.02l-.32.03v.18h-.08s0-.18,0-.18l-.36.04v.18h-.08s0-.18,0-.18l-.36.04v.47c0,.09.07.15.16.14l-.02.63h-.13s-.06-1.26-.06-1.26h.01c.09-.01.17-.09.17-.18v-.44s-.04-.02-.04-.02l-.32.03v.18h-.08s0-.18,0-.18l-.36.04v.18h-.08s0-.18,0-.18l-.36.04v.47c0,.09.07.15.17.14h.02s-.05,1.28-.05,1.28h-.13s-.02-.61-.02-.61c.08-.02.16-.09.16-.17v-.44s-.04-.02-.04-.02l-.32.03v.18h-.08s0-.18,0-.18l-.36.04v.18h-.08s0-.18,0-.18l-.36.04v.47c0,.09.07.15.16.14l-.02.63h-.11c-.1.02-.18.12-.18.23,0,.09.06.14.13.16-.02.04-.04.08-.04.13,0,.1.07.18.17.18l-.14,1.2c-.1.01-.18.12-.18.23s.08.21.19.19Zm1.33-.57c.02-.55.37-.78.43-.82.08.03.4.2.42.73l-.86.09Zm.96-.09c-.02-.41-.19-.64-.34-.75,0,0-.14-.1-.18-.09-.04,0-.51.29-.53.94l-.27.03c.05-.95.79-1.25.79-1.25,0,0,.76.08.79,1.08l-.26.03Zm1.12-.12l-.75.08c-.02-.57-.26-.86-.46-1.01-.07-.05-.13-.07-.2-.1l1.29-.14.13,1.16Zm-.89-2.39l.7-.07.02.62-.75.08.02-.62Zm-.16-.14v-.37s.15-.02.15-.02v.19l.29-.03v-.18l.15-.02v.19l.29-.03v-.18l.15-.02v.36s-.03.06-.06.06l-.9.09s-.06-.01-.06-.05Zm-.93-.36l.68-.07.05,1.23-.78.09.05-1.24Zm-.13-.13s-.06-.01-.06-.05v-.37s.16-.02.16-.02v.18l.29-.03v-.18l.16-.02v.18l.29-.03v-.18l.15-.02v.36s-.03.06-.07.06l-.92.1Zm-.99.86l.7-.07.02.62-.75.08.02-.62Zm-.16-.14v-.37s.15-.02.15-.02v.19l.29-.03v-.18l.15-.02v.19l.29-.03v-.18l.15-.02v.36s-.03.06-.06.06l-.9.09s-.06-.01-.06-.05Zm-.16,1c0-.05.04-.1.08-.1l3.37-.35s.08.04.08.09-.04.1-.08.1l-3.37.35s-.08-.04-.08-.09Zm.08.29c0-.05.03-.1.07-.1l3.23-.34s.07.04.07.09-.03.1-.07.1l-3.23.34s-.07-.04-.07-.09Zm.17.18l1.31-.14c-.08.05-.17.11-.27.21-.19.19-.41.53-.43,1.04l-.75.08.14-1.19Zm-.24,1.31l3.52-.37s.08.04.08.1-.04.11-.08.12l-3.52.37s-.08-.04-.08-.1.04-.11.08-.12Z"/><path class="cls-5" d="m293.69,164.6c-.07.04-.41.27-.43.82l.86-.09c-.02-.53-.35-.7-.42-.73Z"/><path class="cls-5" d="m291.99,163.98l3.37-.35s.08-.05.08-.1-.04-.09-.08-.09l-3.37.35s-.08.05-.08.1.04.09.08.09Z"/><path class="cls-5" d="m295.29,163.93s.07-.05.07-.1-.03-.09-.07-.09l-3.23.34s-.07.05-.07.1.03.09.07.09l3.23-.34Z"/><path class="cls-5" d="m294.2,162.02v-.36s-.15.02-.15.02v.18l-.29.03v-.18l-.16.02v.18l-.29.03v-.18l-.16.02v.37s.03.05.06.05l.92-.1s.07-.03.07-.06Z"/><path class="cls-5" d="m294.02,162.23l-.68.07-.05,1.24.78-.09-.05-1.23Zm-.25.4v.32l-.18.02v-.32c0-.13.19-.15.18-.02h0Z"/><path class="cls-5" d="m295.14,162.74l-.7.07-.02.62.75-.08-.02-.62Zm-.26.24v.25l-.17.02v-.25c0-.13.17-.14.17-.02h0Z"/><path class="cls-5" d="m292.94,162.97l-.7.07-.02.62.75-.08-.02-.62Zm-.27.24v.25l-.17.02v-.25c0-.13.17-.14.17-.02h0Z"/><path class="cls-5" d="m295.23,162.62s.06-.03.06-.06v-.36s-.14.02-.14.02v.18l-.29.03v-.19l-.15.02v.18l-.29.03v-.19l-.15.02v.37s.03.05.06.05l.9-.09Z"/><path class="cls-5" d="m293.03,162.85s.06-.03.06-.06v-.36s-.14.02-.14.02v.18l-.29.03v-.19l-.15.02v.18l-.29.03v-.19l-.15.02v.37s.03.05.06.05l.9-.09Z"/><path d="m293.59,162.65v.32l.18-.02v-.32h0c0-.13-.18-.11-.18.02Z"/><path d="m294.7,163v.25l.17-.02v-.25h0c0-.13-.17-.11-.17.02Z"/><path d="m292.49,163.23v.25l.17-.02v-.25h0c0-.13-.17-.11-.17.02Z"/><path class="cls-5" d="m291.1,174.26s-.68-.3-1.38.41l.19.17c.49-.5.97-.37.99-.36h.01s.05.15.06.24c0,.19-.05.47-.32.79l.18.16c.69-.81.28-1.41.27-1.41Z"/><path class="cls-5" d="m291.33,174.62c.03.26-.03.66-.42,1.12l.53.48.74-1-.91-.82c.02.07.05.13.05.22Z"/><path class="cls-5" d="m290.66,174.1c.12,0,.22,0,.3.02l-.92-.83-.93.83.53.48c.38-.39.76-.49,1.02-.5Z"/><path class="cls-5" d="m288.96,174.14s-.03-.02-.05-.01c0,0,0,0,0,0-.03,0-.06.02-.08.05-.04.05-.05.11-.02.14l2.48,2.24s.09.01.14-.03c.04-.05.05-.11.02-.14l-2.48-2.24Z"/><path class="cls-5" d="m290.84,174.57c-.09-.02-.47-.07-.86.32l.6.54c.36-.43.28-.79.25-.87Z"/><path class="cls-5" d="m290.29,172.71h0s-.05.02-.07.04c-.04.04-.04.1-.01.12l2.38,2.14s.09.02.12-.02c.04-.04.04-.1.01-.12l-2.38-2.14s-.04-.02-.05-.01Z"/><path class="cls-5" d="m290.14,172.99s0,0,0,0c-.02,0-.05.02-.07.04-.02.02-.03.05-.03.08,0,.01,0,.03.02.04l2.27,2.05s.08.01.12-.03c.04-.04.04-.09.02-.12l-2.27-2.05s-.03-.01-.04-.01Z"/><path class="cls-5" d="m292.9,172.93s.07.02.09,0l.26-.28-.11-.1-.13.14-.2-.18.13-.14-.11-.1-.13.14-.2-.18.13-.14-.11-.1-.26.29s-.02.03-.02.04c0,.02,0,.03.02.04l.65.58Z"/><path class="cls-5" d="m292.73,172.96l-.48-.43-.91.93.56.5.84-1Zm-.57.02c.09-.1.22.02.13.11h0s-.23.25-.23.25l-.13-.11.23-.25Z"/><path class="cls-5" d="m293.07,174.16l-.5-.45-.46.47.53.48.42-.49Zm-.63.08l.17-.19c.09-.1.21.01.12.11h0s-.17.19-.17.19l-.12-.11Z"/><path class="cls-5" d="m290.57,172.78l.53.48.42-.49-.5-.45-.46.47Zm.61-.02h0s-.17.19-.17.19l-.12-.11.17-.19c.09-.1.21.01.12.11Z"/><path class="cls-5" d="m293.21,174.14s.06.02.09,0l.26-.28-.1-.09-.13.14-.2-.18.13-.14-.11-.1-.13.14-.2-.18.13-.14-.11-.1-.26.29s-.02.06,0,.08l.63.57Z"/><path class="cls-5" d="m291.39,171.9l-.11-.1-.26.29s-.02.06,0,.08l.63.57s.06.02.09,0l.26-.28-.1-.09-.13.14-.2-.18.13-.14-.11-.1-.13.14-.2-.18.13-.14Z"/><path d="m291.28,171.66l-.33.37c-.06.07-.06.16,0,.22l-.46.47-.08-.07s-.08-.04-.12-.04c0,0,0,0,0,0-.05,0-.11.03-.14.08-.06.07-.06.15-.03.21-.04.01-.08.03-.12.07-.04.04-.06.1-.06.15,0,.04.02.08.04.1l-.94.83s-.09-.04-.14-.03c-.05.01-.1.04-.14.08-.08.09-.09.22-.02.29l2.48,2.24s.08.04.12.04c.06,0,.11-.03.16-.08.08-.09.09-.22.02-.29h0s.75-1.01.75-1.01c.03.02.07.04.11.03.05,0,.1-.03.15-.08.03-.04.05-.08.05-.12.02,0,.04.02.06.02.05,0,.1-.03.14-.08.08-.08.08-.21.01-.27l-.07-.07.43-.5s.07.04.11.03c.04,0,.08-.02.11-.06l.31-.34v-.04l-.23-.2-.13.14-.06-.05.13-.14-.25-.23-.13.14-.06-.05.13-.14-.25-.23-.33.37c-.06.07-.06.16,0,.22l-.46.47-.09-.08.87-1.03h0s.08.05.12.05c.04,0,.08-.02.11-.06l.32-.35-.02-.03-.23-.21-.13.14-.06-.05.13-.14-.26-.23-.13.14-.06-.05.13-.14-.26-.23-.33.37s-.05.07-.05.12c0,.04.02.09.05.11h.02s-.95.98-.95.98l-.09-.08.43-.5s.07.04.11.03c.04,0,.08-.02.11-.06l.3-.33v-.04s-.22-.21-.22-.21l-.13.14-.06-.05.13-.14-.25-.23-.13.14-.06-.05.13-.14-.25-.23Zm-1.24,1.64l.92.83c-.08-.02-.18-.03-.3-.02-.25.01-.63.12-1.02.5l-.53-.48.93-.83Zm1.38,3.22s-.11.06-.14.03l-2.48-2.24s-.02-.09.02-.14c.02-.02.05-.04.08-.05,0,0,0,0,0,0,.02,0,.04,0,.05.01l2.48,2.24s.02.09-.02.14Zm-1.44-1.61c.39-.4.76-.34.86-.32.03.08.11.44-.25.87l-.6-.54Zm.67.61c.27-.32.33-.61.32-.79,0-.09-.03-.21-.06-.23h-.01s-.5-.15-.99.35l-.19-.17c.71-.71,1.38-.41,1.38-.41,0,0,.42.6-.27,1.41l-.18-.16Zm.79.71l-.53-.48c.39-.46.45-.86.42-1.12,0-.09-.03-.15-.05-.22l.91.82-.74,1Zm1-1.04s-.09.05-.12.03l-2.27-2.05s-.02-.03-.02-.04c0-.03.01-.05.03-.08.02-.02.04-.03.07-.04,0,0,0,0,0,0,.01,0,.03,0,.04.01l2.27,2.05s.02.08-.02.12Zm.39-1.97l.11.1-.13.14.2.18.13-.14.11.1-.13.14.2.18.13-.14.1.09-.26.28s-.06.03-.09,0l-.63-.57s-.03-.05,0-.08l.26-.29Zm-.26.51l.5.45-.42.49-.53-.48.46-.47Zm-.32-1.45l.26-.29.11.1-.13.14.2.18.13-.14.11.1-.13.14.2.18.13-.14.11.1-.26.28s-.06.02-.09,0l-.65-.58s-.02-.03-.02-.04c0-.01,0-.03.02-.04Zm0,.27l.48.43-.84,1-.56-.5.91-.93Zm.47,2.33s.02.08-.01.12c-.04.04-.09.05-.12.02l-2.38-2.14s-.02-.08.01-.12c.02-.02.05-.04.07-.04h0s.03,0,.05.01l2.38,2.14Zm-1.62-1.61l-.53-.48.46-.47.5.45-.42.49Zm.37-1.03l.13-.14.11.1-.13.14.2.18.13-.14.1.09-.26.28s-.06.03-.09,0l-.63-.57s-.03-.05,0-.08l.26-.29.11.1-.13.14.2.18Z"/><path d="m292.28,173.1h0c.1-.1-.03-.22-.13-.11l-.23.25.13.11.23-.25Z"/><path d="m292.73,174.16c.09-.1-.03-.21-.12-.11l-.17.19.12.11.17-.19h0Z"/><path d="m291,172.95l.17-.19h0c.09-.1-.03-.21-.12-.11l-.17.19.12.11Z"/><path class="cls-2" d="m282.71,167.01c0,.46.18.86.46,1.13.28.27.67.42,1.1.38.43-.05.82-.27,1.1-.61.28-.33.46-.77.46-1.23v-2.24l-3.11.32v2.24s0,0,0,0h0Zm2.44-1.95c.17-.02.31.11.31.28s-.14.32-.31.34c-.17.02-.31-.11-.31-.28s.14-.32.31-.34Zm0,1.69c.17-.02.31.11.31.28s-.14.32-.31.34c-.17.02-.31-.11-.31-.28s.14-.32.31-.34Zm-.86-.77c.17-.02.31.11.31.28s-.14.32-.31.34c-.17.02-.31-.11-.31-.28s.14-.32.31-.34Zm-.86-.74c.17-.02.31.11.31.28s-.14.32-.31.34c-.17.02-.31-.11-.31-.28s.14-.32.31-.34Zm0,1.7c.17-.02.31.11.31.28s-.14.32-.31.34c-.17.02-.31-.11-.31-.28s.14-.32.31-.34Z"/><path class="cls-4" d="m283.43,165.85c.17-.02.31-.17.31-.34s-.14-.29-.31-.28c-.17.02-.31.17-.31.34s.14.29.31.28Z"/><path class="cls-4" d="m285.15,165.67c.17-.02.31-.17.31-.34s-.14-.29-.31-.28c-.17.02-.31.17-.31.34s.14.29.31.28Z"/><path class="cls-4" d="m284.29,166.59c.17-.02.31-.17.31-.34s-.14-.29-.31-.28-.31.17-.31.34.14.29.31.28Z"/><path class="cls-4" d="m283.43,167.55c.17-.02.31-.17.31-.34s-.14-.29-.31-.28c-.17.02-.31.17-.31.34s.14.29.31.28Z"/><path class="cls-4" d="m285.15,167.37c.17-.02.31-.17.31-.34s-.14-.29-.31-.28c-.17.02-.31.17-.31.34s.14.29.31.28Z"/><path class="cls-2" d="m282.71,161.61c0,.46.18.86.46,1.13.28.27.67.42,1.1.38.43-.05.82-.27,1.1-.61.28-.33.46-.77.46-1.23v-2.24l-3.11.32v2.24s0,0,0,0h0Zm2.44-1.95c.17-.02.31.11.31.28s-.14.32-.31.34-.31-.11-.31-.28.14-.32.31-.34Zm0,1.69c.17-.02.31.11.31.28s-.14.32-.31.34-.31-.11-.31-.28.14-.32.31-.34Zm-.86-.77c.17-.02.31.11.31.28s-.14.32-.31.34-.31-.11-.31-.28.14-.32.31-.34Zm-.86-.74c.17-.02.31.11.31.28s-.14.32-.31.34c-.17.02-.31-.11-.31-.28s.14-.32.31-.34Zm0,1.7c.17-.02.31.11.31.28s-.14.32-.31.34c-.17.02-.31-.11-.31-.28s.14-.32.31-.34Z"/><path class="cls-4" d="m283.43,160.45c.17-.02.31-.17.31-.34s-.14-.29-.31-.28c-.17.02-.31.17-.31.34s.14.29.31.28Z"/><path class="cls-4" d="m285.15,160.27c.17-.02.31-.17.31-.34s-.14-.29-.31-.28-.31.17-.31.34.14.29.31.28Z"/><path class="cls-4" d="m284.29,161.19c.17-.02.31-.17.31-.34s-.14-.29-.31-.28c-.17.02-.31.17-.31.34s.14.29.31.28Z"/><path class="cls-4" d="m283.43,162.15c.17-.02.31-.17.31-.34s-.14-.29-.31-.28c-.17.02-.31.17-.31.34s.14.29.31.28Z"/><path class="cls-4" d="m285.15,161.97c.17-.02.31-.17.31-.34s-.14-.29-.31-.28c-.17.02-.31.17-.31.34s.14.29.31.28Z"/><path class="cls-2" d="m278.4,167.46c0,.46.18.86.46,1.13.28.27.67.42,1.1.38.43-.05.82-.27,1.1-.61.28-.33.46-.77.46-1.23v-2.24l-3.11.32v2.24s0,0,0,0h0Zm2.44-1.95c.17-.02.31.11.31.28s-.14.32-.31.34c-.17.02-.31-.11-.31-.28s.14-.32.31-.34Zm0,1.69c.17-.02.31.11.31.28s-.14.32-.31.34c-.17.02-.31-.11-.31-.28s.14-.32.31-.34Zm-.86-.77c.17-.02.31.11.31.28s-.14.32-.31.34c-.17.02-.31-.11-.31-.28s.14-.32.31-.34Zm-.86-.74c.17-.02.31.11.31.28s-.14.32-.31.34-.31-.11-.31-.28.14-.32.31-.34Zm0,1.7c.17-.02.31.11.31.28s-.14.32-.31.34-.31-.11-.31-.28.14-.32.31-.34Z"/><path class="cls-4" d="m279.11,166.31c.17-.02.31-.17.31-.34s-.14-.29-.31-.28-.31.17-.31.34.14.29.31.28Z"/><path class="cls-4" d="m280.84,166.13c.17-.02.31-.17.31-.34s-.14-.29-.31-.28c-.17.02-.31.17-.31.34s.14.29.31.28Z"/><path class="cls-4" d="m279.97,167.05c.17-.02.31-.17.31-.34s-.14-.29-.31-.28c-.17.02-.31.17-.31.34s.14.29.31.28Z"/><path class="cls-4" d="m279.11,168.01c.17-.02.31-.17.31-.34s-.14-.29-.31-.28-.31.17-.31.34.14.29.31.28Z"/><path class="cls-4" d="m280.84,167.82c.17-.02.31-.17.31-.34s-.14-.29-.31-.28c-.17.02-.31.17-.31.34s.14.29.31.28Z"/><path class="cls-2" d="m287.02,166.55c0,.46.18.86.46,1.13.28.27.67.42,1.1.38.43-.05.82-.27,1.1-.61.28-.33.46-.77.46-1.23v-2.24l-3.11.32v2.24s0,0,0,0h0Zm2.44-1.95c.17-.02.31.11.31.28s-.14.32-.31.34c-.17.02-.31-.11-.31-.28s.14-.32.31-.34Zm0,1.69c.17-.02.31.11.31.28s-.14.32-.31.34c-.17.02-.31-.11-.31-.28s.14-.32.31-.34Zm-.86-.77c.17-.02.31.11.31.28s-.14.32-.31.34-.31-.11-.31-.28.14-.32.31-.34Zm-.86-.74c.17-.02.31.11.31.28s-.14.32-.31.34c-.17.02-.31-.11-.31-.28s.14-.32.31-.34Zm0,1.7c.17-.02.31.11.31.28s-.14.32-.31.34c-.17.02-.31-.11-.31-.28s.14-.32.31-.34Z"/><path class="cls-4" d="m287.73,165.4c.17-.02.31-.17.31-.34s-.14-.29-.31-.28c-.17.02-.31.17-.31.34s.14.29.31.28Z"/><path class="cls-4" d="m289.46,165.22c.17-.02.31-.17.31-.34s-.14-.29-.31-.28-.31.17-.31.34.14.29.31.28Z"/><path class="cls-4" d="m288.6,166.14c.17-.02.31-.17.31-.34s-.14-.29-.31-.28-.31.17-.31.34.14.29.31.28Z"/><path class="cls-4" d="m287.73,167.1c.17-.02.31-.17.31-.34s-.14-.29-.31-.28c-.17.02-.31.17-.31.34s.14.29.31.28Z"/><path class="cls-4" d="m289.46,166.92c.17-.02.31-.17.31-.34s-.14-.29-.31-.28-.31.17-.31.34.14.29.31.28Z"/><path class="cls-2" d="m282.71,172.36c0,.46.18.86.46,1.13.28.27.67.42,1.1.38.43-.05.82-.27,1.1-.61.28-.33.46-.77.46-1.23v-2.24l-3.11.32v2.24s0,0,0,0h0Zm2.44-1.95c.17-.02.31.11.31.28s-.14.32-.31.34c-.17.02-.31-.11-.31-.28s.14-.32.31-.34Zm0,1.69c.17-.02.31.11.31.28s-.14.32-.31.34c-.17.02-.31-.11-.31-.28s.14-.32.31-.34Zm-.86-.77c.17-.02.31.11.31.28s-.14.32-.31.34c-.17.02-.31-.11-.31-.28s.14-.32.31-.34Zm-.86-.74c.17-.02.31.11.31.28s-.14.32-.31.34-.31-.11-.31-.28.14-.32.31-.34Zm0,1.7c.17-.02.31.11.31.28s-.14.32-.31.34-.31-.11-.31-.28.14-.32.31-.34Z"/><path class="cls-4" d="m283.43,171.21c.17-.02.31-.17.31-.34s-.14-.29-.31-.28-.31.17-.31.34.14.29.31.28Z"/><path class="cls-4" d="m285.15,171.03c.17-.02.31-.17.31-.34s-.14-.29-.31-.28c-.17.02-.31.17-.31.34s.14.29.31.28Z"/><path class="cls-4" d="m284.29,171.95c.17-.02.31-.17.31-.34s-.14-.29-.31-.28c-.17.02-.31.17-.31.34s.14.29.31.28Z"/><path class="cls-4" d="m283.43,172.9c.17-.02.31-.17.31-.34s-.14-.29-.31-.28-.31.17-.31.34.14.29.31.28Z"/><path class="cls-4" d="m285.15,172.72c.17-.02.31-.17.31-.34s-.14-.29-.31-.28c-.17.02-.31.17-.31.34s.14.29.31.28Z"/><path class="cls-4" d="m328.12,97.88c-13.42,0-29.29,9.91-38.89,26.38-2.59-5.95-11.83-12.43-22.8-12.43-8.84,0-33.67,11.05-33.67,46.73,0,46.05,46.59,55.51,56.01,69.82.65.99,2.73,1.73,3.53-.62,7.51-22.18,65.79-47.24,65.79-92.37,0-25.31-16.53-37.51-29.95-37.51Zm14.33,37.36c-1.22,35.68-47.19,64.15-53.24,82.14-.88-1.77-2.64-3.68-4.98-5.77-11.99-10.74-39.08-26.45-38.76-55.17.32-28.51,15.16-37.43,23.23-37.43,8.7,0,13.46,5.12,15.53,9.22.61,1.21,1,2.34,1.18,3.21.76,3.81,5.03,6.86,6.4.61,1.37-6.25,14.65-25.31,30.96-25.31,14.94,0,20.12,15.41,19.67,28.52Z"/></g></g></g></svg>