<svg xmlns="http://www.w3.org/2000/svg" id="LOGO_LAYER" viewBox="232.76 97.88 125.33 131.44"><defs><style>.cls-1{fill:#f9f9f9;}.cls-2{fill:blue;}.cls-3{fill:#fff;}.cls-4{fill:#ff0;}.cls-5{fill:red;}</style></defs><g id="LOGO_GROUP"><g id="SELECT_FLAG_HERE"><g id="BLACK_FLAG"><path class="cls-1" d="m322.79,106.72c-16.31,0-29.59,19.06-30.96,25.31-1.37,6.25-5.64,3.2-6.4-.61-.76-3.81-5.42-12.43-16.71-12.43-7.01,0-19.1,6.73-22.39,27.12l10.18-1.07c-.17-2.27-.32-4.35-.42-5.52l1.07-.67c6.9-3.73,15.49-4.93,22.99-2.59,0,0,1.01.4,1.07.43-.1,1.23-.26,3.42-.43,5.8l61.64-6.48c.01-.26.03-.52.04-.79.45-13.11-4.73-28.52-19.67-28.52Z"/><path class="cls-2" d="m280.24,149.91c-.1,1.37-.17,2.38-.2,2.72-1.27,8.93-9.38,14.28-11.4,14.5-2.02.23-10.13-3.29-11.4-11.94-.03-.33-.1-1.33-.2-2.67-.15-2.04-.36-4.88-.55-7.47l-10.18,1.07c-.5,3.11-.8,6.53-.85,10.31-.13,11.39,4.06,20.73,9.9,28.53l66.61-7c10.5-12.44,19.61-26.51,20.42-41.93l-61.64,6.48c-.19,2.59-.39,5.39-.53,7.42Z"/><path class="cls-5" d="m289.22,217.37c3.38-10.05,19.23-23.38,32.77-39.42l-66.61,7c11.76,15.7,30.24,25.14,33.84,32.41Z"/><path class="cls-5" d="m257.25,155.19c1.27,8.65,9.38,12.17,11.4,11.94,2.02-.23,10.13-5.57,11.4-14.5.03-.34.1-1.35.2-2.72.15-2.02.35-4.83.53-7.42.17-2.38.33-4.57.43-5.8-.05-.02-1.07-.43-1.07-.43-.28,3.47-.99,14.64-1.09,15.95-.99,8.66-8.38,13.76-10.4,13.98-2.02.23-9.41-3.2-10.4-11.64-.1-1.29-.82-12.3-1.09-15.71l-1.07.67c.09,1.17.25,3.25.42,5.52.19,2.59.4,5.44.55,7.47.1,1.34.17,2.34.2,2.67Z"/><path class="cls-2" d="m268.65,166.21c2.02-.22,9.41-5.32,10.4-13.98.1-1.31.81-12.49,1.09-15.95-7.49-2.35-16.09-1.14-22.99,2.59.27,3.41.99,14.41,1.09,15.71.99,8.44,8.38,11.87,10.4,11.64Zm0-.92c-1.22.14-4.18-1.17-6.48-3.81,1.26-.34,1.44-1.22,3.02-1.4,1.75-.2,1.79.85,3.46.71,1.67-.23,1.71-1.29,3.46-1.49,1.56-.18,1.76.64,2.98.72-2.29,3.15-5.23,5.13-6.44,5.27Zm7.04-6.15s0,0,0,0c-1.79.2-1.79-.9-3.57-.7-1.75.2-1.79,1.25-3.46,1.49-1.67.14-1.71-.9-3.46-.71-1.79.2-1.79,1.3-3.57,1.5-.02,0-.04,0-.05,0-.2-.27-.4-.55-.58-.84.19,0,.39,0,.63-.02,1.79-.2,1.79-1.3,3.57-1.5,1.75-.2,1.79.85,3.46.71,1.67-.23,1.71-1.29,3.46-1.49,1.79-.2,1.79.9,3.57.7.22-.03.41-.06.58-.11-.18.33-.38.65-.58.97Zm-4.53-22.12l.72.06.24-.73.24.67.72-.22-.48.61.48.51-.72-.06-.24.73-.24-.67-.72.22.49-.61-.49-.5Zm-3.47,5.04l.72.06.24-.73.24.67.72-.22-.49.61.49.5-.72-.06-.24.73-.24-.67-.72.22.48-.61-.48-.5Zm-3.47-4.21l.72.06.24-.73.24.67.72-.22-.48.61.48.51-.72-.06-.24.73-.24-.67-.72.22.48-.61-.48-.5Zm-.22,11.41c.09-.08,1.87,2.24,1.87,2.17.02.11,2.84-5.95,2.84-5.95.05-.12,2.2,4.88,2.7,5.35.5-.54,1.8-2.74,1.89-2.68.66.89,4.56,5.78,4.58,5.72-.23,1.13-.6,2.21-1.06,3.22-.3.16-.65.29-1.14.34-1.79.2-1.79-.9-3.57-.7-1.75.2-1.79,1.25-3.46,1.49-1.67.14-1.71-.9-3.46-.71-1.79.2-1.79,1.3-3.57,1.5-.52.06-.89,0-1.19-.1-.45-.89-.81-1.87-1.04-2.94,0,0,3.92-5.78,4.61-6.7Z"/><path class="cls-1" d="m272.11,159.31c-1.75.2-1.79,1.25-3.46,1.49-1.67.14-1.71-.9-3.46-.71-1.58.18-1.76,1.06-3.02,1.4,2.3,2.64,5.26,3.95,6.48,3.81,1.21-.14,4.15-2.12,6.44-5.27-1.22-.07-1.42-.89-2.98-.72Z"/><path class="cls-1" d="m272.11,157.59c-1.75.2-1.79,1.25-3.46,1.49-1.67.14-1.71-.9-3.46-.71-1.79.2-1.79,1.3-3.57,1.5-.24.03-.45.03-.63.02.19.29.38.57.58.84.02,0,.03,0,.05,0,1.79-.2,1.79-1.3,3.57-1.5,1.75-.2,1.79.85,3.46.71,1.67-.23,1.71-1.29,3.46-1.49,1.79-.2,1.79.9,3.57.7,0,0,0,0,0,0,.2-.31.39-.64.58-.97-.17.05-.36.08-.58.11-1.79.2-1.79-.9-3.57-.7Z"/><path class="cls-1" d="m261.62,159.01c1.79-.2,1.79-1.3,3.57-1.5,1.75-.2,1.79.85,3.46.71,1.67-.23,1.71-1.29,3.46-1.49,1.79-.2,1.79.9,3.57.7.49-.05.84-.18,1.14-.34.46-1.01.83-2.09,1.06-3.22-.01.07-3.92-4.83-4.58-5.72-.09-.06-1.39,2.15-1.89,2.68-.5-.47-2.65-5.47-2.7-5.35,0,0-2.82,6.06-2.84,5.95,0,.07-1.78-2.25-1.87-2.17-.69.92-4.61,6.7-4.61,6.7.22,1.07.58,2.05,1.04,2.94.31.11.67.16,1.19.1Z"/><polygon class="cls-4" points="268.41 142.96 268.65 143.63 268.89 142.9 269.61 142.96 269.13 142.46 269.61 141.85 268.89 142.07 268.65 141.4 268.41 142.13 267.69 142.07 268.17 142.57 267.69 143.18 268.41 142.96"/><polygon class="cls-4" points="264.94 138.75 265.18 139.42 265.42 138.69 266.14 138.75 265.66 138.25 266.14 137.64 265.42 137.86 265.18 137.19 264.94 137.91 264.21 137.85 264.7 138.36 264.21 138.97 264.94 138.75"/><polygon class="cls-4" points="271.88 137.91 272.12 138.59 272.36 137.86 273.09 137.92 272.6 137.42 273.09 136.8 272.36 137.03 272.12 136.35 271.88 137.08 271.16 137.02 271.65 137.53 271.16 138.14 271.88 137.91"/><path class="cls-3" d="m328.12,97.88c-13.42,0-29.29,9.91-38.89,26.38-2.59-5.95-11.83-12.43-22.8-12.43-8.84,0-33.67,11.05-33.67,46.73,0,46.05,46.59,55.51,56.01,69.82.65.99,2.73,1.73,3.53-.62,7.51-22.18,65.79-47.24,65.79-92.37,0-25.31-16.53-37.51-29.95-37.51Zm14.33,37.36c0,.26-.03.52-.04.79-.81,15.43-9.92,29.49-20.42,41.93-13.54,16.03-29.39,29.36-32.77,39.42-3.6-7.28-22.08-16.72-33.84-32.41-5.84-7.8-10.03-17.14-9.9-28.53.04-3.77.34-7.2.85-10.31,3.29-20.4,15.38-27.12,22.39-27.12,11.28,0,15.94,8.61,16.71,12.43.76,3.81,5.03,6.86,6.4.61,1.37-6.25,14.65-25.31,30.96-25.31,14.94,0,20.12,15.41,19.67,28.52Z"/></g></g></g></svg>