<svg xmlns="http://www.w3.org/2000/svg" id="LOGO_LAYER" viewBox="232.76 97.88 125.33 131.44"><defs><style>.cls-1{fill:#fff;}.cls-2{fill:#fd0;}.cls-3{fill:#1770b8;}</style></defs><g id="LOGO_GROUP"><g id="SELECT_FLAG_HERE"><g id="BLACK_FLAG"><path class="cls-3" d="m276.75,120.77c-2.19-1.08-4.84-1.78-8.03-1.78-8.08,0-22.92,8.92-23.23,37.43,0,.55,0,1.09.01,1.63l31.25-3.29v-34Z"/><path class="cls-3" d="m294.43,208.48c8.63-11.23,24.92-25.29,36.13-41.68l-36.13,3.8v37.88Z"/><path class="cls-3" d="m322.79,106.72c-12.67,0-23.51,11.5-28.36,19.56v26.63l45.69-4.8c1.36-4.18,2.19-8.47,2.34-12.88.45-13.11-4.73-28.52-19.67-28.52Z"/><path class="cls-3" d="m249.56,175.31c6.12,13.22,17.93,22.74,27.19,30.11v-32.97l-27.19,2.86Z"/><path class="cls-2" d="m294.43,126.28c-1.4,2.32-2.3,4.36-2.61,5.75-1.37,6.25-5.64,3.2-6.4-.61-.55-2.74-3.11-7.92-8.67-10.65v34l-31.25,3.29c.16,6.38,1.68,12.1,4.07,17.26l27.19-2.86v32.97c5.92,4.72,10.8,8.57,12.47,11.94.92-2.72,2.75-5.69,5.21-8.89v-37.88l36.13-3.8c4.05-5.93,7.44-12.17,9.56-18.69l-45.69,4.8v-26.63Z"/><path class="cls-1" d="m328.12,97.88c-13.42,0-29.29,9.91-38.89,26.38-2.59-5.95-11.83-12.43-22.8-12.43-8.84,0-33.67,11.05-33.67,46.73,0,46.05,46.59,55.51,56.01,69.82.65.99,2.73,1.73,3.53-.62,7.51-22.18,65.79-47.24,65.79-92.37,0-25.31-16.53-37.51-29.95-37.51Zm14.33,37.36c-.15,4.4-.99,8.7-2.34,12.88-2.11,6.52-5.5,12.76-9.56,18.69-11.21,16.4-27.5,30.46-36.13,41.68-2.46,3.2-4.29,6.16-5.21,8.89-1.67-3.38-6.55-7.22-12.47-11.94-9.26-7.38-21.07-16.89-27.19-30.11-2.39-5.16-3.91-10.88-4.07-17.26-.01-.54-.02-1.08-.01-1.63.32-28.51,15.16-37.43,23.23-37.43,3.19,0,5.84.7,8.03,1.78,5.56,2.73,8.13,7.91,8.67,10.65.76,3.81,5.03,6.86,6.4.61.31-1.4,1.21-3.43,2.61-5.75,4.85-8.06,15.69-19.56,28.36-19.56,14.94,0,20.12,15.41,19.67,28.52Z"/></g></g></g></svg>