<svg xmlns="http://www.w3.org/2000/svg" id="LOGO_LAYER" viewBox="232.76 97.88 125.33 131.44"><defs><style>.cls-1{fill:#f9f9f9;}.cls-2{fill:#012169;}.cls-3{fill:#fff;}.cls-4{fill:#c8102e;}</style></defs><g id="LOGO_GROUP"><g id="SELECT_FLAG_HERE"><g id="BLACK_FLAG"><path class="cls-2" d="m341.27,143.97c.55-2.33.92-4.69,1.1-7.09h0l-12.78,8.32,11.68-1.23Z"/><path class="cls-2" d="m302.07,199.62c.07-.08.15-.16.22-.24,4.71-5.08,10.14-10.61,15.45-16.54l-15.67-6.9v23.68Z"/><path class="cls-2" d="m278.56,121.8c-2.49-1.65-5.72-2.81-9.84-2.81s-10.08,2.36-14.91,8.51c-1.7,2.16-3.26,4.79-4.56,7.95l29.31,12.91v-26.57Z"/><path class="cls-2" d="m245.72,151.11h0c-.08.95-.14,1.92-.18,2.92l5.49-.58-5.31-2.34Z"/><path class="cls-2" d="m260,190.49c4.17,4.53,8.75,8.47,13.04,11.97,1.92,1.56,3.78,3.03,5.52,4.42v-28.46l-18.56,12.08Z"/><path class="cls-2" d="m340.51,120.88c-.27-.82-.58-1.61-.92-2.39-2.93-6.75-8.28-11.77-16.81-11.77-7.99,0-15.23,4.57-20.72,9.97v29.21l38.45-25.02Z"/><path class="cls-1" d="m323.12,176.61l-9.3-4.1,10.51-1.1,2.18.96c1.72-2.23,3.36-4.51,4.9-6.83h0l-34.05,3.58v35.77c1.45-1.7,3.03-3.45,4.7-5.26v-23.68l15.67,6.9h0c1.82-2.03,3.62-4.11,5.38-6.23h0Z"/><path class="cls-4" d="m266.8,151.8l-19.89-8.76c-.37,1.67-.67,3.45-.91,5.34l10.29,4.53,10.51-1.1Z"/><path class="cls-4" d="m313.82,146.86l28.35-18.45h0c-.21-1.73-.52-3.45-.95-5.12h0l-37.91,24.67,10.51-1.1Z"/><path class="cls-4" d="m266.8,177.45l-11.45,7.45c.97,1.3,1.99,2.55,3.04,3.77h0l18.94-12.32-10.52,1.11Z"/><path class="cls-4" d="m313.82,172.51l9.3,4.1c1.15-1.39,2.29-2.81,3.39-4.24h0l-2.18-.96-10.51,1.1Z"/><path class="cls-1" d="m249.06,174.19h0c1.67,3.87,3.83,7.43,6.29,10.72h0l11.45-7.45,10.52-1.11-18.94,12.32c.53.62,1.07,1.22,1.62,1.81h0l18.56-12.08v28.46c1.7,1.36,3.29,2.64,4.7,3.86v-40.15l-34.2,3.59Z"/><path class="cls-1" d="m339.72,149.26c.61-1.74,1.13-3.51,1.55-5.29h0l-11.68,1.23,12.78-8.32c.04-.55.07-1.1.09-1.65.08-2.24-.02-4.54-.29-6.83l-28.35,18.45-10.51,1.1,37.91-24.67c-.21-.82-.45-1.62-.71-2.41h0l-38.45,25.02v-29.21c-1.76,1.73-3.34,3.54-4.7,5.32v31.71l42.36-4.45Z"/><path class="cls-1" d="m283.26,126.53c-.43-.66-.93-1.31-1.51-1.96-.89-.99-1.95-1.94-3.2-2.77v26.57l-29.31-12.91h0c-.93,2.25-1.72,4.77-2.33,7.58h0l19.89,8.76-10.51,1.1-10.29-4.53h0c-.11.89-.21,1.8-.28,2.74l5.31,2.34-5.49.58h0c-.03.78-.06,1.58-.07,2.4-.01.93.01,1.84.06,2.74l37.72-3.96v-28.67Z"/><path class="cls-4" d="m331.41,165.53c3.44-5.2,6.34-10.62,8.31-16.27h0l-42.36,4.45v-31.71c-.26.34-.52.67-.76,1-2.64,3.63-4.34,7-4.78,9.02-1.37,6.25-5.64,3.2-6.4-.61-.25-1.27-.95-3.06-2.16-4.9v28.67l-37.72,3.96h0c.28,5.48,1.56,10.47,3.52,15.02l34.2-3.59v40.15c2.82,2.43,4.96,4.62,5.96,6.63,1.25-3.72,4.22-7.9,8.14-12.49v-35.77l34.05-3.58Z"/><path class="cls-3" d="m328.12,97.88c-13.42,0-29.29,9.91-38.89,26.38-2.59-5.95-11.83-12.43-22.8-12.43-8.84,0-33.67,11.05-33.67,46.73,0,46.05,46.59,55.51,56.01,69.82.65.99,2.73,1.73,3.53-.62,7.51-22.18,65.79-47.24,65.79-92.37,0-25.31-16.53-37.51-29.95-37.51Zm-10.39,84.96c-5.31,5.93-10.74,11.45-15.45,16.54-.07.08-.15.16-.22.24-1.67,1.81-3.25,3.56-4.7,5.26-3.92,4.59-6.89,8.77-8.14,12.49-1-2.02-3.14-4.2-5.96-6.63-1.41-1.22-3-2.51-4.7-3.86-1.74-1.39-3.6-2.86-5.52-4.42-4.29-3.49-8.87-7.44-13.04-11.97h0c-.55-.59-1.09-1.2-1.62-1.81h0c-1.05-1.21-2.07-2.47-3.04-3.77h0c-2.46-3.29-4.62-6.85-6.29-10.72h0c-1.96-4.56-3.24-9.54-3.52-15.02h0c-.05-.9-.07-1.81-.06-2.74,0-.82.03-1.61.07-2.4h0c.04-1,.1-1.97.18-2.92h0c.08-.94.17-1.85.28-2.74h0c.23-1.89.54-3.66.91-5.34h0c.62-2.81,1.41-5.33,2.33-7.58h0c1.3-3.16,2.86-5.79,4.56-7.95,4.83-6.15,10.76-8.51,14.91-8.51s7.36,1.16,9.84,2.81c1.25.83,2.31,1.78,3.2,2.77.57.64,1.07,1.3,1.51,1.96,1.21,1.83,1.91,3.63,2.16,4.9.76,3.81,5.03,6.86,6.4.61.44-2.02,2.14-5.39,4.78-9.02.24-.33.5-.67.76-1,1.36-1.78,2.94-3.59,4.7-5.32,5.49-5.4,12.73-9.97,20.72-9.97,8.53,0,13.87,5.02,16.81,11.77.34.78.64,1.57.92,2.39h0c.27.79.5,1.59.71,2.41h0c.43,1.67.74,3.39.95,5.12h0c.27,2.28.36,4.59.29,6.83-.02.55-.05,1.1-.09,1.65h0c-.17,2.4-.55,4.76-1.1,7.09h0c-.42,1.78-.94,3.55-1.55,5.29h0c-1.97,5.64-4.87,11.07-8.31,16.27h0c-1.54,2.32-3.18,4.6-4.9,6.83h0c-1.1,1.43-2.24,2.85-3.39,4.24h0c-1.76,2.12-3.56,4.2-5.38,6.23h0Z"/></g></g></g></svg>